SplineFontDB: 3.0
FontName: LisuTzimu-Italic
FullName: LisuTzimu Italic
FamilyName: LisuTzimu
Weight: Book
Copyright: Copyright (c) 1998-2009 by David Morse; licensed under the SIL Open Font License with Reserved Font Name "LisuTzimu".
Version: 2.002
ItalicAngle: -11
UnderlinePosition: -307
UnderlineWidth: 82
Ascent: 1638
Descent: 410
sfntRevision: 0x00020083
LayerCount: 2
Layer: 0 1 "Back"  1
Layer: 1 1 "Fore"  0
XUID: [1021 646 1676337484 4587172]
FSType: 0
OS2Version: 3
OS2_WeightWidthSlopeOnly: 0
OS2_UseTypoMetrics: 1
CreationTime: 1244570400
ModificationTime: 1378801913
PfmFamily: 17
TTFWeight: 400
TTFWidth: 5
LineGap: 0
VLineGap: 0
Panose: 2 11 6 4 2 2 3 8 2 1
OS2TypoAscent: 1638
OS2TypoAOffset: 0
OS2TypoDescent: -410
OS2TypoDOffset: 0
OS2TypoLinegap: 0
OS2WinAscent: 1638
OS2WinAOffset: 0
OS2WinDescent: 410
OS2WinDOffset: 0
HheadAscent: 1638
HheadAOffset: 0
HheadDescent: -410
HheadDOffset: 0
OS2SubXSize: 1434
OS2SubYSize: 1331
OS2SubXOff: 0
OS2SubYOff: 293
OS2SupXSize: 1434
OS2SupYSize: 1331
OS2SupXOff: 0
OS2SupYOff: 928
OS2StrikeYSize: 102
OS2StrikeYPos: 530
OS2Vendor: 'PYRS'
OS2CodePages: 00040001.00000000
OS2UnicodeRanges: 80000023.00016000.00000000.00000000
Lookup: 258 0 0 "'kern' Horizontal Kerning in Latin lookup 0"  {"'kern' Horizontal Kerning in Latin lookup 0 subtable"  } ['kern' ('latn' <'dflt' > ) ]
DEI: 91125
KernClass2: 3+ 3 "'kern' Horizontal Kerning in Latin lookup 0 subtable"
 28 macronlowmod uniA4FA uniA4FB
 63 uniA4D1 uniA4D4 uniA4DD uniA4E6 uniA4E9 uniA4EA uniA4EC uniA4EF
 9 afii57929
 5 space
 44 macronlowmod uniA4F8 uniA4F9 uniA4FA uniA4FB
 0 {} -148 {} 0 {} 0 {} 0 {} -164 {} 0 {} 0 {} -246 {}
TtTable: prep
PUSHW_1
 0
CALL
EndTTInstrs
TtTable: fpgm
PUSHW_1
 0
FDEF
MPPEM
PUSHW_1
 3
LT
IF
PUSHB_2
 1
 1
INSTCTRL
EIF
PUSHW_1
 511
SCANCTRL
PUSHW_1
 68
SCVTCI
PUSHW_2
 3
 3
SDS
SDB
ENDF
PUSHW_1
 1
FDEF
DUP
DUP
RCVT
ROUND[Black]
WCVTP
PUSHB_1
 1
ADD
ENDF
PUSHW_1
 2
FDEF
PUSHW_1
 1
LOOPCALL
POP
ENDF
PUSHW_1
 3
FDEF
DUP
GC[cur]
PUSHB_1
 3
CINDEX

StartChar: .notdef
Encoding: 166 -1 0
Width: 1024
Flags: W
LayerCount: 2
Fore
SplineSet
129 0 m 1,0,-1
 129 1640 l 1,1,-1
 897 1640 l 1,2,-1
 897 0 l 1,3,-1
 129 0 l 1,0,-1
256 129 m 1,4,-1
 768 129 l 1,5,-1
 768 1513 l 1,6,-1
 256 1513 l 1,7,-1
 256 129 l 1,4,-1
EndSplineSet
EndChar

StartChar: exclam
Encoding: 1 33 4
Width: 694
Flags: W
LayerCount: 2
Fore
SplineSet
674 1112 m 0,0,1
 674 1042 674 1042 621 954 c 0,2,3
 543 827 543 827 537 807 c 2,4,-1
 459 582 l 1,5,6
 397 408 397 408 373 385 c 0,7,8
 324 340 324 340 274 340 c 0,9,10
 225 340 225 340 211 408 c 1,11,12
 264 545 264 545 356 825 c 1,13,14
 365 901 365 901 397 1051 c 1,15,16
 436 1171 436 1171 500 1171 c 0,17,18
 543 1171 543 1171 598 1159 c 0,19,20
 674 1143 674 1143 674 1112 c 0,0,1
326 117 m 0,21,22
 326 70 326 70 287 39 c 128,-1,23
 248 8 248 8 199 8 c 0,24,25
 162 8 162 8 127 28.5 c 128,-1,26
 92 49 92 49 92 84 c 0,27,28
 92 131 92 131 141 166 c 1,29,30
 184 199 184 199 233 199 c 0,31,32
 268 199 268 199 297 175.5 c 128,-1,33
 326 152 326 152 326 117 c 0,21,22
EndSplineSet
EndChar

StartChar: quotedbl
Encoding: 2 34 5
Width: 856
Flags: W
LayerCount: 2
Fore
SplineSet
895 1200 m 0,0,1
 895 1135 895 1135 813 967 c 0,2,3
 725 786 725 786 674 786 c 1,4,5
 676 795 676 795 676 825 c 0,6,7
 676 903 676 903 705 1016 c 0,8,9
 743 1165 743 1165 748 1204 c 1,10,-1
 768 1235 l 1,11,12
 782 1241 782 1241 797 1241 c 0,13,14
 895 1241 895 1241 895 1200 c 0,0,1
549 1214 m 0,15,16
 549 1159 549 1159 496 1010 c 0,17,18
 440 852 440 852 403.5 833.5 c 128,-1,19
 367 815 367 815 338 805 c 1,20,21
 330 819 330 819 330 844 c 0,22,23
 330 899 330 899 356 1051 c 1,24,25
 375 1153 375 1153 379 1169 c 0,26,27
 403 1255 403 1255 449 1255 c 0,28,29
 549 1255 549 1255 549 1214 c 0,15,16
EndSplineSet
EndChar

StartChar: numbersign
Encoding: 3 35 6
Width: 1327
Flags: W
LayerCount: 2
Fore
SplineSet
1382 864 m 0,0,1
 1382 801 1382 801 1225 780 c 1,2,3
 1124 772 1124 772 1024 766 c 1,4,5
 948 645 948 645 901 559 c 1,6,7
 1147 590 1147 590 1210 590 c 0,8,9
 1219 590 1219 590 1219 573 c 0,10,11
 1219 524 1219 524 1151 506 c 1,12,13
 1096 500 1096 500 1040 494 c 1,14,15
 932 479 932 479 852 475 c 1,16,17
 819 410 819 410 749.5 286 c 128,-1,18
 680 162 680 162 598 162 c 0,19,20
 569 162 569 162 569 176 c 0,21,22
 569 211 569 211 752 471 c 1,23,-1
 494 457 l 1,24,25
 385 262 385 262 381 258 c 1,26,27
 299 139 299 139 207 139 c 0,28,29
 199 139 199 139 195 145 c 1,30,31
 195 182 195 182 395 457 c 1,32,33
 203 446 203 446 115 446 c 0,34,35
 61 446 61 446 45 459 c 1,36,37
 55 504 55 504 109 539 c 1,38,-1
 442 539 l 1,39,-1
 565 748 l 1,40,41
 518 748 518 748 422 742.5 c 128,-1,42
 326 737 326 737 279 737 c 0,43,44
 227 737 227 737 211 748 c 1,45,46
 225 827 225 827 295 827 c 0,47,48
 334 827 334 827 413 823 c 128,-1,49
 492 819 492 819 530 819 c 0,50,51
 557 819 557 819 600 821 c 1,52,53
 668 983 668 983 674 991 c 1,54,55
 729 1085 729 1085 817 1085 c 1,56,57
 803 1042 803 1042 772 956 c 1,58,59
 750 909 750 909 700 821 c 1,60,61
 799 821 799 821 961 836 c 1,62,63
 1001 924 1001 924 1042 1014 c 1,64,65
 1106 1122 1106 1122 1184 1124 c 1,66,-1
 1188 1120 l 1,67,68
 1184 1057 1184 1057 1055 840 c 1,69,70
 1305 879 1305 879 1376 879 c 0,71,72
 1382 879 1382 879 1382 864 c 0,0,1
920 760 m 1,73,74
 764 748 764 748 653 748 c 1,75,76
 633 715 633 715 543 545 c 1,77,78
 684 547 684 547 801 555 c 1,79,80
 840 614 840 614 920 760 c 1,73,74
EndSplineSet
EndChar

StartChar: dollar
Encoding: 4 36 7
Width: 881
Flags: W
LayerCount: 2
Fore
SplineSet
868 965 m 0,0,1
 868 903 868 903 754 903 c 0,2,3
 731 903 731 903 684 907 c 1,4,5
 672 868 672 868 659 831 c 1,6,7
 639 793 639 793 598 793 c 0,8,9
 575 793 575 793 553 778 c 1,10,-1
 528 786 l 1,11,12
 530 815 530 815 565 922 c 1,13,14
 403 840 403 840 403 776 c 0,15,16
 403 719 403 719 498 674 c 0,17,18
 557 647 557 647 674 590 c 1,19,20
 770 537 770 537 770 453 c 0,21,22
 770 262 770 262 430 199 c 1,23,24
 412 92 412 92 401 72 c 1,25,26
 373 10 373 10 297 10 c 0,27,28
 270 10 270 10 270 25 c 0,29,30
 270 47 270 47 369 201 c 1,31,32
 299 199 299 199 203 188 c 1,33,-1
 170 201 l 1,34,35
 162 211 162 211 162 215 c 0,36,37
 162 291 162 291 240 307 c 1,38,-1
 379 315 l 1,39,40
 399 377 399 377 420 399 c 0,41,42
 449 430 449 430 504 430 c 0,43,44
 520 430 520 430 520 416 c 0,45,46
 520 397 520 397 475 303 c 1,47,48
 639 379 639 379 639 444 c 0,49,50
 639 518 639 518 541 561 c 1,51,52
 479 584 479 584 360 635 c 1,53,54
 262 680 262 680 262 760 c 0,55,56
 262 864 262 864 391 936 c 0,57,58
 485 989 485 989 612 1010 c 1,59,60
 625 1087 625 1087 629 1098 c 0,61,62
 647 1147 647 1147 694 1147 c 0,63,64
 748 1147 748 1147 748 1124 c 0,65,66
 748 1120 748 1120 709 1006 c 1,67,68
 778 1010 778 1010 797 1010 c 0,69,70
 868 1010 868 1010 868 965 c 0,0,1
EndSplineSet
EndChar

StartChar: percent
Encoding: 5 37 8
Width: 1808
Flags: W
LayerCount: 2
Fore
SplineSet
1739 467 m 0,0,1
 1739 279 1739 279 1614 137 c 1,2,3
 1483 -10 1483 -10 1296 -10 c 0,4,5
 1182 -10 1182 -10 1096 76 c 128,-1,6
 1010 162 1010 162 1010 276 c 0,7,8
 1010 391 1010 391 1055 473 c 0,9,10
 1110 573 1110 573 1217 569 c 1,11,12
 1239 641 1239 641 1323 678 c 0,13,14
 1391 709 1391 709 1477 709 c 0,15,16
 1593 709 1593 709 1666 645.5 c 128,-1,17
 1739 582 1739 582 1739 467 c 0,0,1
1450 1028 m 1,18,-1
 1346 1061 l 1,19,20
 1286 952 1286 952 1136.5 751.5 c 128,-1,21
 987 551 987 551 926 440 c 0,22,23
 870 340 870 340 696 16 c 1,24,-1
 788 53 l 1,25,-1
 723 68 l 1,26,27
 684 -12 684 -12 670 -12 c 0,28,29
 637 -12 637 -12 598 0 c 0,30,31
 549 16 549 16 549 41 c 0,32,33
 549 104 549 104 961 745 c 0,34,35
 1223 1153 1223 1153 1274 1153 c 0,36,37
 1292 1153 1292 1153 1328 1123.5 c 128,-1,38
 1364 1094 1364 1094 1364 1077 c 0,39,40
 1364 1061 1364 1061 1282 997 c 1,41,-1
 1450 1028 l 1,18,-1
872 926 m 0,42,43
 872 737 872 737 756 596 c 1,44,45
 633 449 633 449 446 449 c 0,46,47
 326 449 326 449 236.5 530.5 c 128,-1,48
 147 612 147 612 147 731 c 0,49,50
 147 846 147 846 193 928 c 1,51,52
 248 1030 248 1030 354 1030 c 1,53,54
 385 1098 385 1098 471 1135 c 0,55,56
 545 1167 545 1167 629 1167 c 0,57,58
 741 1167 741 1167 806.5 1102.5 c 128,-1,59
 872 1038 872 1038 872 926 c 0,42,43
1585 467 m 0,60,61
 1585 588 1585 588 1444 588 c 0,62,63
 1413 588 1413 588 1364 551 c 128,-1,64
 1315 514 1315 514 1303 514 c 0,65,66
 1288 514 1288 514 1255 526 c 1,67,68
 1163 418 1163 418 1163 291 c 0,69,70
 1163 215 1163 215 1205 168 c 128,-1,71
 1247 121 1247 121 1323 121 c 0,72,73
 1432 121 1432 121 1511 244 c 1,74,75
 1585 352 1585 352 1585 467 c 0,60,61
723 932 m 0,76,77
 723 1042 723 1042 586 1042 c 0,78,79
 543 1042 543 1042 465 971 c 1,80,-1
 451 967 l 1,81,-1
 393 983 l 1,82,83
 301 866 301 866 301 758 c 0,84,85
 301 678 301 678 344 624.5 c 128,-1,86
 387 571 387 571 465 571 c 0,87,88
 575 571 575 571 653 700 c 1,89,90
 723 813 723 813 723 932 c 0,76,77
EndSplineSet
EndChar

StartChar: ampersand
Encoding: 6 38 9
Width: 973
Flags: W
LayerCount: 2
Fore
SplineSet
971 1083 m 0,0,1
 971 1010 971 1010 915.5 967 c 128,-1,2
 860 924 860 924 784 924 c 0,3,4
 758 924 758 924 756 938 c 1,5,6
 770 958 770 958 809 1006 c 1,7,8
 760 1044 760 1044 709 1044 c 0,9,10
 637 1044 637 1044 568.5 988 c 128,-1,11
 500 932 500 932 500 862 c 0,12,13
 500 776 500 776 571 739 c 0,14,15
 608 719 608 719 705 702 c 0,16,17
 776 690 776 690 776 664 c 0,18,19
 776 614 776 614 702 588 c 0,20,21
 696 586 696 586 584 559 c 1,22,23
 393 516 393 516 291 397 c 1,24,25
 221 317 221 317 221 248 c 0,26,27
 221 199 221 199 258 164 c 128,-1,28
 295 129 295 129 344 129 c 0,29,30
 418 129 418 129 506 193 c 0,31,32
 528 209 528 209 643 307 c 1,33,34
 442 279 442 279 414 279 c 0,35,36
 383 279 383 279 371 293 c 1,37,38
 412 395 412 395 567 432 c 0,39,40
 653 453 653 453 821 453 c 0,41,42
 877 453 877 453 877 434 c 0,43,44
 877 367 877 367 786 338 c 0,45,46
 754 328 754 328 641 315 c 1,47,48
 688 293 688 293 743 248 c 1,49,50
 688 145 688 145 562 68.5 c 128,-1,51
 436 -8 436 -8 319 -8 c 0,52,53
 207 -8 207 -8 138.5 66.5 c 128,-1,54
 70 141 70 141 70 254 c 0,55,56
 70 465 70 465 463 649 c 1,57,58
 399 711 399 711 381 737 c 0,59,60
 346 788 346 788 346 850 c 0,61,62
 346 989 346 989 494 1081 c 1,63,64
 623 1163 623 1163 770 1163 c 0,65,66
 971 1163 971 1163 971 1083 c 0,0,1
EndSplineSet
EndChar

StartChar: quotesingle
Encoding: 7 39 10
Width: 512
Flags: W
LayerCount: 2
Fore
SplineSet
551 1200 m 0,0,1
 551 1135 551 1135 469 967 c 0,2,3
 381 786 381 786 330 786 c 1,4,5
 332 795 332 795 332 825 c 0,6,7
 332 903 332 903 361 1016 c 0,8,9
 399 1165 399 1165 404 1204 c 1,10,-1
 424 1235 l 1,11,12
 438 1241 438 1241 453 1241 c 0,13,14
 551 1241 551 1241 551 1200 c 0,0,1
EndSplineSet
EndChar

StartChar: parenleft
Encoding: 8 40 11
Width: 1044
Flags: W
LayerCount: 2
Fore
SplineSet
1223 1255 m 0,0,1
 1223 1198 1223 1198 1149 1171 c 1,2,3
 1108 1161 1108 1161 1028 1137 c 1,4,5
 854 1079 854 1079 725 809 c 0,6,7
 612 571 612 571 612 362 c 0,8,9
 612 33 612 33 813 -186 c 1,10,11
 784 -223 784 -223 688 -223 c 0,12,13
 668 -223 668 -223 639 -207 c 0,14,15
 537 -150 537 -150 483 45 c 0,16,17
 442 193 442 193 442 354 c 0,18,19
 442 623 442 623 516 807 c 1,20,21
 600 1022 600 1022 797 1163 c 0,22,23
 973 1290 973 1290 1171 1290 c 0,24,25
 1223 1290 1223 1290 1223 1255 c 0,0,1
EndSplineSet
EndChar

StartChar: parenright
Encoding: 9 41 12
Width: 993
Flags: W
LayerCount: 2
Fore
SplineSet
686 797 m 0,0,1
 686 580 686 580 618 389 c 1,2,3
 545 178 545 178 401 41 c 0,4,5
 168 -182 168 -182 -43 -182 c 0,6,7
 -98 -182 -98 -182 -98 -147 c 0,8,9
 -98 -90 -98 -90 -23 -53 c 1,10,11
 20 -39 20 -39 104 -8 c 0,12,13
 131 2 131 2 233 96 c 1,14,15
 373 223 373 223 444 418 c 1,16,17
 512 596 512 596 512 799 c 0,18,19
 512 1102 512 1102 326 1278 c 0,20,21
 317 1286 317 1286 313 1294 c 1,22,23
 313 1331 313 1331 414 1331 c 2,24,-1
 438 1331 l 2,25,26
 555 1331 555 1331 629 1114 c 0,27,28
 686 946 686 946 686 797 c 0,0,1
EndSplineSet
EndChar

StartChar: asterisk
Encoding: 10 42 13
Width: 918
Flags: W
LayerCount: 2
Fore
SplineSet
1061 1042 m 0,0,1
 1061 1010 1061 1010 766 950 c 1,2,3
 801 864 801 864 854 690 c 1,4,-1
 854 688 l 1,5,6
 776 709 776 709 600 899 c 1,7,8
 375 766 375 766 254 760 c 1,9,10
 260 809 260 809 348 897 c 0,11,12
 424 973 424 973 479 1008 c 1,13,14
 395 1073 395 1073 242 1219 c 1,15,16
 252 1221 252 1221 266 1221 c 0,17,18
 393 1221 393 1221 567 1147 c 1,19,20
 756 1395 756 1395 791 1395 c 0,21,22
 819 1395 819 1395 819 1292 c 0,23,24
 819 1264 819 1264 797 1198 c 0,25,26
 766 1108 766 1108 764 1098 c 1,27,28
 819 1094 819 1094 930 1083 c 0,29,30
 1061 1069 1061 1069 1061 1042 c 0,0,1
EndSplineSet
EndChar

StartChar: plus
Encoding: 11 43 14
Width: 1167
Flags: W
LayerCount: 2
Fore
SplineSet
1098 590 m 1,0,-1
 1069 492 l 1,1,-1
 629 492 l 1,2,-1
 512 123 l 1,3,-1
 401 123 l 1,4,-1
 524 492 l 1,5,-1
 86 492 l 1,6,-1
 117 590 l 1,7,-1
 549 590 l 1,8,-1
 672 956 l 1,9,-1
 784 956 l 1,10,-1
 666 590 l 1,11,-1
 1098 590 l 1,0,-1
EndSplineSet
EndChar

StartChar: hyphen
Encoding: 13 45 16
Width: 922
Flags: W
LayerCount: 2
Fore
SplineSet
793 571 m 1,0,-1
 748 391 l 1,1,-1
 137 391 l 1,2,-1
 182 571 l 1,3,-1
 793 571 l 1,0,-1
EndSplineSet
EndChar

StartChar: slash
Encoding: 15 47 18
Width: 862
Flags: W
LayerCount: 2
Fore
SplineSet
1022 1214 m 0,0,1
 1022 1206 1022 1206 995 1167 c 0,2,3
 924 1067 924 1067 573 600 c 0,4,5
 295 229 295 229 164 23 c 1,6,7
 147 -10 147 -10 113 -74 c 1,8,9
 72 -147 72 -147 51 -147 c 0,10,11
 -45 -147 -45 -147 -80 -88 c 1,12,13
 -25 51 -25 51 158 276 c 2,14,-1
 442 627 l 1,15,16
 489 702 489 702 621 897 c 0,17,18
 711 1030 711 1030 860 1237 c 1,19,-1
 883 1192 l 1,20,21
 889 1303 889 1303 928 1303 c 0,22,23
 961 1303 961 1303 991.5 1275 c 128,-1,24
 1022 1247 1022 1247 1022 1214 c 0,0,1
EndSplineSet
EndChar

StartChar: zero
Encoding: 16 48 19
Width: 1102
Flags: W
LayerCount: 2
Fore
SplineSet
1044 797 m 0,0,1
 1044 528 1044 528 874 270 c 0,2,3
 684 -18 684 -18 432 -18 c 0,4,5
 274 -18 274 -18 193 100 c 1,6,7
 125 203 125 203 125 369 c 0,8,9
 125 643 125 643 274 887 c 0,10,11
 446 1167 446 1167 702 1167 c 0,12,13
 868 1167 868 1167 956 1066 c 128,-1,14
 1044 965 1044 965 1044 797 c 0,0,1
881 805 m 0,15,16
 881 1042 881 1042 707 1042 c 0,17,18
 571 1042 571 1042 444 862 c 0,19,20
 276 625 276 625 276 346 c 0,21,22
 276 109 276 109 436 109 c 0,23,24
 545 109 545 109 659 236 c 0,25,26
 881 483 881 483 881 805 c 0,15,16
EndSplineSet
EndChar

StartChar: one
Encoding: 17 49 20
Width: 827
Flags: W
LayerCount: 2
Fore
SplineSet
756 1081 m 0,0,1
 756 985 756 985 672 784 c 1,2,3
 633 700 633 700 547 473 c 1,4,5
 502 326 502 326 403 16 c 1,6,7
 385 -10 385 -10 338 -10 c 0,8,9
 250 -10 250 -10 250 43 c 0,10,11
 250 166 250 166 352 412 c 1,12,13
 352 412 352 412 512 780 c 1,14,15
 420 721 420 721 295 639 c 1,16,17
 242 641 242 641 217 694 c 1,18,19
 236 715 236 715 299 752 c 1,20,-1
 289 764 l 1,21,22
 399 850 399 850 465 920 c 1,23,24
 516 989 516 989 629 1124 c 1,25,26
 645 1141 645 1141 655 1141 c 0,27,28
 686 1141 686 1141 717 1126 c 0,29,30
 756 1108 756 1108 756 1081 c 0,0,1
EndSplineSet
EndChar

StartChar: two
Encoding: 18 50 21
Width: 967
Flags: W
LayerCount: 2
Fore
SplineSet
940 920 m 0,0,1
 940 688 940 688 532 354 c 1,2,3
 532 354 532 354 262 137 c 1,4,5
 336 117 336 117 373 117 c 0,6,7
 416 117 416 117 504 125 c 128,-1,8
 592 133 592 133 635 133 c 0,9,10
 705 133 705 133 705 94 c 0,11,12
 705 82 705 82 680 20 c 1,13,14
 651 -8 651 -8 477 -2 c 1,15,-1
 479 -23 l 1,16,17
 430 -6 430 -6 307 -6 c 0,18,19
 57 -6 57 -6 57 109 c 0,20,21
 57 150 57 150 92 174 c 0,22,23
 358 362 358 362 504 496 c 1,24,25
 776 743 776 743 776 895 c 0,26,27
 776 954 776 954 735 988 c 128,-1,28
 694 1022 694 1022 635 1022 c 0,29,30
 555 1022 555 1022 454.5 939 c 128,-1,31
 354 856 354 856 340 856 c 0,32,33
 305 856 305 856 266 885 c 1,34,-1
 258 901 l 1,35,36
 291 1018 291 1018 416 1083 c 0,37,38
 526 1141 526 1141 657 1141 c 0,39,40
 778 1141 778 1141 852 1092 c 0,41,42
 940 1034 940 1034 940 920 c 0,0,1
EndSplineSet
EndChar

StartChar: three
Encoding: 19 51 22
Width: 954
Flags: W
LayerCount: 2
Fore
SplineSet
930 918 m 0,0,1
 930 807 930 807 817 723 c 0,2,3
 815 721 815 721 612 602 c 1,4,5
 698 586 698 586 751.5 511 c 128,-1,6
 805 436 805 436 805 346 c 0,7,8
 805 195 805 195 679 91.5 c 128,-1,9
 553 -12 553 -12 397 -12 c 0,10,11
 276 -12 276 -12 184 41 c 1,12,13
 72 104 72 104 72 215 c 0,14,15
 72 270 72 270 162 270 c 0,16,17
 203 270 203 270 223 229 c 0,18,19
 250 172 250 172 270 156 c 0,20,21
 319 115 319 115 430 115 c 0,22,23
 522 115 522 115 584.5 181.5 c 128,-1,24
 647 248 647 248 647 340 c 0,25,26
 647 426 647 426 586.5 487.5 c 128,-1,27
 526 549 526 549 438 563 c 1,28,29
 420 567 420 567 389 573 c 1,30,31
 371 582 371 582 371 606 c 0,32,33
 371 647 371 647 393 678 c 0,34,35
 403 692 403 692 508 715 c 0,36,37
 627 741 627 741 684 774 c 0,38,39
 776 827 776 827 776 920 c 0,40,41
 776 1036 776 1036 633 1036 c 0,42,43
 567 1036 567 1036 487.5 968.5 c 128,-1,44
 408 901 408 901 360 901 c 0,45,46
 303 901 303 901 287 930 c 1,47,48
 322 1030 322 1030 417 1092.5 c 128,-1,49
 512 1155 512 1155 621 1155 c 0,50,51
 750 1155 750 1155 831 1102 c 0,52,53
 930 1038 930 1038 930 918 c 0,0,1
EndSplineSet
EndChar

StartChar: four
Encoding: 20 52 23
Width: 1102
Flags: W
LayerCount: 2
Fore
SplineSet
1034 453 m 0,0,1
 1034 403 1034 403 1008 379 c 1,2,3
 924 381 924 381 758 360 c 1,4,5
 725 295 725 295 688 180 c 0,6,7
 643 43 643 43 627 -2 c 1,8,9
 610 -4 610 -4 586 -4 c 0,10,11
 485 -4 485 -4 485 35 c 0,12,13
 485 102 485 102 532 205 c 0,14,15
 590 332 590 332 598 373 c 1,16,-1
 346 373 l 2,17,18
 117 373 117 373 78 498 c 1,19,20
 104 565 104 565 215 657 c 0,21,22
 340 762 340 762 600 999 c 0,23,24
 766 1151 766 1151 795 1151 c 0,25,26
 823 1151 823 1151 856 1128.5 c 128,-1,27
 889 1106 889 1106 893 1079 c 1,28,29
 850 1034 850 1034 571 799 c 1,30,31
 352 612 352 612 299 504 c 1,32,33
 373 492 373 492 467 492 c 0,34,35
 545 492 545 492 596 496 c 1,36,-1
 631 455 l 1,37,-1
 709 690 l 1,38,39
 770 856 770 856 813 897 c 0,40,41
 840 922 840 922 889 922 c 0,42,43
 969 922 969 922 969 889 c 0,44,45
 969 825 969 825 905 696 c 0,46,47
 836 555 836 555 825 492 c 1,48,49
 897 498 897 498 979 498 c 0,50,51
 1034 498 1034 498 1034 453 c 0,0,1
EndSplineSet
EndChar

StartChar: five
Encoding: 21 53 24
Width: 1057
Flags: W
LayerCount: 2
Fore
SplineSet
1042 1096 m 0,0,1
 1042 1036 1042 1036 1006 1018 c 0,2,3
 981 1006 981 1006 913 1006 c 2,4,-1
 528 1006 l 1,5,6
 463 838 463 838 428 725 c 1,7,8
 561 768 561 768 627 768 c 0,9,10
 770 768 770 768 852 668 c 0,11,12
 928 575 928 575 928 428 c 0,13,14
 928 236 928 236 784.5 109 c 128,-1,15
 641 -18 641 -18 446 -18 c 0,16,17
 326 -18 326 -18 236 31 c 1,18,19
 123 90 123 90 123 201 c 0,20,21
 123 254 123 254 221 254 c 0,22,23
 256 254 256 254 274 217 c 1,24,25
 305 158 305 158 319 145 c 0,26,27
 362 109 362 109 446 109 c 0,28,29
 588 109 588 109 682 223 c 1,30,31
 770 332 770 332 770 477 c 0,32,33
 770 557 770 557 718 607 c 128,-1,34
 666 657 666 657 586 657 c 0,35,36
 539 657 539 657 453 621.5 c 128,-1,37
 367 586 367 586 367 586 c 1,38,39
 334 586 334 586 240 653 c 1,40,-1
 229 676 l 1,41,-1
 319 924 l 2,42,43
 346 997 346 997 373 1073 c 1,44,45
 408 1141 408 1141 487 1141 c 0,46,47
 565 1141 565 1141 722 1137 c 128,-1,48
 879 1133 879 1133 956 1133 c 0,49,50
 1042 1133 1042 1133 1042 1096 c 0,0,1
EndSplineSet
EndChar

StartChar: six
Encoding: 22 54 25
Width: 1001
Flags: W
LayerCount: 2
Fore
SplineSet
926 1098 m 0,0,1
 926 1059 926 1059 852 1010 c 0,2,3
 553 811 553 811 412 662 c 1,4,5
 610 707 610 707 670 707 c 0,6,7
 772 707 772 707 840.5 643.5 c 128,-1,8
 909 580 909 580 909 477 c 0,9,10
 909 287 909 287 767 134.5 c 128,-1,11
 625 -18 625 -18 434 -18 c 0,12,13
 299 -18 299 -18 216 72 c 128,-1,14
 133 162 133 162 133 299 c 0,15,16
 133 584 133 584 362 834 c 0,17,18
 571 1061 571 1061 858 1157 c 0,19,20
 870 1161 870 1161 885 1161 c 0,21,22
 926 1161 926 1161 926 1098 c 0,0,1
745 481 m 0,23,24
 745 594 745 594 639 594 c 0,25,26
 608 594 608 594 567 584 c 1,27,28
 510 492 510 492 469 492 c 0,29,30
 430 492 430 492 371 629 c 1,31,32
 283 381 283 381 283 297 c 0,33,34
 283 117 283 117 444 117 c 0,35,36
 565 117 565 117 657 242 c 1,37,38
 745 356 745 356 745 481 c 0,23,24
EndSplineSet
EndChar

StartChar: seven
Encoding: 23 55 26
Width: 977
Flags: W
LayerCount: 2
Fore
SplineSet
1065 1063 m 0,0,1
 1065 1042 1065 1042 717 588 c 0,2,3
 510 317 510 317 395 127 c 1,4,5
 381 100 381 100 348 48 c 128,-1,6
 315 -4 315 -4 285 -4 c 0,7,8
 195 -4 195 -4 178 39 c 1,9,10
 186 63 186 63 256 180 c 2,11,-1
 393 412 l 1,12,13
 467 532 467 532 547 633 c 0,14,15
 559 647 559 647 702 819 c 0,16,17
 797 932 797 932 846 1014 c 1,18,19
 776 1026 776 1026 735 1026 c 0,20,21
 719 1026 719 1026 680 1026 c 1,22,23
 629 1024 629 1024 600 1024 c 2,24,25
 600 1024 600 1024 465 1024 c 0,26,27
 422 1024 422 1024 406 954 c 1,28,29
 385 877 385 877 377 872 c 1,30,31
 342 879 342 879 317 879 c 0,32,33
 299 879 299 879 285 874 c 1,34,-1
 260 883 l 1,35,-1
 246 903 l 1,36,37
 256 928 256 928 272 977 c 1,38,39
 287 1038 287 1038 301 1102 c 1,40,41
 328 1153 328 1153 412 1151 c 1,42,43
 408 1171 408 1171 393 1171 c 1,44,-1
 385 1161 l 1,45,46
 424 1143 424 1143 541 1143 c 2,47,-1
 946 1143 l 2,48,49
 985 1143 985 1143 1025 1120.5 c 128,-1,50
 1065 1098 1065 1098 1065 1063 c 0,0,1
EndSplineSet
EndChar

StartChar: eight
Encoding: 24 56 27
Width: 1016
Flags: W
LayerCount: 2
Fore
SplineSet
1012 1044 m 1,0,1
 995 1040 995 1040 969 1018 c 1,2,3
 936 997 936 997 895 989 c 1,4,5
 754 1047 754 1047 672 1047 c 0,6,7
 578 1047 578 1047 506 1010 c 0,8,9
 414 963 414 963 414 879 c 0,10,11
 414 817 414 817 457 765 c 128,-1,12
 500 713 500 713 561 694 c 1,13,-1
 590 713 l 1,14,-1
 600 711 l 1,15,16
 631 752 631 752 733 803 c 0,17,18
 848 860 848 860 881 891 c 1,19,20
 889 895 889 895 899 899 c 1,21,22
 954 899 954 899 954 805 c 0,23,24
 954 784 954 784 831 717 c 1,25,26
 698 643 698 643 674 594 c 1,27,28
 834 449 834 449 834 311 c 0,29,30
 834 166 834 166 690 72 c 1,31,32
 563 -14 563 -14 412 -14 c 0,33,34
 309 -14 309 -14 205 49 c 0,35,36
 86 121 86 121 86 217 c 0,37,38
 86 309 86 309 154 379 c 0,39,40
 176 401 176 401 297 489 c 0,41,42
 389 557 389 557 424 621 c 1,43,44
 276 717 276 717 276 879 c 0,45,46
 276 1014 276 1014 424 1098 c 0,47,48
 549 1169 549 1169 692 1169 c 0,49,50
 760 1169 760 1169 874 1137 c 0,51,52
 1012 1098 1012 1098 1012 1047 c 2,53,-1
 1012 1044 l 1,0,1
694 307 m 0,54,55
 694 406 694 406 588 500 c 1,56,-1
 539 520 l 1,57,58
 465 481 465 481 358 393 c 1,59,60
 229 285 229 285 229 233 c 0,61,62
 229 168 229 168 297 129 c 1,63,64
 354 94 354 94 424 94 c 0,65,66
 528 94 528 94 606 147 c 0,67,68
 694 207 694 207 694 307 c 0,54,55
EndSplineSet
EndChar

StartChar: nine
Encoding: 25 57 28
Width: 1008
Flags: W
LayerCount: 2
Fore
SplineSet
969 856 m 0,0,1
 969 571 969 571 733 330 c 0,2,3
 600 195 600 195 256 -27 c 0,4,5
 209 -57 209 -57 195 -57 c 0,6,7
 182 -57 182 -57 160.5 -21.5 c 128,-1,8
 139 14 139 14 139 29 c 0,9,10
 139 55 139 55 287 152 c 1,11,12
 348 190 348 190 471 270 c 1,13,14
 610 367 610 367 686 485 c 1,15,16
 664 494 664 494 653 494 c 0,17,18
 645 494 645 494 628.5 483.5 c 128,-1,19
 612 473 612 473 610 473 c 0,20,21
 584 473 584 473 530.5 457.5 c 128,-1,22
 477 442 477 442 451 442 c 0,23,24
 350 442 350 442 270 513 c 128,-1,25
 190 584 190 584 190 684 c 0,26,27
 190 709 190 709 223 819 c 0,28,29
 266 967 266 967 390 1065 c 128,-1,30
 514 1163 514 1163 664 1163 c 0,31,32
 801 1163 801 1163 885 1078 c 128,-1,33
 969 993 969 993 969 856 c 0,0,1
817 862 m 0,34,35
 817 1036 817 1036 651 1036 c 0,36,37
 532 1036 532 1036 442 913 c 1,38,39
 356 801 356 801 356 678 c 0,40,41
 356 571 356 571 457 571 c 0,42,43
 483 571 483 571 520 578 c 1,44,45
 610 672 610 672 637 672 c 0,46,47
 674 672 674 672 725 520 c 1,48,49
 817 784 817 784 817 862 c 0,34,35
EndSplineSet
EndChar

StartChar: less
Encoding: 28 60 31
Width: 1143
Flags: W
LayerCount: 2
Fore
SplineSet
1151 850 m 0,0,1
 1151 819 1151 819 1106 795 c 1,2,3
 1040 756 1040 756 668 686 c 1,4,5
 311 616 311 616 205 614 c 1,6,7
 322 518 322 518 481 434 c 1,8,9
 627 362 627 362 773.5 289.5 c 128,-1,10
 920 217 920 217 920 188 c 0,11,12
 920 133 920 133 817 96 c 1,13,14
 702 131 702 131 444 281 c 1,15,16
 168 438 168 438 121 512 c 0,17,18
 90 559 90 559 90 588 c 0,19,20
 90 625 90 625 111 657 c 1,21,22
 170 686 170 686 256 709 c 1,23,24
 424 743 424 743 758 821 c 1,25,26
 846 848 846 848 934 874 c 0,27,28
 1053 909 1053 909 1108 909 c 0,29,30
 1151 909 1151 909 1151 850 c 0,0,1
EndSplineSet
EndChar

StartChar: greater
Encoding: 30 62 33
Width: 1212
Flags: W
LayerCount: 2
Fore
SplineSet
1104 412 m 0,0,1
 1104 383 1104 383 1085.5 364.5 c 128,-1,2
 1067 346 1067 346 989 329.5 c 128,-1,3
 911 313 911 313 754 279 c 0,4,5
 715 270 715 270 412 178 c 0,6,7
 178 106 178 106 84 106 c 0,8,9
 66 106 66 106 52.5 122.5 c 128,-1,10
 39 139 39 139 39 158 c 0,11,12
 39 190 39 190 90 223 c 0,13,14
 117 240 117 240 471 324 c 128,-1,15
 825 408 825 408 866 408 c 0,16,17
 915 408 915 408 1016 356 c 1,18,19
 940 422 940 422 862 487 c 0,20,21
 797 541 797 541 692 596 c 1,22,23
 559 659 559 659 301 799 c 1,24,25
 270 817 270 817 270 823 c 0,26,27
 270 860 270 860 305 889 c 128,-1,28
 340 918 340 918 377 918 c 0,29,30
 420 918 420 918 707 760 c 0,31,32
 987 606 987 606 1032 561 c 0,33,34
 1104 489 1104 489 1104 412 c 0,0,1
EndSplineSet
EndChar

StartChar: question
Encoding: 31 63 34
Width: 1020
Flags: W
LayerCount: 2
Fore
SplineSet
971 1020 m 0,0,1
 971 852 971 852 827 745 c 0,2,3
 662 623 662 623 502 389 c 0,4,5
 467 338 467 338 434 338 c 0,6,7
 373 338 373 338 373 381 c 0,8,9
 373 475 373 475 487 596 c 1,10,11
 559 668 559 668 700 811 c 1,12,13
 815 932 815 932 815 1022 c 0,14,15
 815 1077 815 1077 750 1122 c 0,16,17
 692 1163 692 1163 633 1163 c 0,18,19
 555 1163 555 1163 496 1102 c 0,20,21
 469 1073 469 1073 418 989 c 0,22,23
 381 928 381 928 352 928 c 0,24,25
 258 928 258 928 258 1014 c 0,26,27
 258 1053 258 1053 307 1118 c 0,28,29
 428 1282 428 1282 653 1282 c 0,30,31
 778 1282 778 1282 868 1214 c 1,32,33
 971 1141 971 1141 971 1020 c 0,0,1
438 123 m 0,34,35
 438 70 438 70 406.5 31 c 128,-1,36
 375 -8 375 -8 322 -8 c 0,37,38
 287 -8 287 -8 256 15.5 c 128,-1,39
 225 39 225 39 225 74 c 0,40,41
 225 121 225 121 268 160 c 128,-1,42
 311 199 311 199 358 199 c 0,43,44
 438 199 438 199 438 123 c 0,34,35
EndSplineSet
EndChar

StartChar: at
Encoding: 32 64 35
Width: 1642
Flags: W
LayerCount: 2
Fore
SplineSet
1569 791 m 0,0,1
 1569 582 1569 582 1370 388.5 c 128,-1,2
 1171 195 1171 195 963 195 c 0,3,4
 868 195 868 195 825 276 c 1,5,6
 694 201 694 201 588 201 c 0,7,8
 510 201 510 201 451 236 c 1,9,10
 381 276 381 276 381 350 c 0,11,12
 381 545 381 545 596 735 c 1,13,14
 807 920 807 920 1004 920 c 0,15,16
 1116 920 1116 920 1192 817 c 1,17,-1
 1237 883 l 1,18,-1
 1364 883 l 1,19,20
 971 358 971 358 971 317 c 0,21,22
 971 274 971 274 1012 274 c 0,23,24
 1118 274 1118 274 1255 397 c 1,25,26
 1454 573 1454 573 1454 768 c 0,27,28
 1454 930 1454 930 1313 1014 c 0,29,30
 1196 1083 1196 1083 1024 1083 c 0,31,32
 745 1083 745 1083 508 889 c 0,33,34
 258 684 258 684 258 412 c 0,35,36
 258 236 258 236 391 131 c 0,37,38
 512 35 512 35 692 35 c 0,39,40
 1018 35 1018 35 1268 252 c 1,41,-1
 1374 252 l 1,42,43
 1065 -39 1065 -39 668 -39 c 0,44,45
 453 -39 453 -39 303 74 c 1,46,47
 141 199 141 199 141 408 c 0,48,49
 141 713 141 713 449 946 c 0,50,51
 733 1161 733 1161 1051 1161 c 0,52,53
 1253 1161 1253 1161 1397 1079 c 1,54,55
 1569 979 1569 979 1569 791 c 0,0,1
1085 737 m 0,56,57
 1085 831 1085 831 965 831 c 0,58,59
 838 831 838 831 683 677.5 c 128,-1,60
 528 524 528 524 528 397 c 0,61,62
 528 354 528 354 565 324.5 c 128,-1,63
 602 295 602 295 647 295 c 0,64,65
 766 295 766 295 925.5 456.5 c 128,-1,66
 1085 618 1085 618 1085 737 c 0,56,57
EndSplineSet
EndChar

StartChar: A
Encoding: 33 65 36
Width: 823
Flags: W
LayerCount: 2
Fore
SplineSet
711 860 m 0,0,1
 711 758 711 758 704.5 554 c 128,-1,2
 698 350 698 350 698 248 c 0,3,4
 698 203 698 203 684 184.5 c 128,-1,5
 670 166 670 166 623 166 c 0,6,7
 569 166 569 166 569 250 c 0,8,9
 569 373 569 373 600 434 c 1,10,11
 569 428 569 428 502.5 403.5 c 128,-1,12
 436 379 436 379 397 377 c 1,13,14
 401 377 401 377 305 377 c 1,15,16
 236 190 236 190 209 176 c 0,17,18
 190 166 190 166 176 166 c 0,19,20
 127 166 127 166 127 205 c 0,21,22
 127 264 127 264 201 387 c 1,23,24
 164 399 164 399 164 412 c 0,25,26
 164 444 164 444 193.5 472 c 128,-1,27
 223 500 223 500 258 498 c 1,28,29
 313 590 313 590 430 772 c 1,30,31
 571 985 571 985 623 985 c 0,32,33
 711 985 711 985 711 860 c 0,0,1
633 811 m 0,34,35
 633 831 633 831 623 883 c 1,36,37
 449 674 449 674 350 471 c 1,38,39
 383 469 383 469 397 469 c 0,40,41
 432 469 432 469 492 481 c 1,42,43
 563 498 563 498 588 500 c 1,44,45
 633 641 633 641 633 811 c 0,34,35
EndSplineSet
EndChar

StartChar: B
Encoding: 34 66 37
Width: 870
Flags: W
LayerCount: 2
Fore
SplineSet
866 797 m 0,0,1
 866 672 866 672 674 588 c 1,2,-1
 655 553 l 1,3,4
 741 504 741 504 741 403 c 0,5,6
 741 295 741 295 618 221 c 0,7,8
 510 156 510 156 393 156 c 0,9,10
 248 156 248 156 248 238 c 0,11,12
 248 252 248 252 254 281 c 0,13,14
 274 383 274 383 349 575.5 c 128,-1,15
 424 768 424 768 444 864 c 1,16,-1
 330 821 l 1,17,18
 317 819 317 819 317 834 c 0,19,20
 317 913 317 913 430 948 c 1,21,22
 504 973 504 973 606 973 c 0,23,24
 696 973 696 973 774 930 c 0,25,26
 866 879 866 879 866 797 c 0,0,1
750 784 m 0,27,28
 750 836 750 836 694 864 c 1,29,30
 649 891 649 891 594 891 c 0,31,32
 571 891 571 891 479 868 c 1,33,34
 555 834 555 834 555 829 c 0,35,36
 555 823 555 823 541 795 c 0,37,38
 479 680 479 680 434 532 c 1,39,40
 408 440 408 440 356 260 c 1,41,42
 383 231 383 231 414 231 c 0,43,44
 494 231 494 231 562.5 287.5 c 128,-1,45
 631 344 631 344 631 424 c 0,46,47
 631 467 631 467 573.5 511 c 128,-1,48
 516 555 516 555 516 567 c 0,49,50
 516 608 516 608 584 645 c 1,51,52
 637 668 637 668 688 690 c 1,53,54
 750 727 750 727 750 784 c 0,27,28
EndSplineSet
EndChar

StartChar: C
Encoding: 35 67 38
Width: 856
Flags: W
LayerCount: 2
Fore
SplineSet
840 842 m 0,0,1
 840 801 840 801 825 764 c 1,2,3
 807 715 807 715 772 715 c 0,4,5
 721 715 721 715 711 745 c 1,6,7
 741 807 741 807 741 842 c 0,8,9
 741 899 741 899 678 899 c 0,10,11
 539 899 539 899 420 694 c 0,12,13
 315 514 315 514 315 362 c 0,14,15
 315 236 315 236 453 236 c 0,16,17
 520 236 520 236 563 287 c 1,18,19
 575 299 575 299 621 383 c 0,20,21
 649 434 649 434 682 434 c 0,22,23
 735 434 735 434 735 395 c 0,24,25
 735 346 735 346 674.5 274.5 c 128,-1,26
 614 203 614 203 566 179.5 c 128,-1,27
 518 156 518 156 473 156 c 0,28,29
 387 156 387 156 352 164 c 0,30,31
 289 178 289 178 254 229 c 1,32,33
 215 289 215 289 215 385 c 0,34,35
 215 596 215 596 348 782 c 1,36,37
 496 987 496 987 698 987 c 0,38,39
 840 987 840 987 840 842 c 0,0,1
EndSplineSet
EndChar

StartChar: D
Encoding: 36 68 39
Width: 948
Flags: W
LayerCount: 2
Fore
SplineSet
905 727 m 0,0,1
 905 633 905 633 852 461 c 0,2,3
 842 430 842 430 813 356 c 1,4,5
 758 238 758 238 602 190 c 0,6,7
 500 158 500 158 324 158 c 0,8,9
 279 158 279 158 265.5 173 c 128,-1,10
 252 188 252 188 250 233 c 1,11,12
 250 281 250 281 250 322 c 0,13,14
 250 406 250 406 352.5 584 c 128,-1,15
 455 762 455 762 455 825 c 0,16,17
 455 850 455 850 418 862 c 1,18,19
 371 821 371 821 342 821 c 0,20,21
 330 821 330 821 314.5 830.5 c 128,-1,22
 299 840 299 840 299 850 c 0,23,24
 299 913 299 913 418 952 c 1,25,26
 508 983 508 983 588 983 c 0,27,28
 721 983 721 983 807 924 c 1,29,30
 905 854 905 854 905 727 c 0,0,1
797 727 m 0,31,32
 797 893 797 893 594 893 c 0,33,34
 561 893 561 893 494 872 c 1,35,36
 547 846 547 846 547 829 c 0,37,38
 547 745 547 745 453 578 c 0,39,40
 410 500 410 500 356 332 c 0,41,42
 346 299 346 299 346 285 c 0,43,44
 346 233 346 233 434 233 c 0,45,46
 471 233 471 233 551 266 c 0,47,48
 584 279 584 279 659 324 c 1,49,50
 721 377 721 377 762 512 c 0,51,52
 797 629 797 629 797 727 c 0,31,32
EndSplineSet
EndChar

StartChar: E
Encoding: 37 69 40
Width: 874
Flags: W
LayerCount: 2
Fore
SplineSet
881 920 m 0,0,1
 881 858 881 858 823 858 c 1,2,3
 831 858 831 858 532 879 c 1,4,5
 565 834 565 834 565 821 c 0,6,7
 565 780 565 780 528 717 c 0,8,9
 477 631 477 631 471 610 c 1,10,11
 504 610 504 610 573.5 613 c 128,-1,12
 643 616 643 616 676 616 c 0,13,14
 729 616 729 616 729 582 c 0,15,16
 729 530 729 530 666 520 c 1,17,18
 612 514 612 514 618 514 c 1,19,20
 594 514 594 514 436 520 c 1,21,-1
 375 285 l 1,22,23
 395 266 395 266 414 266 c 0,24,25
 453 266 453 266 527.5 269 c 128,-1,26
 602 272 602 272 639 272 c 0,27,28
 713 272 713 272 713 231 c 0,29,30
 713 182 713 182 657 172 c 1,31,32
 641 168 641 168 561 168 c 0,33,34
 342 168 342 168 307 186 c 0,35,36
 256 211 256 211 256 262 c 0,37,38
 256 283 256 283 285 381 c 1,39,-1
 326 510 l 1,40,41
 270 526 270 526 270 559 c 0,42,43
 270 616 270 616 350 616 c 1,44,45
 352 621 352 621 365 631 c 1,46,47
 391 647 391 647 469 870 c 1,48,49
 422 858 422 858 416 858 c 0,50,51
 389 858 389 858 389 879 c 0,52,53
 389 940 389 940 438 961 c 1,54,55
 469 973 469 973 537 973 c 2,56,-1
 604 973 l 2,57,58
 870 973 870 973 879 950 c 1,59,60
 881 940 881 940 881 920 c 0,0,1
EndSplineSet
EndChar

StartChar: F
Encoding: 38 70 41
Width: 848
Flags: W
LayerCount: 2
Fore
SplineSet
936 922 m 0,0,1
 936 881 936 881 883 870 c 0,2,3
 858 864 858 864 786 862 c 0,4,5
 733 860 733 860 653 862 c 2,6,-1
 545 864 l 1,7,8
 567 831 567 831 569 827 c 1,9,10
 569 821 569 821 530 709 c 0,11,12
 487 588 487 588 483 563 c 1,13,14
 516 563 516 563 583.5 566 c 128,-1,15
 651 569 651 569 684 569 c 0,16,17
 741 569 741 569 741 532 c 0,18,19
 741 465 741 465 680 465 c 0,20,21
 649 465 649 465 589.5 467 c 128,-1,22
 530 469 530 469 502 469 c 0,23,24
 494 469 494 469 444 467 c 1,25,26
 414 389 414 389 369 229 c 1,27,28
 354 162 354 162 307 162 c 0,29,30
 246 162 246 162 246 199 c 0,31,32
 246 258 246 258 332 457 c 1,33,34
 295 467 295 467 295 483 c 0,35,36
 295 557 295 557 371 565 c 1,37,38
 397 680 397 680 475 856 c 1,39,40
 383 862 383 862 383 893 c 0,41,42
 383 971 383 971 492 971 c 2,43,-1
 866 971 l 2,44,45
 936 971 936 971 936 922 c 0,0,1
EndSplineSet
EndChar

StartChar: G
Encoding: 39 71 42
Width: 963
Flags: W
LayerCount: 2
Fore
SplineSet
944 825 m 0,0,1
 944 791 944 791 919.5 753 c 128,-1,2
 895 715 895 715 862 715 c 0,3,4
 827 715 827 715 805 754 c 1,5,6
 842 815 842 815 842 825 c 0,7,8
 842 850 842 850 819.5 867.5 c 128,-1,9
 797 885 797 885 770 885 c 0,10,11
 664 885 664 885 621 872 c 0,12,13
 555 852 555 852 506 786 c 0,14,15
 424 674 424 674 389 600 c 1,16,17
 346 504 346 504 346 391 c 0,18,19
 346 332 346 332 384 292 c 128,-1,20
 422 252 422 252 483 252 c 2,21,-1
 532 252 l 2,22,23
 608 252 608 252 662 330 c 0,24,25
 709 399 709 399 709 481 c 1,26,27
 651 465 651 465 592 465 c 0,28,29
 559 465 559 465 559 487 c 0,30,31
 559 539 559 539 639 553 c 1,32,33
 672 557 672 557 760 557 c 0,34,35
 877 557 877 557 877 514 c 0,36,37
 877 477 877 477 776 481 c 1,38,39
 809 442 809 442 809 432 c 0,40,41
 809 338 809 338 708.5 249 c 128,-1,42
 608 160 608 160 512 160 c 0,43,44
 412 160 412 160 330 213 c 1,45,46
 240 274 240 274 240 371 c 0,47,48
 240 532 240 532 320.5 692 c 128,-1,49
 401 852 401 852 532 938 c 1,50,51
 598 979 598 979 784 979 c 0,52,53
 944 979 944 979 944 825 c 0,0,1
EndSplineSet
EndChar

StartChar: H
Encoding: 40 72 43
Width: 969
Flags: W
LayerCount: 2
Fore
SplineSet
975 944 m 0,0,1
 975 852 975 852 907 676 c 1,2,3
 907 676 907 676 797 410 c 1,4,5
 788 379 788 379 768 291 c 1,6,7
 752 229 752 229 739 209 c 1,8,9
 717 166 717 166 670 166 c 0,10,11
 627 166 627 166 627 190 c 0,12,13
 627 266 627 266 711 414 c 1,14,15
 715 449 715 449 739 512 c 1,16,-1
 690 532 l 1,17,18
 668 487 668 487 606 487 c 0,19,20
 598 487 598 487 581.5 489.5 c 128,-1,21
 565 492 565 492 559 492 c 0,22,23
 522 492 522 492 430 481 c 1,24,25
 391 338 391 338 334 174 c 1,26,27
 317 166 317 166 301 166 c 0,28,29
 242 166 242 166 242 190 c 0,30,31
 242 258 242 258 328 479 c 1,32,33
 262 485 262 485 262 504 c 0,34,35
 262 512 262 512 270 528 c 1,36,37
 283 559 283 559 305 563 c 1,38,39
 311 567 311 567 356 567 c 1,40,-1
 487 936 l 2,41,42
 500 971 500 971 532 971 c 0,43,44
 602 971 602 971 602 938 c 0,45,46
 602 897 602 897 465 569 c 1,47,-1
 750 569 l 1,48,-1
 856 918 l 2,49,50
 874 975 874 975 911 975 c 0,51,52
 930 975 930 975 952.5 966.5 c 128,-1,53
 975 958 975 958 975 944 c 0,0,1
EndSplineSet
EndChar

StartChar: I
Encoding: 41 73 44
Width: 535
Flags: W
LayerCount: 2
Fore
SplineSet
557 930 m 1,0,-1
 442 657 l 1,1,2
 379 504 379 504 350 379 c 1,3,4
 342 334 342 334 320.5 242 c 128,-1,5
 299 150 299 150 246 150 c 0,6,7
 197 150 197 150 197 184 c 0,8,9
 197 285 197 285 303 606 c 1,10,11
 418 944 418 944 481 971 c 1,12,13
 492 977 492 977 514 977 c 0,14,15
 561 977 561 977 557 930 c 1,0,-1
EndSplineSet
EndChar

StartChar: J
Encoding: 42 74 45
Width: 807
Flags: W
LayerCount: 2
Fore
SplineSet
799 936 m 0,0,1
 799 868 799 868 702 600 c 0,2,3
 612 354 612 354 563 262 c 1,4,5
 506 158 506 158 422 158 c 0,6,7
 193 158 193 158 193 297 c 0,8,9
 193 432 193 432 295 432 c 0,10,11
 311 432 311 432 319 428 c 1,12,13
 317 410 317 410 279 324 c 1,14,15
 293 238 293 238 397 238 c 0,16,17
 469 238 469 238 526 406 c 1,18,19
 541 442 541 442 616 733 c 1,20,21
 666 922 666 922 705 954 c 0,22,23
 729 973 729 973 754 973 c 0,24,25
 799 973 799 973 799 936 c 0,0,1
EndSplineSet
EndChar

StartChar: K
Encoding: 43 75 46
Width: 930
Flags: W
LayerCount: 2
Fore
SplineSet
952 918 m 0,0,1
 952 897 952 897 891 813 c 0,2,3
 705 553 705 553 528 500 c 1,4,5
 571 451 571 451 655 336 c 0,6,7
 756 199 756 199 756 174 c 0,8,9
 756 141 756 141 719 141 c 0,10,11
 668 141 668 141 578 272 c 0,12,13
 471 428 471 428 449 446 c 1,14,15
 426 418 426 418 382 295 c 128,-1,16
 338 172 338 172 332 166 c 0,17,18
 315 152 315 152 299 152 c 0,19,20
 244 152 244 152 244 180 c 0,21,22
 244 238 244 238 281 324 c 1,23,24
 299 371 299 371 340 463 c 1,25,26
 291 483 291 483 291 504 c 0,27,28
 291 565 291 565 367 557 c 1,29,30
 395 688 395 688 414 764 c 1,31,32
 440 862 440 862 451 885 c 1,33,34
 485 971 485 971 532 971 c 0,35,36
 575 971 575 971 575 934 c 0,37,38
 575 877 575 877 537 760 c 1,39,40
 485 610 485 610 477 580 c 1,41,42
 709 649 709 649 829 911 c 1,43,44
 840 932 840 932 856 956 c 1,45,46
 872 975 872 975 895 975 c 0,47,48
 952 975 952 975 952 918 c 0,0,1
EndSplineSet
EndChar

StartChar: L
Encoding: 44 76 47
Width: 801
Flags: W
LayerCount: 2
Fore
SplineSet
688 233 m 0,0,1
 688 213 688 213 654.5 192.5 c 128,-1,2
 621 172 621 172 598 172 c 2,3,-1
 291 172 l 2,4,5
 193 172 193 172 193 233 c 0,6,7
 193 244 193 244 236 352 c 1,8,9
 262 422 262 422 332 631 c 1,10,11
 389 809 389 809 434 907 c 0,12,13
 469 981 469 981 506 981 c 0,14,15
 565 981 565 981 565 952 c 0,16,17
 565 901 565 901 514 776 c 1,18,19
 475 688 475 688 399 512 c 1,20,21
 319 324 319 324 319 254 c 2,22,-1
 319 248 l 1,23,-1
 352 248 l 2,24,25
 403 248 403 248 503.5 265.5 c 128,-1,26
 604 283 604 283 653 283 c 0,27,28
 688 283 688 283 688 233 c 0,0,1
EndSplineSet
EndChar

StartChar: M
Encoding: 45 77 48
Width: 1217
Flags: W
LayerCount: 2
Fore
SplineSet
1171 897 m 0,0,1
 1171 739 1171 739 1122 569 c 0,2,3
 1022 219 1022 219 987 184 c 1,4,5
 963 158 963 158 944 158 c 0,6,7
 879 158 879 158 879 182 c 0,8,9
 879 225 879 225 944 358 c 1,10,11
 1063 664 1063 664 1063 852 c 1,12,13
 936 575 936 575 760 463 c 1,14,15
 725 438 725 438 711 438 c 0,16,17
 674 438 674 438 649 518 c 0,18,19
 633 569 633 569 592 698 c 0,20,21
 586 715 586 715 547 809 c 1,22,23
 528 745 528 745 440 471 c 0,24,25
 346 180 346 180 338 176 c 1,26,27
 326 166 326 166 295 166 c 0,28,29
 246 166 246 166 246 215 c 256,30,31
 246 264 246 264 272 328 c 1,32,33
 289 362 289 362 317 436 c 1,34,35
 348 537 348 537 416 735 c 1,36,37
 500 969 500 969 565 969 c 0,38,39
 647 969 647 969 647 922 c 0,40,41
 647 913 647 913 643 901 c 128,-1,42
 639 889 639 889 639 883 c 0,43,44
 639 868 639 868 650.5 848.5 c 128,-1,45
 662 829 662 829 664 821 c 0,46,47
 668 793 668 793 682 719 c 1,48,49
 682 711 682 711 737 553 c 1,50,51
 793 604 793 604 889 715 c 1,52,53
 920 758 920 758 963 834 c 2,54,-1
 1016 926 l 1,55,56
 1057 983 1057 983 1100 983 c 0,57,58
 1171 983 1171 983 1171 897 c 0,0,1
EndSplineSet
EndChar

StartChar: N
Encoding: 46 78 49
Width: 991
Flags: W
LayerCount: 2
Fore
SplineSet
987 944 m 0,0,1
 987 915 987 915 920 748 c 1,2,3
 903 692 903 692 858 549 c 1,4,5
 827 430 827 430 758 197 c 0,6,7
 748 166 748 166 735.5 156.5 c 128,-1,8
 723 147 723 147 688 147 c 0,9,10
 666 147 666 147 645 170 c 0,11,12
 635 180 635 180 584 485 c 0,13,14
 541 748 541 748 528 844 c 1,15,16
 442 621 442 621 375 416 c 1,17,18
 356 348 356 348 303 174 c 1,19,20
 289 162 289 162 270 162 c 0,21,22
 215 162 215 162 215 201 c 0,23,24
 215 293 215 293 268 432 c 1,25,26
 297 498 297 498 360 668 c 1,27,28
 373 715 373 715 399 807 c 1,29,30
 449 967 449 967 520 967 c 0,31,32
 569 967 569 967 594 950 c 0,33,34
 606 942 606 942 655 649 c 1,35,36
 692 418 692 418 709 301 c 1,37,38
 719 403 719 403 780 649 c 1,39,40
 852 932 852 932 891 961 c 0,41,42
 909 975 909 975 936 975 c 0,43,44
 987 975 987 975 987 944 c 0,0,1
EndSplineSet
EndChar

StartChar: O
Encoding: 47 79 50
Width: 885
Flags: W
LayerCount: 2
Fore
SplineSet
856 764 m 0,0,1
 856 545 856 545 756 369 c 1,2,3
 635 160 635 160 432 160 c 0,4,5
 342 160 342 160 285.5 218 c 128,-1,6
 229 276 229 276 229 369 c 0,7,8
 229 494 229 494 305 645 c 0,9,10
 375 786 375 786 471 879 c 0,11,12
 588 991 588 991 705 991 c 0,13,14
 758 991 758 991 758 942 c 0,15,16
 758 928 758 928 750 905 c 1,17,-1
 793 907 l 1,18,19
 856 907 856 907 856 764 c 0,0,1
764 752 m 0,20,21
 764 852 764 852 707 901 c 1,22,23
 547 883 547 883 438 700 c 0,24,25
 342 539 342 539 342 365 c 0,26,27
 342 244 342 244 453 244 c 0,28,29
 588 244 588 244 684 436 c 0,30,31
 764 598 764 598 764 752 c 0,20,21
EndSplineSet
EndChar

StartChar: P
Encoding: 48 80 51
Width: 897
Flags: W
LayerCount: 2
Fore
SplineSet
891 772 m 0,0,1
 891 463 891 463 406 408 c 1,2,3
 346 180 346 180 322.5 166 c 128,-1,4
 299 152 299 152 276 152 c 0,5,6
 262 152 262 152 245.5 163 c 128,-1,7
 229 174 229 174 229 188 c 0,8,9
 229 229 229 229 262 299 c 0,10,11
 299 377 299 377 307 410 c 1,12,13
 270 430 270 430 270 459 c 0,14,15
 270 518 270 518 338 526 c 1,16,-1
 406 690 l 1,17,18
 436 780 436 780 442 864 c 1,19,20
 403 848 403 848 346 825 c 1,21,22
 319 827 319 827 319 854 c 0,23,24
 319 918 319 918 436 952 c 1,25,26
 518 977 518 977 606 977 c 0,27,28
 723 977 723 977 797 934 c 1,29,30
 891 881 891 881 891 772 c 0,0,1
797 758 m 0,31,32
 797 817 797 817 737 854 c 1,33,34
 688 887 688 887 623 887 c 0,35,36
 592 887 592 887 506 874 c 1,37,38
 549 825 549 825 549 819 c 0,39,40
 549 774 549 774 502 686 c 128,-1,41
 455 598 455 598 455 553 c 0,42,43
 455 543 455 543 457 500 c 1,44,45
 578 510 578 510 678 573 c 0,46,47
 797 647 797 647 797 758 c 0,31,32
EndSplineSet
EndChar

StartChar: Q
Encoding: 49 81 52
Width: 975
Flags: W
LayerCount: 2
Fore
SplineSet
936 758 m 0,0,1
 936 434 936 434 668 199 c 1,2,3
 723 111 723 111 723 102 c 0,4,5
 723 55 723 55 645 55 c 0,6,7
 618 55 618 55 598 92 c 1,8,9
 582 119 582 119 565 150 c 1,10,11
 510 133 510 133 492 133 c 0,12,13
 393 133 393 133 327.5 198.5 c 128,-1,14
 262 264 262 264 262 365 c 0,15,16
 262 481 262 481 295 567 c 0,17,18
 324 643 324 643 401 743 c 1,19,20
 522 907 522 907 721 961 c 0,21,22
 752 969 752 969 768 969 c 0,23,24
 811 969 811 969 811 944 c 0,25,26
 811 932 811 932 793 897 c 1,27,28
 842 899 842 899 848 899 c 0,29,30
 907 899 907 899 926 854 c 0,31,32
 936 831 936 831 936 758 c 0,0,1
825 756 m 0,33,34
 825 846 825 846 772 887 c 1,35,36
 606 854 606 854 492 692 c 1,37,38
 381 539 381 539 381 367 c 0,39,40
 381 233 381 233 477 221 c 1,41,-1
 518 231 l 1,42,43
 487 270 487 270 479 299 c 1,44,45
 496 344 496 344 557 344 c 0,46,47
 590 344 590 344 606 266 c 1,48,49
 698 354 698 354 761.5 492.5 c 128,-1,50
 825 631 825 631 825 756 c 0,33,34
EndSplineSet
EndChar

StartChar: R
Encoding: 50 82 53
Width: 901
Flags: W
LayerCount: 2
Fore
SplineSet
877 772 m 0,0,1
 877 649 877 649 766 567 c 0,2,3
 674 500 674 500 541 473 c 1,4,5
 573 412 573 412 649 322 c 1,6,7
 741 215 741 215 766 176 c 1,8,9
 766 158 766 158 739.5 146.5 c 128,-1,10
 713 135 713 135 692 135 c 0,11,12
 668 135 668 135 614 215 c 1,13,14
 580 268 580 268 565 283 c 1,15,-1
 481 379 l 1,16,17
 436 432 436 432 408 483 c 1,18,19
 356 373 356 373 338 311 c 1,20,21
 330 258 330 258 315 195 c 0,22,23
 307 164 307 164 258 164 c 0,24,25
 199 164 199 164 199 188 c 0,26,27
 199 244 199 244 315 541 c 0,28,29
 395 745 395 745 469 913 c 1,30,31
 362 795 362 795 350 795 c 0,32,33
 311 795 311 795 311 846 c 0,34,35
 311 979 311 979 588 979 c 0,36,37
 877 979 877 979 877 772 c 0,0,1
774 764 m 0,38,39
 774 825 774 825 715 862 c 1,40,41
 662 893 662 893 596 893 c 0,42,43
 555 893 555 893 463 872 c 1,44,45
 539 842 539 842 539 827 c 0,46,47
 539 801 539 801 485 686 c 0,48,49
 442 594 442 594 422 467 c 1,50,51
 457 512 457 512 530 561 c 1,52,53
 623 567 623 567 692 618 c 1,54,55
 774 676 774 676 774 764 c 0,38,39
EndSplineSet
EndChar

StartChar: S
Encoding: 51 83 54
Width: 905
Flags: W
LayerCount: 2
Fore
SplineSet
901 930 m 0,0,1
 901 870 901 870 870 825 c 0,2,3
 836 774 836 774 778 774 c 0,4,5
 754 774 754 774 754 791 c 0,6,7
 754 811 754 811 772.5 854 c 128,-1,8
 791 897 791 897 793 913 c 1,9,-1
 737 877 l 1,10,11
 670 868 670 868 584 823 c 0,12,13
 479 768 479 768 479 713 c 0,14,15
 479 680 479 680 557 633 c 1,16,-1
 555 641 l 1,17,18
 653 586 653 586 686 561 c 0,19,20
 762 502 762 502 762 436 c 0,21,22
 762 307 762 307 629 227 c 1,23,24
 514 156 514 156 379 156 c 0,25,26
 307 156 307 156 260 190 c 0,27,28
 207 229 207 229 207 299 c 0,29,30
 207 328 207 328 228.5 349.5 c 128,-1,31
 250 371 250 371 279 371 c 0,32,33
 322 371 322 371 322 340 c 0,34,35
 322 330 322 330 317.5 312.5 c 128,-1,36
 313 295 313 295 313 285 c 0,37,38
 313 225 313 225 385 225 c 0,39,40
 461 225 461 225 552 283.5 c 128,-1,41
 643 342 643 342 643 414 c 0,42,43
 643 473 643 473 565 518 c 1,44,45
 518 543 518 543 424 594 c 1,46,47
 348 637 348 637 348 692 c 0,48,49
 348 711 348 711 367 756 c 0,50,51
 403 846 403 846 561 918 c 0,52,53
 700 981 700 981 813 981 c 0,54,55
 901 981 901 981 901 930 c 0,0,1
EndSplineSet
EndChar

StartChar: T
Encoding: 52 84 55
Width: 922
Flags: W
LayerCount: 2
Fore
SplineSet
991 918 m 0,0,1
 991 868 991 868 903 868 c 0,2,3
 799 868 799 868 645 883 c 1,4,5
 735 831 735 831 735 825 c 0,6,7
 735 807 735 807 651 582 c 1,8,9
 604 451 604 451 551 297 c 1,10,11
 545 276 545 276 535 211 c 1,12,13
 518 152 518 152 489 152 c 0,14,15
 408 152 408 152 408 180 c 0,16,17
 408 229 408 229 512 512 c 0,18,19
 535 573 535 573 633 874 c 1,20,21
 590 874 590 874 505 871 c 128,-1,22
 420 868 420 868 379 868 c 0,23,24
 344 868 344 868 344 903 c 0,25,26
 344 928 344 928 365 958 c 0,27,28
 373 969 373 969 502 969 c 1,29,30
 487 969 487 969 588 969 c 1,31,32
 707 967 707 967 860 967 c 0,33,34
 991 967 991 967 991 918 c 0,0,1
EndSplineSet
EndChar

StartChar: U
Encoding: 53 85 56
Width: 942
Flags: W
LayerCount: 2
Fore
SplineSet
965 936 m 0,0,1
 965 885 965 885 869.5 622.5 c 128,-1,2
 774 360 774 360 737 301 c 1,3,4
 649 156 649 156 475 156 c 0,5,6
 260 156 260 156 260 315 c 0,7,8
 260 424 260 424 322 625 c 1,9,10
 377 809 377 809 436 922 c 0,11,12
 465 977 465 977 504 977 c 0,13,14
 553 977 553 977 553 938 c 256,15,16
 553 899 553 899 514 813 c 1,17,18
 496 770 496 770 457 684 c 1,19,20
 365 455 365 455 365 313 c 0,21,22
 365 279 365 279 410 254 c 0,23,24
 449 233 449 233 485 233 c 0,25,26
 547 233 547 233 600 283 c 1,27,28
 633 309 633 309 715 541 c 0,29,30
 786 743 786 743 809 831 c 1,31,32
 819 883 819 883 850 956 c 1,33,34
 870 977 870 977 895 977 c 0,35,36
 915 977 915 977 940 965.5 c 128,-1,37
 965 954 965 954 965 936 c 0,0,1
EndSplineSet
EndChar

StartChar: V
Encoding: 54 86 57
Width: 952
Flags: W
LayerCount: 2
Fore
SplineSet
1004 938 m 0,0,1
 1004 909 1004 909 782.5 579.5 c 128,-1,2
 561 250 561 250 508 197 c 0,3,4
 473 162 473 162 440 162 c 0,5,6
 393 162 393 162 379 207 c 1,7,8
 369 231 369 231 369 291 c 0,9,10
 369 907 369 907 416 956 c 1,11,12
 430 973 430 973 444 973 c 0,13,14
 516 973 516 973 516 922 c 0,15,16
 516 905 516 905 489 723 c 0,17,18
 473 612 473 612 473 522 c 0,19,20
 473 483 473 483 476 404.5 c 128,-1,21
 479 326 479 326 479 287 c 1,22,23
 528 379 528 379 608 500 c 1,24,25
 694 633 694 633 741 707.5 c 128,-1,26
 788 782 788 782 907 983 c 1,27,28
 920 989 920 989 934 989 c 0,29,30
 1004 989 1004 989 1004 938 c 0,0,1
EndSplineSet
EndChar

StartChar: W
Encoding: 55 87 58
Width: 1194
Flags: W
LayerCount: 2
Fore
SplineSet
1231 952 m 0,0,1
 1231 926 1231 926 1061 572.5 c 128,-1,2
 891 219 891 219 864.5 194.5 c 128,-1,3
 838 170 838 170 815 170 c 0,4,5
 782 170 782 170 774 205 c 1,6,7
 772 219 772 219 772 266 c 1,8,-1
 758 266 l 1,9,-1
 768 262 l 1,10,-1
 772 264 l 1,11,12
 774 279 774 279 764 283 c 1,13,-1
 758 268 l 1,14,-1
 772 268 l 1,15,16
 772 428 772 428 778 745 c 1,17,18
 731 637 731 637 635 418 c 1,19,20
 516 170 516 170 438 170 c 0,21,22
 387 170 387 170 387 274 c 0,23,24
 387 649 387 649 438 920 c 0,25,26
 449 979 449 979 487 979 c 0,27,28
 555 979 555 979 555 942 c 0,29,30
 555 887 555 887 532 745 c 1,31,32
 506 573 506 573 502 537 c 2,33,-1
 477 291 l 1,34,35
 559 483 559 483 602 575 c 0,36,37
 702 791 702 791 737 819 c 1,38,39
 766 844 766 844 797 844 c 0,40,41
 838 844 838 844 852 821 c 0,42,43
 860 807 860 807 860 762 c 0,44,45
 860 508 860 508 848 330 c 1,46,47
 899 430 899 430 975 625 c 0,48,49
 1036 784 1036 784 1126 975 c 1,50,51
 1145 995 1145 995 1180 995 c 0,52,53
 1231 995 1231 995 1231 952 c 0,0,1
EndSplineSet
EndChar

StartChar: X
Encoding: 56 88 59
Width: 893
Flags: W
LayerCount: 2
Fore
SplineSet
930 928 m 0,0,1
 930 895 930 895 786 756 c 1,2,3
 766 731 766 731 709 670 c 1,4,5
 678 639 678 639 600 557 c 1,6,7
 641 426 641 426 696 274 c 1,8,9
 717 221 717 221 717 199 c 0,10,11
 717 147 717 147 666 147 c 0,12,13
 598 147 598 147 575 281 c 1,14,15
 565 352 565 352 518 467 c 1,16,17
 508 459 508 459 371 297 c 0,18,19
 262 168 262 168 221 168 c 0,20,21
 207 168 207 168 179.5 182.5 c 128,-1,22
 152 197 152 197 152 209 c 0,23,24
 152 219 152 219 190 254 c 1,25,26
 205 266 205 266 242 297 c 1,27,28
 317 393 317 393 481 580 c 1,29,30
 444 705 444 705 356 862 c 1,31,32
 324 926 324 926 324 944 c 0,33,34
 324 977 324 977 381 977 c 256,35,36
 438 977 438 977 467 913 c 1,37,-1
 508 801 l 1,38,39
 516 784 516 784 528 723 c 1,40,41
 539 676 539 676 563 645 c 1,42,43
 604 715 604 715 715 836 c 0,44,45
 844 975 844 975 893 975 c 0,46,47
 930 975 930 975 930 928 c 0,0,1
EndSplineSet
EndChar

StartChar: Y
Encoding: 57 89 60
Width: 883
Flags: W
LayerCount: 2
Fore
SplineSet
948 936 m 0,0,1
 948 889 948 889 846 774 c 0,2,3
 772 692 772 692 699.5 608 c 128,-1,4
 627 524 627 524 575 422 c 1,5,6
 516 299 516 299 485 201 c 0,7,8
 465 139 465 139 426 139 c 0,9,10
 373 139 373 139 373 193 c 0,11,12
 373 223 373 223 422 342 c 0,13,14
 465 444 465 444 492 494 c 1,15,16
 483 532 483 532 408 727 c 1,17,18
 346 885 346 885 346 948 c 0,19,20
 346 961 346 961 374.5 968 c 128,-1,21
 403 975 403 975 420 975 c 0,22,23
 459 975 459 975 475 913 c 1,24,25
 479 893 479 893 494 838 c 1,26,27
 516 770 516 770 571 592 c 1,28,29
 616 670 616 670 803 885 c 1,30,31
 813 903 813 903 842 946 c 0,32,33
 858 971 858 971 885 971 c 0,34,35
 948 971 948 971 948 936 c 0,0,1
EndSplineSet
EndChar

StartChar: Z
Encoding: 58 90 61
Width: 862
Flags: W
LayerCount: 2
Fore
SplineSet
877 897 m 2,0,1
 877 866 877 866 606 594 c 0,2,3
 297 285 297 285 268 250 c 1,4,5
 389 260 389 260 629 276 c 1,6,-1
 629 291 l 1,7,8
 692 252 692 252 692 240 c 0,9,10
 692 170 692 170 553 170 c 0,11,12
 514 170 514 170 514 170 c 2,13,14
 504 170 504 170 494 172 c 1,15,16
 483 172 483 172 481 172 c 0,17,18
 444 172 444 172 368.5 169 c 128,-1,19
 293 166 293 166 254 166 c 0,20,21
 158 166 158 166 158 246 c 0,22,23
 158 276 158 276 428 545 c 1,24,-1
 762 881 l 1,25,26
 702 881 702 881 585.5 863.5 c 128,-1,27
 469 846 469 846 410 846 c 0,28,29
 377 846 377 846 377 909 c 0,30,31
 377 969 377 969 453 969 c 2,32,-1
 797 969 l 2,33,34
 877 969 877 969 877 911 c 2,35,-1
 877 897 l 2,0,1
EndSplineSet
EndChar

StartChar: bracketleft
Encoding: 59 91 62
Width: 885
Flags: W
LayerCount: 2
Fore
SplineSet
1036 1333 m 1,0,-1
 991 1229 l 1,1,-1
 768 1229 l 1,2,-1
 258 -115 l 1,3,-1
 492 -115 l 1,4,-1
 457 -217 l 1,5,-1
 92 -217 l 1,6,-1
 676 1333 l 1,7,-1
 1036 1333 l 1,0,-1
EndSplineSet
EndChar

StartChar: backslash
Encoding: 60 92 63
Width: 1012
Flags: W
LayerCount: 2
Fore
SplineSet
868 -150 m 1,0,-1
 786 -182 l 1,1,-1
 264 1260 l 1,2,-1
 346 1286 l 1,3,-1
 868 -150 l 1,0,-1
EndSplineSet
EndChar

StartChar: bracketright
Encoding: 61 93 64
Width: 885
Flags: W
LayerCount: 2
Fore
SplineSet
881 1333 m 1,0,-1
 297 -223 l 1,1,-1
 -61 -223 l 1,2,-1
 -18 -117 l 1,3,-1
 207 -117 l 1,4,-1
 711 1221 l 1,5,-1
 479 1221 l 1,6,-1
 518 1333 l 1,7,-1
 881 1333 l 1,0,-1
EndSplineSet
EndChar

StartChar: asciicircum
Encoding: 62 94 65
Width: 735
Flags: W
LayerCount: 2
Fore
SplineSet
772 862 m 0,0,1
 772 809 772 809 686 782 c 1,2,-1
 700 772 l 1,3,-1
 700 786 l 1,4,5
 674 797 674 797 641 879 c 2,6,7
 641 879 641 879 596 993 c 1,8,9
 567 1008 567 1008 543 1051 c 1,10,11
 299 854 299 854 238 854 c 0,12,13
 203 854 203 854 203 909 c 1,14,-1
 209 930 l 1,15,16
 270 991 270 991 382 1063 c 128,-1,17
 494 1135 494 1135 578 1169 c 1,18,-1
 588 1169 l 2,19,20
 612 1169 612 1169 692 1034 c 128,-1,21
 772 899 772 899 772 862 c 0,0,1
EndSplineSet
EndChar

StartChar: underscore
Encoding: 63 95 66
Width: 1223
Flags: W
LayerCount: 2
Fore
SplineSet
1081 -330 m 1,0,-1
 -190 -330 l 1,1,-1
 -190 -223 l 1,2,-1
 1081 -223 l 1,3,-1
 1081 -330 l 1,0,-1
EndSplineSet
EndChar

StartChar: grave
Encoding: 64 96 67
Width: 0
Flags: W
LayerCount: 2
Fore
SplineSet
-287 1159 m 1,0,-1
 -346 1159 l 1,1,-1
 -657 1487 l 1,2,-1
 -477 1487 l 1,3,-1
 -287 1159 l 1,0,-1
EndSplineSet
EndChar

StartChar: a
Encoding: 65 97 68
Width: 764
Flags: W
LayerCount: 2
Fore
SplineSet
670 819 m 0,0,1
 670 731 670 731 664.5 557 c 128,-1,2
 659 383 659 383 659 295 c 0,3,4
 659 223 659 223 594 223 c 0,5,6
 549 223 549 223 549 297 c 0,7,8
 549 401 549 401 573 455 c 1,9,10
 518 432 518 432 401 406 c 1,11,12
 391 406 391 406 322 406 c 1,13,14
 260 246 260 246 241.5 234.5 c 128,-1,15
 223 223 223 223 211 223 c 0,16,17
 168 223 168 223 168 258 c 0,18,19
 168 309 168 309 231 414 c 1,20,21
 199 424 199 424 199 434 c 0,22,23
 199 465 199 465 224.5 487.5 c 128,-1,24
 250 510 250 510 281 510 c 1,25,26
 330 588 330 588 430 743 c 1,27,28
 551 928 551 928 592 928 c 0,29,30
 670 928 670 928 670 819 c 0,0,1
602 778 m 0,31,32
 602 795 602 795 594 840 c 1,33,34
 444 659 444 659 360 485 c 1,35,36
 387 483 387 483 399 483 c 0,37,38
 430 483 430 483 481 496 c 1,39,40
 543 508 543 508 565 510 c 1,41,42
 602 633 602 633 602 778 c 0,31,32
EndSplineSet
EndChar

StartChar: b
Encoding: 66 98 69
Width: 825
Flags: W
LayerCount: 2
Fore
SplineSet
823 764 m 0,0,1
 823 657 823 657 657 584 c 1,2,-1
 641 555 l 1,3,4
 715 512 715 512 715 428 c 0,5,6
 715 334 715 334 610 270 c 0,7,8
 516 213 516 213 418 213 c 0,9,10
 291 213 291 213 291 285 c 0,11,12
 291 297 291 297 297 319 c 1,13,14
 315 410 315 410 378.5 574.5 c 128,-1,15
 442 739 442 739 461 821 c 1,16,-1
 362 784 l 1,17,18
 352 784 352 784 352 795 c 0,19,20
 352 915 352 915 600 915 c 0,21,22
 676 915 676 915 743 879 c 1,23,24
 823 834 823 834 823 764 c 0,0,1
721 754 m 0,25,26
 721 797 721 797 678 820.5 c 128,-1,27
 635 844 635 844 590 844 c 0,28,29
 569 844 569 844 492 825 c 1,30,31
 553 797 553 797 555 793 c 1,32,33
 555 786 555 786 543 762 c 0,34,35
 494 670 494 670 451 537 c 1,36,37
 418 420 418 420 385 303 c 1,38,39
 408 279 408 279 434 279 c 0,40,41
 502 279 502 279 561.5 328 c 128,-1,42
 621 377 621 377 621 442 c 0,43,44
 621 481 621 481 571.5 519 c 128,-1,45
 522 557 522 557 522 565 c 0,46,47
 522 602 522 602 580 633 c 1,48,49
 625 653 625 653 670 674 c 1,50,51
 721 705 721 705 721 754 c 0,25,26
EndSplineSet
EndChar

StartChar: c
Encoding: 67 99 70
Width: 809
Flags: W
LayerCount: 2
Fore
SplineSet
797 803 m 0,0,1
 797 694 797 694 737 694 c 0,2,3
 694 694 694 694 686 721 c 1,4,5
 711 772 711 772 711 803 c 0,6,7
 711 852 711 852 657 852 c 0,8,9
 537 852 537 852 436 678 c 0,10,11
 346 522 346 522 346 391 c 0,12,13
 346 283 346 283 463 283 c 0,14,15
 522 283 522 283 559 328 c 0,16,17
 567 338 567 338 608 410 c 0,18,19
 633 453 633 453 662 453 c 0,20,21
 705 453 705 453 705 420 c 0,22,23
 705 379 705 379 653.5 317.5 c 128,-1,24
 602 256 602 256 561 235.5 c 128,-1,25
 520 215 520 215 481 215 c 0,26,27
 336 215 336 215 293 279 c 1,28,29
 258 328 258 328 258 412 c 0,30,31
 258 592 258 592 375 752 c 1,32,33
 500 928 500 928 674 928 c 0,34,35
 797 928 797 928 797 803 c 0,0,1
EndSplineSet
EndChar

StartChar: d
Encoding: 68 100 71
Width: 895
Flags: W
LayerCount: 2
Fore
SplineSet
858 705 m 0,0,1
 858 623 858 623 813 477 c 0,2,3
 805 451 805 451 778 387 c 1,4,5
 700 217 700 217 360 217 c 0,6,7
 322 217 322 217 310.5 229.5 c 128,-1,8
 299 242 299 242 297 283 c 1,9,10
 297 322 297 322 297 356 c 0,11,12
 297 428 297 428 384 581.5 c 128,-1,13
 471 735 471 735 471 788 c 0,14,15
 471 811 471 811 440 821 c 1,16,17
 399 786 399 786 375 786 c 0,18,19
 340 786 340 786 340 811 c 0,20,21
 340 864 340 864 440 897 c 1,22,23
 518 924 518 924 586 924 c 0,24,25
 700 924 700 924 774 872 c 0,26,27
 858 813 858 813 858 705 c 0,0,1
766 705 m 0,28,29
 766 846 766 846 592 846 c 0,30,31
 563 846 563 846 506 829 c 1,32,33
 551 805 551 805 551 793 c 0,34,35
 551 721 551 721 471 575 c 1,36,37
 434 510 434 510 389 367 c 0,38,39
 379 338 379 338 379 326 c 0,40,41
 379 281 379 281 455 281 c 0,42,43
 487 281 487 281 555 309 c 0,44,45
 584 322 584 322 647 360 c 1,46,47
 700 403 700 403 735 520 c 0,48,49
 766 621 766 621 766 705 c 0,28,29
EndSplineSet
EndChar

StartChar: e
Encoding: 69 101 72
Width: 831
Flags: W
LayerCount: 2
Fore
SplineSet
838 870 m 0,0,1
 838 817 838 817 786 817 c 1,2,3
 795 817 795 817 539 834 c 1,4,5
 565 797 565 797 565 786 c 0,6,7
 565 750 565 750 532 694 c 1,8,9
 492 623 492 623 483 606 c 1,10,11
 514 606 514 606 573 606 c 1,12,13
 631 608 631 608 662 608 c 0,14,15
 707 608 707 608 707 582 c 0,16,17
 707 535 707 535 651 528 c 0,18,19
 606 522 606 522 610 522 c 1,20,21
 592 522 592 522 455 526 c 1,22,-1
 403 326 l 1,23,24
 420 309 420 309 436 309 c 0,25,26
 469 309 469 309 532.5 311 c 128,-1,27
 596 313 596 313 629 313 c 0,28,29
 692 313 692 313 692 281 c 0,30,31
 692 238 692 238 643 227 c 0,32,33
 631 225 631 225 563 225 c 0,34,35
 375 225 375 225 344 240 c 0,36,37
 299 262 299 262 299 307 c 0,38,39
 299 324 299 324 326 408 c 1,40,-1
 360 520 l 1,41,42
 313 532 313 532 313 559 c 0,43,44
 313 610 313 610 381 608 c 1,45,46
 383 612 383 612 395 621 c 0,47,48
 416 637 416 637 483 827 c 1,49,50
 444 817 444 817 438 817 c 0,51,52
 416 817 416 817 416 836 c 0,53,54
 416 915 416 915 543 915 c 2,55,-1
 598 915 l 2,56,57
 827 915 827 915 834 895 c 1,58,59
 838 887 838 887 838 870 c 0,0,1
EndSplineSet
EndChar

StartChar: f
Encoding: 70 102 73
Width: 811
Flags: W
LayerCount: 2
Fore
SplineSet
887 870 m 0,0,1
 887 836 887 836 842 825 c 1,2,3
 819 821 819 821 758 819 c 1,4,5
 713 819 713 819 645 819 c 1,6,-1
 553 821 l 1,7,8
 571 793 571 793 571 791 c 0,9,10
 571 784 571 784 539 688 c 1,11,12
 502 584 502 584 498 565 c 1,13,14
 526 565 526 565 584 565 c 1,15,16
 643 567 643 567 672 567 c 0,17,18
 721 567 721 567 721 537 c 0,19,20
 721 479 721 479 666 479 c 0,21,22
 641 479 641 479 590 481 c 128,-1,23
 539 483 539 483 514 483 c 0,24,25
 506 483 506 483 465 481 c 1,26,27
 438 414 438 414 399 276 c 1,28,29
 389 219 389 219 348 219 c 0,30,31
 295 219 295 219 295 252 c 0,32,33
 295 301 295 301 369 473 c 1,34,35
 338 481 338 481 338 494 c 0,36,37
 338 559 338 559 401 565 c 1,38,39
 426 664 426 664 492 815 c 1,40,41
 412 819 412 819 412 846 c 0,42,43
 412 913 412 913 506 913 c 2,44,-1
 827 913 l 2,45,46
 887 913 887 913 887 870 c 0,0,1
EndSplineSet
EndChar

StartChar: g
Encoding: 71 103 74
Width: 909
Flags: W
LayerCount: 2
Fore
SplineSet
895 788 m 0,0,1
 895 760 895 760 873.5 727 c 128,-1,2
 852 694 852 694 823 694 c 0,3,4
 795 694 795 694 774 727 c 1,5,6
 805 780 805 780 805 788 c 0,7,8
 805 840 805 840 743 840 c 0,9,10
 653 840 653 840 616 829 c 0,11,12
 561 813 561 813 518 756 c 1,13,14
 381 569 381 569 381 418 c 0,15,16
 381 365 381 365 413.5 331 c 128,-1,17
 446 297 446 297 498 297 c 2,18,-1
 541 297 l 2,19,20
 606 297 606 297 651 365 c 1,21,22
 692 424 692 424 692 494 c 1,23,24
 643 479 643 479 592 479 c 0,25,26
 563 479 563 479 563 500 c 0,27,28
 563 543 563 543 633 555 c 0,29,30
 662 559 662 559 735 559 c 0,31,32
 836 559 836 559 836 522 c 0,33,34
 836 492 836 492 750 494 c 1,35,36
 778 461 778 461 778 451 c 0,37,38
 778 371 778 371 692 294 c 128,-1,39
 606 217 606 217 522 217 c 0,40,41
 436 217 436 217 367 264 c 0,42,43
 289 317 289 317 289 399 c 0,44,45
 289 539 289 539 358.5 675 c 128,-1,46
 428 811 428 811 541 885 c 0,47,48
 596 922 596 922 756 922 c 0,49,50
 895 922 895 922 895 788 c 0,0,1
EndSplineSet
EndChar

StartChar: h
Encoding: 72 104 75
Width: 918
Flags: W
LayerCount: 2
Fore
SplineSet
924 891 m 0,0,1
 924 811 924 811 864 662 c 1,2,3
 834 584 834 584 770 432 c 1,4,5
 764 408 764 408 745 332 c 0,6,7
 719 225 719 225 662 225 c 0,8,9
 625 225 625 225 625 244 c 0,10,11
 625 309 625 309 696 436 c 1,12,13
 700 465 700 465 721 520 c 1,14,-1
 678 539 l 1,15,16
 659 498 659 498 606 498 c 0,17,18
 598 498 598 498 584.5 500 c 128,-1,19
 571 502 571 502 565 502 c 0,20,21
 535 502 535 502 455 496 c 1,22,23
 422 371 422 371 373 231 c 1,24,25
 358 225 358 225 344 225 c 0,26,27
 293 225 293 225 293 246 c 0,28,29
 293 303 293 303 367 492 c 1,30,31
 311 498 311 498 311 514 c 0,32,33
 311 520 311 520 317 535 c 1,34,35
 330 559 330 559 348 565 c 0,36,37
 354 567 354 567 391 569 c 1,38,-1
 504 883 l 2,39,40
 514 913 514 913 543 913 c 0,41,42
 604 913 604 913 604 885 c 0,43,44
 604 850 604 850 485 569 c 1,45,-1
 729 569 l 1,46,-1
 821 866 l 2,47,48
 836 915 836 915 868 915 c 0,49,50
 883 915 883 915 903.5 909 c 128,-1,51
 924 903 924 903 924 891 c 0,0,1
EndSplineSet
EndChar

StartChar: i
Encoding: 73 105 76
Width: 512
Flags: W
LayerCount: 2
Fore
SplineSet
532 879 m 1,0,-1
 434 645 l 2,1,2
 379 512 379 512 354 406 c 1,3,4
 348 367 348 367 328.5 288 c 128,-1,5
 309 209 309 209 264 209 c 0,6,7
 221 209 221 209 221 238 c 0,8,9
 221 326 221 326 313 600 c 1,10,11
 412 889 412 889 467 913 c 1,12,13
 475 918 475 918 494 918 c 0,14,15
 535 918 535 918 532 879 c 1,0,-1
EndSplineSet
EndChar

StartChar: j
Encoding: 74 106 77
Width: 762
Flags: W
LayerCount: 2
Fore
SplineSet
756 883 m 0,0,1
 756 825 756 825 672 594 c 0,2,3
 596 385 596 385 553 305 c 0,4,5
 504 215 504 215 432 215 c 0,6,7
 236 215 236 215 236 336 c 0,8,9
 236 451 236 451 324 451 c 0,10,11
 338 451 338 451 344 446 c 1,12,13
 344 432 344 432 309 358 c 1,14,15
 322 285 322 285 412 285 c 0,16,17
 473 285 473 285 522 428 c 1,18,19
 535 461 535 461 598 709 c 1,20,21
 641 870 641 870 676 899 c 0,22,23
 696 915 696 915 717 915 c 0,24,25
 756 915 756 915 756 883 c 0,0,1
EndSplineSet
EndChar

StartChar: k
Encoding: 75 107 78
Width: 883
Flags: W
LayerCount: 2
Fore
SplineSet
901 866 m 0,0,1
 901 850 901 850 850 778 c 0,2,3
 688 553 688 553 539 508 c 1,4,5
 575 465 575 465 647 367 c 0,6,7
 733 250 733 250 733 227 c 0,8,9
 733 201 733 201 700 201 c 0,10,11
 657 201 657 201 582 313 c 1,12,13
 489 446 489 446 471 463 c 1,14,15
 451 436 451 436 413 331.5 c 128,-1,16
 375 227 375 227 369 221 c 0,17,18
 356 209 356 209 342 209 c 0,19,20
 295 209 295 209 295 233 c 0,21,22
 295 285 295 285 377 477 c 1,23,24
 336 496 336 496 336 512 c 0,25,26
 336 563 336 563 399 557 c 1,27,28
 424 670 424 670 440 735 c 1,29,30
 463 819 463 819 471 838 c 0,31,32
 502 911 502 911 541 911 c 256,33,34
 580 911 580 911 580 879 c 0,35,36
 580 831 580 831 545 731 c 0,37,38
 500 602 500 602 496 575 c 1,39,40
 694 637 694 637 797 860 c 0,41,42
 805 879 805 879 819 901 c 1,43,44
 834 915 834 915 852 915 c 0,45,46
 901 915 901 915 901 866 c 0,0,1
EndSplineSet
EndChar

StartChar: l
Encoding: 76 108 79
Width: 750
Flags: W
LayerCount: 2
Fore
SplineSet
653 283 m 0,0,1
 653 264 653 264 624.5 247.5 c 128,-1,2
 596 231 596 231 575 231 c 2,3,-1
 311 231 l 2,4,5
 227 231 227 231 227 283 c 0,6,7
 227 291 227 291 264 385 c 1,8,9
 285 432 285 432 358 657 c 1,10,11
 446 922 446 922 498 922 c 0,12,13
 547 922 547 922 547 899 c 0,14,15
 547 854 547 854 504 748 c 1,16,17
 471 672 471 672 406 520 c 1,18,19
 336 360 336 360 336 301 c 2,20,-1
 336 295 l 1,21,-1
 365 295 l 2,22,23
 410 295 410 295 495 309.5 c 128,-1,24
 580 324 580 324 623 324 c 0,25,26
 653 324 653 324 653 283 c 0,0,1
EndSplineSet
EndChar

StartChar: m
Encoding: 77 109 80
Width: 1145
Flags: W
LayerCount: 2
Fore
SplineSet
1106 852 m 0,0,1
 1106 715 1106 715 1063 569 c 0,2,3
 977 270 977 270 948 240 c 1,4,5
 928 217 928 217 909 217 c 0,6,7
 854 217 854 217 854 238 c 0,8,9
 854 274 854 274 911 387 c 1,10,11
 1012 651 1012 651 1012 811 c 1,12,13
 905 575 905 575 754 477 c 1,14,15
 723 459 723 459 711 459 c 0,16,17
 678 459 678 459 657 526 c 1,18,19
 645 569 645 569 608 680 c 0,20,21
 604 694 604 694 569 774 c 1,22,23
 555 719 555 719 479 485 c 0,24,25
 399 236 399 236 389 230.5 c 128,-1,26
 379 225 379 225 354 225 c 0,27,28
 311 225 311 225 311 266 c 256,29,30
 311 307 311 307 334 362 c 0,31,32
 348 393 348 393 373 455 c 1,33,34
 399 541 399 541 459 711 c 0,35,36
 530 911 530 911 586 911 c 0,37,38
 655 911 655 911 655 870 c 0,39,40
 655 864 655 864 652 853 c 128,-1,41
 649 842 649 842 649 838 c 0,42,43
 649 825 649 825 658.5 809 c 128,-1,44
 668 793 668 793 670 786 c 0,45,46
 674 762 674 762 686 698 c 1,47,48
 686 692 686 692 733 557 c 1,49,50
 780 598 780 598 864 694 c 1,51,52
 889 731 889 731 926 797 c 1,53,-1
 973 877 l 1,54,55
 1008 924 1008 924 1044 924 c 0,56,57
 1106 924 1106 924 1106 852 c 0,0,1
EndSplineSet
EndChar

StartChar: n
Encoding: 78 110 81
Width: 934
Flags: W
LayerCount: 2
Fore
SplineSet
932 889 m 0,0,1
 932 864 932 864 872 721 c 1,2,3
 860 674 860 674 821 551 c 1,4,5
 795 449 795 449 735 250 c 0,6,7
 721 207 721 207 676 207 c 0,8,9
 655 207 655 207 639 225 c 0,10,11
 629 236 629 236 588 496 c 1,12,13
 551 721 551 721 539 803 c 1,14,15
 465 612 465 612 408 436 c 1,16,17
 391 379 391 379 346 229 c 1,18,19
 332 219 332 219 317 219 c 0,20,21
 270 219 270 219 270 252 c 0,22,23
 270 330 270 330 317 451 c 1,24,25
 340 506 340 506 393 651 c 1,26,27
 406 692 406 692 428 772 c 1,28,29
 469 909 469 909 532 909 c 0,30,31
 573 909 573 909 594 895 c 1,32,33
 606 889 606 889 647 637 c 0,34,35
 680 438 680 438 692 338 c 1,36,37
 702 426 702 426 756 637 c 1,38,39
 815 879 815 879 848 903 c 0,40,41
 866 915 866 915 889 915 c 0,42,43
 932 915 932 915 932 889 c 0,0,1
EndSplineSet
EndChar

StartChar: o
Encoding: 79 111 82
Width: 836
Flags: W
LayerCount: 2
Fore
SplineSet
811 737 m 0,0,1
 811 549 811 549 725 399 c 0,2,3
 623 219 623 219 449 219 c 0,4,5
 371 219 371 219 322.5 269 c 128,-1,6
 274 319 274 319 274 399 c 0,7,8
 274 506 274 506 338 635 c 0,9,10
 399 756 399 756 481 836 c 1,11,12
 582 932 582 932 682 932 c 0,13,14
 727 932 727 932 727 891 c 0,15,16
 727 879 727 879 719 858 c 1,17,-1
 756 860 l 1,18,19
 811 860 811 860 811 737 c 0,0,1
731 727 m 0,20,21
 731 813 731 813 684 854 c 1,22,23
 547 840 547 840 453 682 c 0,24,25
 371 545 371 545 371 395 c 0,26,27
 371 291 371 291 465 291 c 0,28,29
 582 291 582 291 664 457 c 1,30,31
 731 596 731 596 731 727 c 0,20,21
EndSplineSet
EndChar

StartChar: p
Encoding: 80 112 83
Width: 848
Flags: W
LayerCount: 2
Fore
SplineSet
844 743 m 0,0,1
 844 477 844 477 426 430 c 1,2,3
 377 236 377 236 356.5 223.5 c 128,-1,4
 336 211 336 211 317 211 c 0,5,6
 276 211 276 211 276 244 c 0,7,8
 276 274 276 274 305 338 c 0,9,10
 338 412 338 412 344 432 c 1,11,12
 311 449 311 449 311 473 c 0,13,14
 311 526 311 526 371 532 c 1,15,-1
 426 674 l 1,16,17
 453 750 453 750 461 821 c 1,18,19
 426 807 426 807 377 788 c 1,20,21
 352 791 352 791 352 813 c 0,22,23
 352 866 352 866 455 897 c 0,24,25
 524 918 524 918 600 918 c 0,26,27
 698 918 698 918 764 881 c 0,28,29
 844 836 844 836 844 743 c 0,0,1
762 729 m 0,30,31
 762 782 762 782 716 811 c 128,-1,32
 670 840 670 840 614 840 c 0,33,34
 586 840 586 840 512 829 c 1,35,36
 549 788 549 788 549 782 c 0,37,38
 549 745 549 745 509 669.5 c 128,-1,39
 469 594 469 594 469 553 c 0,40,41
 469 545 469 545 473 510 c 1,42,43
 575 518 575 518 659 571 c 0,44,45
 762 637 762 637 762 729 c 0,30,31
EndSplineSet
EndChar

StartChar: q
Encoding: 81 113 84
Width: 920
Flags: W
LayerCount: 2
Fore
SplineSet
889 723 m 0,0,1
 889 444 889 444 659 244 c 1,2,3
 705 168 705 168 705 160 c 0,4,5
 705 121 705 121 637 121 c 0,6,7
 616 121 616 121 598 152 c 0,8,9
 584 176 584 176 569 201 c 1,10,11
 524 186 524 186 508 186 c 0,12,13
 422 186 422 186 365.5 243.5 c 128,-1,14
 309 301 309 301 309 385 c 0,15,16
 309 485 309 485 338 559 c 1,17,18
 365 625 365 625 428 711 c 1,19,20
 535 852 535 852 702 897 c 1,21,22
 731 903 731 903 743 903 c 0,23,24
 782 903 782 903 782 883 c 0,25,26
 782 872 782 872 766 842 c 1,27,28
 807 844 807 844 813 844 c 0,29,30
 864 844 864 844 881 805 c 1,31,32
 889 784 889 784 889 723 c 0,0,1
793 721 m 0,33,34
 793 799 793 799 748 834 c 1,35,36
 606 805 606 805 506 668 c 1,37,38
 414 535 414 535 414 387 c 0,39,40
 414 274 414 274 496 262 c 1,41,-1
 530 270 l 1,42,43
 504 305 504 305 496 330 c 1,44,45
 510 369 510 369 563 369 c 0,46,47
 592 369 592 369 606 301 c 1,48,49
 684 377 684 377 738.5 495.5 c 128,-1,50
 793 614 793 614 793 721 c 0,33,34
EndSplineSet
EndChar

StartChar: r
Encoding: 82 114 85
Width: 850
Flags: W
LayerCount: 2
Fore
SplineSet
827 741 m 0,0,1
 827 637 827 637 733 565 c 1,2,3
 655 508 655 508 539 485 c 1,4,5
 567 434 567 434 635 356 c 0,6,7
 709 270 709 270 733 229 c 1,8,9
 733 215 733 215 710.5 206 c 128,-1,10
 688 197 688 197 670 197 c 0,11,12
 649 197 649 197 604 264 c 0,13,14
 573 309 573 309 561 322 c 2,15,-1
 489 403 l 1,16,17
 451 451 451 451 426 494 c 1,18,19
 383 399 383 399 367 346 c 1,20,21
 360 301 360 301 346 246 c 0,22,23
 340 221 340 221 297 221 c 0,24,25
 248 221 248 221 248 242 c 0,26,27
 248 289 248 289 346 543 c 1,28,29
 416 719 416 719 477 862 c 1,30,31
 389 762 389 762 377 762 c 0,32,33
 342 762 342 762 342 805 c 0,34,35
 342 918 342 918 582 918 c 0,36,37
 827 918 827 918 827 741 c 0,0,1
741 733 m 0,38,39
 741 786 741 786 688 819 c 0,40,41
 643 846 643 846 588 846 c 0,42,43
 553 846 553 846 473 827 c 1,44,45
 539 801 539 801 539 788 c 0,46,47
 539 766 539 766 494 668 c 1,48,49
 457 590 457 590 438 479 c 1,50,51
 469 518 469 518 530 561 c 1,52,53
 610 565 610 565 672 610 c 0,54,55
 741 659 741 659 741 733 c 0,38,39
EndSplineSet
EndChar

StartChar: s
Encoding: 83 115 86
Width: 854
Flags: W
LayerCount: 2
Fore
SplineSet
850 879 m 0,0,1
 850 827 850 827 825 788 c 1,2,3
 795 745 795 745 745 745 c 0,4,5
 725 745 725 745 725 758 c 0,6,7
 725 776 725 776 740.5 813 c 128,-1,8
 756 850 756 850 758 864 c 1,9,-1
 713 834 l 1,10,11
 653 825 653 825 580 786 c 0,12,13
 492 739 492 739 492 692 c 0,14,15
 492 664 492 664 555 625 c 1,16,-1
 555 631 l 1,17,18
 639 584 639 584 668 561 c 0,19,20
 733 512 733 512 733 455 c 0,21,22
 733 346 733 346 618 274 c 1,23,24
 520 215 520 215 403 215 c 0,25,26
 342 215 342 215 300 247 c 128,-1,27
 258 279 258 279 258 338 c 256,28,29
 258 397 258 397 319 397 c 0,30,31
 354 397 354 397 354 373 c 0,32,33
 354 365 354 365 350 349.5 c 128,-1,34
 346 334 346 334 346 326 c 0,35,36
 346 274 346 274 408 274 c 0,37,38
 475 274 475 274 549 322 c 0,39,40
 631 375 631 375 631 436 c 0,41,42
 631 485 631 485 565 524 c 1,43,44
 524 547 524 547 442 590 c 1,45,46
 377 627 377 627 377 674 c 0,47,48
 377 690 377 690 393 729 c 0,49,50
 426 807 426 807 559 866 c 1,51,52
 680 922 680 922 776 922 c 0,53,54
 850 922 850 922 850 879 c 0,0,1
EndSplineSet
EndChar

StartChar: t
Encoding: 84 116 87
Width: 885
Flags: W
LayerCount: 2
Fore
SplineSet
946 866 m 256,0,1
 946 825 946 825 870 825 c 0,2,3
 780 825 780 825 649 836 c 1,4,5
 725 793 725 793 725 786 c 0,6,7
 725 772 725 772 653 578 c 0,8,9
 612 467 612 467 567 334 c 1,10,11
 563 317 563 317 552 263 c 128,-1,12
 541 209 541 209 514 209 c 0,13,14
 444 209 444 209 444 236 c 0,15,16
 444 276 444 276 535 518 c 1,17,18
 553 571 553 571 639 829 c 1,19,20
 602 829 602 829 529.5 827 c 128,-1,21
 457 825 457 825 420 825 c 0,22,23
 389 825 389 825 389 854 c 0,24,25
 389 874 389 874 408 901 c 0,26,27
 416 911 416 911 524 911 c 1,28,29
 514 911 514 911 600 909 c 1,30,31
 700 909 700 909 831 909 c 1,32,33
 946 907 946 907 946 866 c 256,0,1
EndSplineSet
EndChar

StartChar: u
Encoding: 85 117 88
Width: 895
Flags: W
LayerCount: 2
Fore
SplineSet
915 883 m 0,0,1
 915 840 915 840 832.5 614.5 c 128,-1,2
 750 389 750 389 719 338 c 0,3,4
 645 215 645 215 494 215 c 0,5,6
 309 215 309 215 309 352 c 0,7,8
 309 444 309 444 362 616 c 0,9,10
 410 774 410 774 461 870 c 1,11,12
 485 918 485 918 518 918 c 0,13,14
 561 918 561 918 561 885 c 256,15,16
 561 852 561 852 528 776 c 0,17,18
 512 741 512 741 479 668 c 1,19,20
 399 471 399 471 399 350 c 0,21,22
 399 319 399 319 438 299 c 0,23,24
 471 281 471 281 504 281 c 0,25,26
 555 281 555 281 602 322 c 0,27,28
 629 346 629 346 700 543 c 0,29,30
 762 717 762 717 780 795 c 1,31,32
 788 838 788 838 817 899 c 1,33,34
 834 918 834 918 854 918 c 0,35,36
 915 918 915 918 915 883 c 0,0,1
EndSplineSet
EndChar

StartChar: v
Encoding: 86 118 89
Width: 915
Flags: W
LayerCount: 2
Fore
SplineSet
958 887 m 0,0,1
 958 860 958 860 768 578.5 c 128,-1,2
 578 297 578 297 535 252 c 0,3,4
 504 221 504 221 475 221 c 0,5,6
 414 221 414 221 414 332 c 0,7,8
 414 860 414 860 455 903 c 0,9,10
 467 915 467 915 479 915 c 0,11,12
 541 915 541 915 541 872 c 0,13,14
 541 858 541 858 518 702 c 0,15,16
 504 606 504 606 504 530 c 0,17,18
 504 496 504 496 506 429 c 128,-1,19
 508 362 508 362 508 328 c 1,20,21
 551 408 551 408 618 510 c 0,22,23
 694 625 694 625 733 689.5 c 128,-1,24
 772 754 772 754 877 924 c 1,25,26
 887 930 887 930 899 930 c 0,27,28
 958 930 958 930 958 887 c 0,0,1
EndSplineSet
EndChar

StartChar: w
Encoding: 87 119 90
Width: 1139
Flags: W
LayerCount: 2
Fore
SplineSet
1171 901 m 0,0,1
 1171 877 1171 877 1025 573.5 c 128,-1,2
 879 270 879 270 856.5 248.5 c 128,-1,3
 834 227 834 227 813 227 c 0,4,5
 786 227 786 227 780 258 c 1,6,7
 776 270 776 270 776 311 c 1,8,-1
 764 311 l 1,9,-1
 774 307 l 1,10,-1
 776 311 l 1,11,12
 780 324 780 324 770 326 c 1,13,-1
 764 313 l 1,14,-1
 778 313 l 1,15,16
 778 449 778 449 782 723 c 1,17,18
 743 629 743 629 659 442 c 1,19,20
 559 227 559 227 492 227 c 0,21,22
 446 227 446 227 446 317 c 0,23,24
 446 641 446 641 492 870 c 1,25,26
 500 922 500 922 532 922 c 0,27,28
 592 922 592 922 592 891 c 0,29,30
 592 844 592 844 571 723 c 1,31,32
 549 575 549 575 547 545 c 1,33,-1
 524 332 l 1,34,35
 594 498 594 498 631 575 c 1,36,37
 717 762 717 762 748 786 c 0,38,39
 772 805 772 805 799 805 c 0,40,41
 834 805 834 805 844 789.5 c 128,-1,42
 854 774 854 774 854 735 c 0,43,44
 854 518 854 518 842 367 c 1,45,46
 885 453 885 453 952 618 c 1,47,48
 1004 756 1004 756 1081 920 c 1,49,50
 1098 938 1098 938 1126 938 c 0,51,52
 1171 938 1171 938 1171 901 c 0,0,1
EndSplineSet
EndChar

StartChar: x
Encoding: 88 120 91
Width: 844
Flags: W
LayerCount: 2
Fore
SplineSet
874 877 m 0,0,1
 874 848 874 848 752 727 c 0,2,3
 733 707 733 707 684 655 c 1,4,5
 657 629 657 629 592 557 c 1,6,7
 627 444 627 444 674 315 c 1,8,9
 692 270 692 270 692 250 c 0,10,11
 692 207 692 207 647 207 c 0,12,13
 590 207 590 207 571 322 c 0,14,15
 561 383 561 383 520 481 c 1,16,17
 512 473 512 473 395 336 c 0,18,19
 301 225 301 225 266 225 c 0,20,21
 254 225 254 225 230.5 236.5 c 128,-1,22
 207 248 207 248 207 260 c 0,23,24
 207 268 207 268 242 297 c 1,25,26
 252 307 252 307 285 336 c 1,27,28
 350 418 350 418 489 578 c 1,29,30
 457 684 457 684 383 819 c 0,31,32
 354 872 354 872 354 889 c 0,33,34
 354 918 354 918 403 918 c 0,35,36
 453 918 453 918 477 862 c 1,37,-1
 512 766 l 1,38,39
 520 752 520 752 530 700 c 1,40,41
 539 659 539 659 561 635 c 1,42,43
 596 692 596 692 690 797 c 1,44,45
 801 915 801 915 844 915 c 0,46,47
 874 915 874 915 874 877 c 0,0,1
EndSplineSet
EndChar

StartChar: y
Encoding: 89 121 92
Width: 848
Flags: W
LayerCount: 2
Fore
SplineSet
905 883 m 0,0,1
 905 842 905 842 817 743 c 0,2,3
 754 672 754 672 691.5 600 c 128,-1,4
 629 528 629 528 586 440 c 0,5,6
 535 336 535 336 508 252 c 0,7,8
 492 199 492 199 457 199 c 0,9,10
 412 199 412 199 412 246 c 0,11,12
 412 270 412 270 455 373 c 1,13,14
 492 459 492 459 514 502 c 1,15,16
 508 535 508 535 442 702 c 0,17,18
 389 838 389 838 389 893 c 0,19,20
 389 915 389 915 453 915 c 0,21,22
 485 915 485 915 500 862 c 1,23,24
 504 844 504 844 516 799 c 1,25,26
 535 739 535 739 582 586 c 1,27,28
 621 653 621 653 780 838 c 1,29,30
 788 854 788 854 815 891 c 1,31,32
 827 911 827 911 852 911 c 0,33,34
 905 911 905 911 905 883 c 0,0,1
EndSplineSet
EndChar

StartChar: z
Encoding: 90 122 93
Width: 813
Flags: W
LayerCount: 2
Fore
SplineSet
825 850 m 2,0,1
 825 823 825 823 592 590 c 0,2,3
 328 326 328 326 303 295 c 1,4,5
 408 303 408 303 614 317 c 1,6,-1
 614 330 l 1,7,8
 666 297 666 297 666 287 c 0,9,10
 666 227 666 227 547 227 c 0,11,12
 514 227 514 227 514 227 c 2,13,14
 473 227 473 227 487 227 c 1,15,16
 455 227 455 227 389.5 225 c 128,-1,17
 324 223 324 223 291 223 c 0,18,19
 209 223 209 223 209 293 c 0,20,21
 209 317 209 317 440 549 c 2,22,-1
 727 836 l 1,23,24
 676 836 676 836 575.5 821.5 c 128,-1,25
 475 807 475 807 426 807 c 0,26,27
 395 807 395 807 395 860 c 0,28,29
 395 911 395 911 461 911 c 2,30,-1
 756 911 l 2,31,32
 825 911 825 911 825 862 c 2,33,-1
 825 850 l 2,0,1
EndSplineSet
EndChar

StartChar: braceleft
Encoding: 91 123 94
Width: 995
Flags: W
LayerCount: 2
Fore
SplineSet
868 1389 m 1,0,1
 723 1325 723 1325 682 1251 c 1,2,3
 649 1188 649 1188 649 1024 c 0,4,5
 649 850 649 850 530 745 c 0,6,7
 438 664 438 664 248 610 c 1,8,9
 492 537 492 537 492 379 c 0,10,11
 492 301 492 301 423 172 c 128,-1,12
 354 43 354 43 354 -10 c 0,13,14
 354 -98 354 -98 471 -168 c 1,15,16
 387 -158 387 -158 333 -89 c 128,-1,17
 279 -20 279 -20 279 66 c 0,18,19
 279 135 279 135 346.5 261 c 128,-1,20
 414 387 414 387 414 444 c 0,21,22
 414 561 414 561 221 610 c 1,23,24
 477 676 477 676 512 811 c 0,25,26
 524 858 524 858 522 951 c 128,-1,27
 520 1044 520 1044 532 1090 c 0,28,29
 559 1192 559 1192 662.5 1284 c 128,-1,30
 766 1376 766 1376 868 1389 c 1,0,1
EndSplineSet
EndChar

StartChar: bar
Encoding: 92 124 95
Width: 930
Flags: W
LayerCount: 2
Fore
SplineSet
569 -279 m 1,0,-1
 424 -279 l 1,1,-1
 424 1262 l 1,2,-1
 569 1262 l 1,3,-1
 569 -279 l 1,0,-1
EndSplineSet
EndChar

StartChar: braceright
Encoding: 93 125 96
Width: 995
Flags: W
LayerCount: 2
Fore
SplineSet
776 592 m 1,0,1
 539 545 539 545 498 391 c 1,2,3
 487 344 487 344 488 251 c 128,-1,4
 489 158 489 158 477 113 c 0,5,6
 451 10 451 10 348 -86 c 0,7,8
 240 -186 240 -186 137 -190 c 1,9,10
 289 -121 289 -121 328 -45 c 0,11,12
 358 14 358 14 358 189.5 c 128,-1,13
 358 365 358 365 465 463 c 0,14,15
 553 543 553 543 739 592 c 1,16,17
 510 659 510 659 510 803 c 0,18,19
 510 893 510 893 582.5 1027 c 128,-1,20
 655 1161 655 1161 655 1214 c 0,21,22
 655 1296 655 1296 553 1360 c 1,23,24
 631 1335 631 1335 682 1274.5 c 128,-1,25
 733 1214 733 1214 733 1135 c 0,26,27
 733 1065 733 1065 665.5 941 c 128,-1,28
 598 817 598 817 598 762 c 0,29,30
 598 637 598 637 776 592 c 1,0,1
EndSplineSet
EndChar

StartChar: asciitilde
Encoding: 94 126 97
Width: 1128
Flags: W
LayerCount: 2
Fore
SplineSet
1026 580 m 1,0,-1
 1012 426 l 1,1,2
 911 373 911 373 805 373 c 0,3,4
 731 373 731 373 599 424 c 128,-1,5
 467 475 467 475 399 475 c 0,6,7
 315 475 315 475 186 399 c 1,8,-1
 203 549 l 1,9,10
 291 602 291 602 403 602 c 0,11,12
 481 602 481 602 614.5 552 c 128,-1,13
 748 502 748 502 815 502 c 0,14,15
 899 502 899 502 1026 580 c 1,0,-1
EndSplineSet
EndChar

StartChar: currency
Encoding: 95 164 98
Width: 1139
Flags: W
LayerCount: 2
Fore
SplineSet
1130 1196 m 1,0,-1
 958 1057 l 1,1,2
 993 973 993 973 993 889 c 0,3,4
 993 723 993 723 852 559 c 1,5,-1
 967 420 l 1,6,-1
 854 326 l 1,7,-1
 743 469 l 1,8,9
 606 387 606 387 475 387 c 256,10,11
 344 387 344 387 244 469 c 1,12,-1
 70 326 l 1,13,-1
 0 420 l 1,14,-1
 172 559 l 1,15,16
 137 641 137 641 137 725 c 0,17,18
 137 891 137 891 279 1057 c 1,19,-1
 164 1196 l 1,20,-1
 274 1288 l 1,21,-1
 387 1147 l 1,22,23
 524 1229 524 1229 655 1229 c 256,24,25
 786 1229 786 1229 887 1147 c 1,26,-1
 1059 1288 l 1,27,-1
 1130 1196 l 1,0,-1
864 872 m 0,28,29
 864 975 864 975 795.5 1037.5 c 128,-1,30
 727 1100 727 1100 625 1100 c 0,31,32
 504 1100 504 1100 400.5 1014 c 128,-1,33
 297 928 297 928 272 809 c 0,34,35
 266 780 266 780 266 745 c 0,36,37
 266 641 266 641 331.5 578.5 c 128,-1,38
 397 516 397 516 502 516 c 0,39,40
 627 516 627 516 728 601 c 128,-1,41
 829 686 829 686 856 809 c 0,42,43
 864 846 864 846 864 872 c 0,28,29
EndSplineSet
EndChar

StartChar: section
Encoding: 96 167 99
Width: 1280
Flags: W
LayerCount: 2
Fore
SplineSet
1032 1343 m 0,0,1
 1032 1313 1032 1313 1026 1280 c 1,2,-1
 895 1280 l 1,3,4
 901 1309 901 1309 901 1333 c 0,5,6
 901 1454 901 1454 762 1454 c 0,7,8
 694 1454 694 1454 634.5 1407 c 128,-1,9
 575 1360 575 1360 575 1294 c 0,10,11
 575 1219 575 1219 688 1145 c 1,12,13
 760 1102 760 1102 897 1008 c 1,14,15
 1008 926 1008 926 1008 813 c 0,16,17
 1008 637 1008 637 774 502 c 1,18,19
 827 426 827 426 827 354 c 0,20,21
 827 233 827 233 709 139 c 1,22,23
 598 53 598 53 473 53 c 0,24,25
 205 53 205 53 205 266 c 0,26,27
 205 307 205 307 213 354 c 1,28,-1
 350 354 l 1,29,30
 344 319 344 319 344 293 c 0,31,32
 344 170 344 170 475 170 c 0,33,34
 553 170 553 170 616 213 c 1,35,36
 688 260 688 260 688 334 c 0,37,38
 688 401 688 401 559 502 c 1,39,40
 463 567 463 567 367 633 c 1,41,42
 254 727 254 727 254 827 c 0,43,44
 254 1010 254 1010 481 1133 c 1,45,46
 432 1198 432 1198 432 1262 c 0,47,48
 432 1386 432 1386 549 1483 c 0,49,50
 659 1573 659 1573 788 1573 c 0,51,52
 899 1573 899 1573 965.5 1512.5 c 128,-1,53
 1032 1452 1032 1452 1032 1343 c 0,0,1
874 768 m 0,54,55
 874 846 874 846 797 899 c 2,56,-1
 543 1075 l 1,57,58
 389 999 389 999 389 866 c 0,59,60
 389 803 389 803 440 764 c 2,61,-1
 711 563 l 1,62,63
 874 641 874 641 874 768 c 0,54,55
EndSplineSet
EndChar

StartChar: copyright
Encoding: 97 169 100
Width: 1434
Flags: W
LayerCount: 2
Fore
SplineSet
1251 1192 m 0,0,1
 1251 1139 1251 1139 1239 1081 c 0,2,3
 1192 860 1192 860 1005.5 705.5 c 128,-1,4
 819 551 819 551 594 551 c 0,5,6
 406 551 406 551 284 666.5 c 128,-1,7
 162 782 162 782 162 969 c 0,8,9
 162 1024 162 1024 174 1081 c 0,10,11
 221 1303 221 1303 407.5 1458.5 c 128,-1,12
 594 1614 594 1614 819 1614 c 0,13,14
 1008 1614 1008 1614 1129.5 1496 c 128,-1,15
 1251 1378 1251 1378 1251 1192 c 0,0,1
1206 1186 m 0,16,17
 1206 1358 1206 1358 1095.5 1464.5 c 128,-1,18
 985 1571 985 1571 811 1571 c 0,19,20
 602 1571 602 1571 431 1428.5 c 128,-1,21
 260 1286 260 1286 217 1081 c 0,22,23
 205 1024 205 1024 205 977 c 0,24,25
 205 805 205 805 316.5 698.5 c 128,-1,26
 428 592 428 592 602 592 c 0,27,28
 807 592 807 592 980 735.5 c 128,-1,29
 1153 879 1153 879 1196 1081 c 0,30,31
 1206 1130 1206 1130 1206 1186 c 0,16,17
1034 1419 m 1,32,-1
 1008 1233 l 1,33,34
 987 1401 987 1401 797 1401 c 0,35,36
 532 1401 532 1401 467 1092 c 0,37,38
 455 1034 455 1034 455 989 c 0,39,40
 455 774 455 774 672 774 c 0,41,42
 788 774 788 774 938 885 c 1,43,44
 807 750 807 750 639 750 c 0,45,46
 518 750 518 750 442 817 c 1,47,48
 360 887 360 887 360 1006 c 0,49,50
 360 1049 360 1049 367 1077 c 1,51,52
 397 1225 397 1225 526 1322 c 128,-1,53
 655 1419 655 1419 809 1419 c 0,54,55
 838 1419 838 1419 891 1401.5 c 128,-1,56
 944 1384 944 1384 973 1384 c 0,57,58
 1010 1384 1010 1384 1030 1419 c 1,59,-1
 1034 1419 l 1,32,-1
EndSplineSet
EndChar

StartChar: logicalnot
Encoding: 98 172 101
Width: 1282
Flags: W
LayerCount: 2
Fore
SplineSet
1026 776 m 1,0,-1
 901 195 l 1,1,-1
 778 195 l 1,2,-1
 879 662 l 1,3,-1
 250 662 l 1,4,-1
 274 776 l 1,5,-1
 1026 776 l 1,0,-1
EndSplineSet
EndChar

StartChar: registered
Encoding: 99 174 102
Width: 1450
Flags: W
LayerCount: 2
Fore
SplineSet
1272 1198 m 0,0,1
 1272 1145 1272 1145 1260 1087 c 0,2,3
 1212 864 1212 864 1027 709.5 c 128,-1,4
 842 555 842 555 614 555 c 0,5,6
 426 555 426 555 304 669.5 c 128,-1,7
 182 784 182 784 182 973 c 0,8,9
 182 1260 182 1260 430 1464 c 0,10,11
 618 1618 618 1618 840 1618 c 0,12,13
 1026 1618 1026 1618 1149 1501 c 128,-1,14
 1272 1384 1272 1384 1272 1198 c 0,0,1
1229 1192 m 0,15,16
 1229 1364 1229 1364 1117.5 1470.5 c 128,-1,17
 1006 1577 1006 1577 831 1577 c 0,18,19
 627 1577 627 1577 454 1433.5 c 128,-1,20
 281 1290 281 1290 238 1087 c 0,21,22
 227 1038 227 1038 227 983 c 0,23,24
 227 811 227 811 338 704.5 c 128,-1,25
 449 598 449 598 623 598 c 0,26,27
 829 598 829 598 1000 740.5 c 128,-1,28
 1171 883 1171 883 1217 1087 c 1,29,30
 1229 1145 1229 1145 1229 1192 c 0,15,16
975 1282 m 0,31,32
 975 1270 975 1270 971 1251 c 0,33,34
 946 1135 946 1135 754 1090 c 1,35,-1
 877 840 l 1,36,37
 903 784 903 784 936 772 c 1,38,-1
 834 772 l 1,39,-1
 672 1081 l 1,40,-1
 590 1081 l 1,41,-1
 537 829 l 2,42,43
 528 786 528 786 575 772 c 1,44,-1
 397 772 l 1,45,46
 444 786 444 786 463 868 c 1,47,-1
 559 1321 l 2,48,49
 575 1397 575 1397 526 1409 c 1,50,-1
 791 1409 l 2,51,52
 862 1409 862 1409 913 1382 c 0,53,54
 975 1348 975 1348 975 1282 c 0,31,32
879 1276 m 0,55,56
 879 1374 879 1374 733 1374 c 0,57,58
 692 1374 692 1374 649 1360 c 1,59,-1
 600 1120 l 1,60,61
 729 1122 729 1122 762 1130 c 0,62,63
 856 1153 856 1153 874 1241 c 1,64,65
 879 1260 879 1260 879 1276 c 0,55,56
EndSplineSet
EndChar

StartChar: degree
Encoding: 100 176 103
Width: 766
Flags: W
LayerCount: 2
Fore
SplineSet
541 1382 m 0,0,1
 541 1284 541 1284 475.5 1218.5 c 128,-1,2
 410 1153 410 1153 311 1153 c 0,3,4
 217 1153 217 1153 149.5 1220.5 c 128,-1,5
 82 1288 82 1288 82 1382 c 0,6,7
 82 1477 82 1477 149.5 1544.5 c 128,-1,8
 217 1612 217 1612 311 1612 c 0,9,10
 406 1612 406 1612 473.5 1544.5 c 128,-1,11
 541 1477 541 1477 541 1382 c 0,0,1
502 1382 m 0,12,13
 502 1462 502 1462 446.5 1517.5 c 128,-1,14
 391 1573 391 1573 311 1573 c 0,15,16
 233 1573 233 1573 177 1516.5 c 128,-1,17
 121 1460 121 1460 121 1382 c 0,18,19
 121 1305 121 1305 177 1248.5 c 128,-1,20
 233 1192 233 1192 311 1192 c 256,21,22
 389 1192 389 1192 445.5 1248.5 c 128,-1,23
 502 1305 502 1305 502 1382 c 0,12,13
EndSplineSet
EndChar

StartChar: paragraph
Encoding: 101 182 104
Width: 1104
Flags: W
LayerCount: 2
Fore
SplineSet
1057 1638 m 1,0,-1
 612 12 l 1,1,-1
 535 12 l 1,2,-1
 952 1548 l 1,3,-1
 756 1548 l 1,4,-1
 334 6 l 1,5,-1
 256 6 l 1,6,-1
 547 1073 l 1,7,8
 453 1077 453 1077 390.5 1134.5 c 128,-1,9
 328 1192 328 1192 328 1284 c 0,10,11
 328 1362 328 1362 377 1446 c 0,12,13
 487 1634 487 1634 696 1636 c 2,14,-1
 1057 1638 l 1,0,-1
EndSplineSet
EndChar

StartChar: periodcentered
Encoding: 102 183 105
Width: 428
Flags: W
LayerCount: 2
Fore
SplineSet
465 588 m 0,0,1
 465 539 465 539 438 494 c 1,2,3
 408 438 408 438 362 438 c 0,4,5
 268 438 268 438 268 522 c 0,6,7
 268 578 268 578 309 627 c 128,-1,8
 350 676 350 676 403 676 c 0,9,10
 465 676 465 676 465 588 c 0,0,1
EndSplineSet
EndChar

StartChar: quoteleft
Encoding: 108 8216 106
Width: 621
Flags: W
LayerCount: 2
Fore
SplineSet
555 1341 m 1,0,-1
 537 1284 l 1,1,2
 334 1219 334 1219 254 1061 c 1,3,-1
 311 1024 l 1,4,5
 350 1026 350 1026 379 1000.5 c 128,-1,6
 408 975 408 975 408 936 c 0,7,8
 408 866 408 866 347.5 808 c 128,-1,9
 287 750 287 750 217 750 c 0,10,11
 100 750 100 750 100 868 c 0,12,13
 100 1028 100 1028 254 1169 c 0,14,15
 385 1290 385 1290 555 1341 c 1,0,-1
EndSplineSet
EndChar

StartChar: quoteright
Encoding: 109 8217 107
Width: 537
Flags: W
LayerCount: 2
Fore
SplineSet
473 1204 m 0,0,1
 473 1047 473 1047 322 905 c 0,2,3
 190 782 190 782 23 733 c 1,4,-1
 41 791 l 1,5,6
 250 864 250 864 319 1024 c 1,7,-1
 262 1049 l 1,8,9
 172 1053 172 1053 172 1135 c 0,10,11
 172 1204 172 1204 228.5 1263.5 c 128,-1,12
 285 1323 285 1323 354 1323 c 0,13,14
 473 1323 473 1323 473 1204 c 0,0,1
EndSplineSet
EndChar

StartChar: quotedblleft
Encoding: 110 8220 108
Width: 1122
Flags: W
LayerCount: 2
Fore
SplineSet
1169 1260 m 1,0,-1
 1151 1202 l 1,1,2
 948 1137 948 1137 868 979 c 1,3,-1
 926 942 l 1,4,5
 965 944 965 944 993.5 918.5 c 128,-1,6
 1022 893 1022 893 1022 854 c 0,7,8
 1022 784 1022 784 961.5 726 c 128,-1,9
 901 668 901 668 831 668 c 0,10,11
 715 668 715 668 715 786 c 0,12,13
 715 946 715 946 868 1087 c 0,14,15
 999 1208 999 1208 1169 1260 c 1,0,-1
670 1257 m 1,16,-1
 651 1200 l 1,17,18
 453 1135 453 1135 377 975 c 1,19,-1
 430 938 l 1,20,21
 467 938 467 938 493.5 914.5 c 128,-1,22
 520 891 520 891 520 854 c 0,23,24
 520 782 520 782 464 724 c 128,-1,25
 408 666 408 666 336 666 c 0,26,27
 223 666 223 666 223 786 c 0,28,29
 223 944 223 944 373 1085 c 0,30,31
 502 1206 502 1206 670 1257 c 1,16,-1
EndSplineSet
EndChar

StartChar: quotedblright
Encoding: 111 8221 109
Width: 1155
Flags: W
LayerCount: 2
Fore
SplineSet
1149 1102 m 0,0,1
 1149 944 1149 944 997 803 c 1,2,3
 866 680 866 680 698 631 c 1,4,-1
 717 688 l 1,5,6
 926 762 926 762 995 922 c 1,7,-1
 938 946 l 1,8,9
 848 950 848 950 848 1032 c 0,10,11
 848 1102 848 1102 904.5 1161.5 c 128,-1,12
 961 1221 961 1221 1030 1221 c 0,13,14
 1149 1221 1149 1221 1149 1102 c 0,0,1
649 1094 m 0,15,16
 649 930 649 930 502 793 c 1,17,18
 375 672 375 672 203 623 c 1,19,-1
 221 682 l 1,20,21
 410 743 410 743 494 911 c 1,22,-1
 442 940 l 1,23,24
 350 944 350 944 350 1028 c 0,25,26
 350 1098 350 1098 407.5 1157.5 c 128,-1,27
 465 1217 465 1217 535 1217 c 0,28,29
 649 1217 649 1217 649 1094 c 0,15,16
EndSplineSet
EndChar

StartChar: bullet
Encoding: 112 8226 110
Width: 1491
Flags: W
LayerCount: 2
Fore
SplineSet
1202 616 m 0,0,1
 1202 465 1202 465 1006 348 c 1,2,3
 829 244 829 244 668 244 c 0,4,5
 545 244 545 244 438 297 c 1,6,7
 305 365 305 365 305 477 c 0,8,9
 305 502 305 502 317 537 c 1,10,11
 369 676 369 676 537 762 c 1,12,13
 686 840 686 840 848 840 c 0,14,15
 977 840 977 840 1075 793 c 0,16,17
 1202 731 1202 731 1202 616 c 0,0,1
EndSplineSet
EndChar

StartChar: H18543
Encoding: 114 9642 111
Width: 1452
Flags: W
LayerCount: 2
Fore
SplineSet
1214 819 m 1,0,-1
 991 248 l 1,1,-1
 319 248 l 1,2,-1
 543 819 l 1,3,-1
 1214 819 l 1,0,-1
EndSplineSet
EndChar

StartChar: ellipsis
Encoding: 113 8230 112
Width: 1178
Flags: W
LayerCount: 2
Fore
SplineSet
1094 84 m 256,0,1
 1094 41 1094 41 1065 9 c 128,-1,2
 1036 -23 1036 -23 993 -23 c 0,3,4
 952 -23 952 -23 924.5 10 c 128,-1,5
 897 43 897 43 897 84 c 0,6,7
 897 127 897 127 924.5 158.5 c 128,-1,8
 952 190 952 190 993 190 c 0,9,10
 1036 190 1036 190 1065 158.5 c 128,-1,11
 1094 127 1094 127 1094 84 c 256,0,1
711 84 m 0,12,13
 711 41 711 41 680 9 c 128,-1,14
 649 -23 649 -23 606 -23 c 0,15,16
 565 -23 565 -23 534.5 10 c 128,-1,17
 504 43 504 43 504 84 c 256,18,19
 504 125 504 125 534.5 160 c 128,-1,20
 565 195 565 195 606 195 c 0,21,22
 651 195 651 195 681 162 c 128,-1,23
 711 129 711 129 711 84 c 0,12,13
311 82 m 0,24,25
 311 41 311 41 281.5 8 c 128,-1,26
 252 -25 252 -25 211 -25 c 0,27,28
 168 -25 168 -25 138.5 7 c 128,-1,29
 109 39 109 39 109 82 c 256,30,31
 109 125 109 125 138.5 157.5 c 128,-1,32
 168 190 168 190 211 190 c 0,33,34
 252 190 252 190 281.5 157.5 c 128,-1,35
 311 125 311 125 311 82 c 0,24,25
EndSplineSet
EndChar

StartChar: afii57929
Encoding: 103 700 113
Width: 465
Flags: W
LayerCount: 2
Fore
SplineSet
387 1296 m 0,0,1
 387 1180 387 1180 242 1044 c 1,2,3
 133 944 133 944 -8 868 c 1,4,-1
 18 958 l 1,5,6
 217 1069 217 1069 238 1163 c 1,7,-1
 221 1192 l 1,8,9
 168 1174 168 1174 131 1174 c 0,10,11
 102 1174 102 1174 82.5 1200.5 c 128,-1,12
 63 1227 63 1227 63 1257 c 0,13,14
 63 1317 63 1317 133 1362 c 0,15,16
 195 1403 195 1403 258 1403 c 0,17,18
 307 1403 307 1403 347 1373 c 128,-1,19
 387 1343 387 1343 387 1296 c 0,0,1
EndSplineSet
EndChar

StartChar: macronlowmod
Encoding: 104 717 114
Width: 991
Flags: W
LayerCount: 2
Fore
SplineSet
836 164 m 1,0,-1
 795 0 l 1,1,-1
 106 0 l 1,2,-1
 145 164 l 1,3,-1
 836 164 l 1,0,-1
EndSplineSet
EndChar

StartChar: uniA4D0
Encoding: 118 42192 115
Width: 1006
Flags: W
LayerCount: 2
Fore
SplineSet
999 897 m 0,0,1
 999 719 999 719 725 598 c 1,2,-1
 698 549 l 1,3,4
 821 477 821 477 821 336 c 0,5,6
 821 182 821 182 643 74 c 0,7,8
 487 -20 487 -20 324 -20 c 0,9,10
 115 -20 115 -20 115 98 c 0,11,12
 115 119 115 119 123 158 c 0,13,14
 154 307 154 307 258 575 c 1,15,16
 365 856 365 856 397 993 c 1,17,-1
 231 932 l 1,18,19
 215 930 215 930 215 948 c 0,20,21
 215 1063 215 1063 375 1114 c 1,22,23
 481 1149 481 1149 629 1149 c 0,24,25
 756 1149 756 1149 866 1087 c 1,26,27
 999 1014 999 1014 999 897 c 0,0,1
831 879 m 0,28,29
 831 950 831 950 754 993 c 0,30,31
 688 1030 688 1030 610 1030 c 0,32,33
 578 1030 578 1030 446 999 c 1,34,35
 555 950 555 950 555 944 c 0,36,37
 555 934 555 934 532 893 c 0,38,39
 444 731 444 731 381 518 c 1,40,41
 344 389 344 389 270 129 c 1,42,43
 309 88 309 88 352 88 c 0,44,45
 467 88 467 88 564.5 169 c 128,-1,46
 662 250 662 250 662 362 c 0,47,48
 662 424 662 424 581 487.5 c 128,-1,49
 500 551 500 551 500 567 c 0,50,51
 500 633 500 633 586 674 c 0,52,53
 631 696 631 696 745 745 c 1,54,55
 831 797 831 797 831 879 c 0,28,29
EndSplineSet
EndChar

StartChar: uniA4D1
Encoding: 119 42193 116
Width: 1040
Flags: W
LayerCount: 2
Fore
SplineSet
1032 862 m 0,0,1
 1032 614 1032 614 797 475 c 0,2,3
 623 373 623 373 338 340 c 1,4,5
 254 16 254 16 217 -6 c 1,6,7
 188 -25 188 -25 156 -25 c 0,8,9
 135 -25 135 -25 111.5 -8.5 c 128,-1,10
 88 8 88 8 88 29 c 0,11,12
 88 86 88 86 135 186 c 0,13,14
 186 297 186 297 199 344 c 1,15,16
 145 373 145 373 145 414 c 0,17,18
 145 500 145 500 244 510 c 1,19,-1
 338 745 l 1,20,21
 383 874 383 874 393 993 c 1,22,23
 336 969 336 969 254 938 c 1,24,25
 215 940 215 940 215 979 c 0,26,27
 215 1069 215 1069 383 1118 c 0,28,29
 500 1153 500 1153 627 1153 c 0,30,31
 791 1153 791 1153 899 1092 c 0,32,33
 1032 1016 1032 1016 1032 862 c 0,0,1
897 840 m 0,34,35
 897 928 897 928 813 979 c 1,36,37
 741 1024 741 1024 649 1024 c 0,38,39
 604 1024 604 1024 481 1008 c 1,40,41
 543 938 543 938 543 928 c 0,42,43
 543 864 543 864 476.5 738 c 128,-1,44
 410 612 410 612 410 547 c 0,45,46
 410 532 410 532 414 473 c 1,47,48
 584 487 584 487 727 578 c 1,49,50
 897 684 897 684 897 840 c 0,34,35
EndSplineSet
EndChar

StartChar: uniA4D2
Encoding: 120 42194 117
Width: 1034
Flags: W
LayerCount: 2
Fore
SplineSet
985 1106 m 0,0,1
 985 1028 985 1028 932 907 c 1,2,3
 854 733 854 733 850 713 c 1,4,5
 905 686 905 686 905 645 c 0,6,7
 905 557 905 557 807 551 c 1,8,9
 719 336 719 336 698 150 c 1,10,11
 788 176 788 176 836 201 c 1,12,13
 877 197 877 197 877 160 c 0,14,15
 877 70 877 70 711 20 c 1,16,17
 588 -16 588 -16 469 -16 c 0,18,19
 307 -16 307 -16 195 51 c 0,20,21
 61 131 61 131 61 283 c 0,22,23
 61 729 61 729 690 719 c 1,24,25
 709 791 709 791 766 944 c 0,26,27
 834 1126 834 1126 858 1139 c 0,28,29
 891 1157 891 1157 918 1157 c 0,30,31
 942 1157 942 1157 963.5 1142.5 c 128,-1,32
 985 1128 985 1128 985 1106 c 0,0,1
647 541 m 0,33,34
 647 567 647 567 627 590 c 1,35,36
 631 592 631 592 539 592 c 0,37,38
 496 592 496 592 416 559 c 0,39,40
 307 514 307 514 264 459 c 1,41,42
 217 397 217 397 217 285 c 0,43,44
 217 102 217 102 444 102 c 0,45,46
 467 102 467 102 641 135 c 1,47,48
 551 188 551 188 551 213 c 0,49,50
 551 276 551 276 599 403 c 128,-1,51
 647 530 647 530 647 541 c 0,33,34
EndSplineSet
EndChar

StartChar: uniA4D3
Encoding: 121 42195 118
Width: 1106
Flags: W
LayerCount: 2
Fore
SplineSet
1047 795 m 0,0,1
 1047 659 1047 659 969 414 c 0,2,3
 956 371 956 371 913 264 c 1,4,5
 836 94 836 94 612 27 c 0,6,7
 465 -18 465 -18 215 -18 c 0,8,9
 152 -18 152 -18 132.5 3.5 c 128,-1,10
 113 25 113 25 111 90.5 c 128,-1,11
 109 156 109 156 109 215 c 0,12,13
 109 334 109 334 255 590 c 128,-1,14
 401 846 401 846 401 934 c 0,15,16
 401 971 401 971 348 987 c 1,17,18
 281 930 281 930 240 930 c 0,19,20
 225 930 225 930 202.5 943 c 128,-1,21
 180 956 180 956 180 971 c 0,22,23
 180 1061 180 1061 348 1116 c 0,24,25
 477 1159 477 1159 592 1159 c 0,26,27
 782 1159 782 1159 905 1073 c 1,28,29
 1047 977 1047 977 1047 795 c 0,0,1
891 795 m 0,30,31
 891 913 891 913 803 977 c 1,32,33
 725 1030 725 1030 600 1030 c 0,34,35
 555 1030 555 1030 457 1001 c 1,36,37
 535 963 535 963 535 940 c 0,38,39
 535 821 535 821 399 580 c 1,40,41
 338 469 338 469 262 229 c 0,42,43
 248 184 248 184 248 162 c 0,44,45
 248 88 248 88 373 88 c 0,46,47
 426 88 426 88 541 135 c 0,48,49
 586 154 586 154 694 219 c 1,50,51
 782 293 782 293 840 485 c 0,52,53
 891 655 891 655 891 795 c 0,30,31
EndSplineSet
EndChar

StartChar: uniA4D4
Encoding: 122 42196 119
Width: 1030
Flags: W
LayerCount: 2
Fore
SplineSet
1130 1071 m 0,0,1
 1130 1001 1130 1001 1006 1001 c 0,2,3
 854 1001 854 1001 637 1020 c 1,4,5
 764 948 764 948 764 938 c 0,6,7
 764 911 764 911 645 590 c 0,8,9
 575 403 575 403 500 184 c 1,10,11
 494 156 494 156 477 61 c 1,12,13
 455 -25 455 -25 412 -25 c 0,14,15
 297 -25 297 -25 297 18 c 0,16,17
 297 88 297 88 444 492 c 1,18,19
 477 578 477 578 618 1010 c 1,20,21
 557 1010 557 1010 436 1005.5 c 128,-1,22
 315 1001 315 1001 254 1001 c 0,23,24
 205 1001 205 1001 205 1051 c 0,25,26
 205 1083 205 1083 236 1128 c 0,27,28
 248 1145 248 1145 430 1145 c 1,29,30
 412 1145 412 1145 553 1143 c 1,31,32
 723 1143 723 1143 942 1141 c 0,33,34
 1130 1139 1130 1139 1130 1071 c 0,0,1
EndSplineSet
EndChar

StartChar: uniA4D5
Encoding: 123 42197 120
Width: 1075
Flags: W
LayerCount: 2
Fore
SplineSet
936 80 m 0,0,1
 936 -10 936 -10 834 -10 c 0,2,3
 819 -10 819 -10 792.5 -8 c 128,-1,4
 766 -6 766 -6 752 -6 c 2,5,-1
 616 -6 l 2,6,7
 588 -6 588 -6 537 -4 c 1,8,9
 498 -4 498 -4 481 -4 c 0,10,11
 438 -4 438 -4 342 -6 c 0,12,13
 227 -8 227 -8 201 -8 c 0,14,15
 -20 -4 -20 -4 -20 41 c 0,16,17
 -20 135 -20 135 145 135 c 0,18,19
 176 135 176 135 235.5 132 c 128,-1,20
 295 129 295 129 326 129 c 0,21,22
 336 129 336 129 475 133 c 1,23,24
 367 193 367 193 367 205 c 256,25,26
 367 217 367 217 451 453 c 1,27,28
 543 707 543 707 551 737 c 0,29,30
 623 983 623 983 664 1102 c 0,31,32
 684 1163 684 1163 719 1163 c 0,33,34
 831 1163 831 1163 831 1114 c 0,35,36
 831 983 831 983 698 627 c 0,37,38
 635 461 635 461 506 127 c 1,39,40
 741 135 741 135 887 135 c 0,41,42
 936 135 936 135 936 80 c 0,0,1
EndSplineSet
EndChar

StartChar: uniA4D6
Encoding: 124 42198 121
Width: 1120
Flags: W
LayerCount: 2
Fore
SplineSet
1096 934 m 0,0,1
 1096 887 1096 887 1060 831.5 c 128,-1,2
 1024 776 1024 776 979 776 c 0,3,4
 930 776 930 776 897 834 c 1,5,6
 948 922 948 922 948 934 c 0,7,8
 948 971 948 971 916.5 995.5 c 128,-1,9
 885 1020 885 1020 846 1020 c 0,10,11
 653 1020 653 1020 582 983 c 1,12,13
 524 954 524 954 469 879 c 1,14,15
 350 721 350 721 303 614 c 1,16,17
 240 475 240 475 240 315 c 0,18,19
 240 229 240 229 295 173 c 128,-1,20
 350 117 350 117 436 117 c 2,21,-1
 506 117 l 2,22,23
 614 117 614 117 690 227 c 0,24,25
 758 326 758 326 760 442 c 1,26,27
 676 420 676 420 592 420 c 0,28,29
 545 420 545 420 545 453 c 0,30,31
 545 524 545 524 659 545 c 0,32,33
 707 553 707 553 831 553 c 0,34,35
 999 553 999 553 999 492 c 0,36,37
 999 438 999 438 856 444 c 1,38,39
 903 389 903 389 903 373 c 0,40,41
 903 238 903 238 758.5 111 c 128,-1,42
 614 -16 614 -16 477 -16 c 0,43,44
 334 -16 334 -16 217 61 c 1,45,46
 88 150 88 150 88 287 c 0,47,48
 88 518 88 518 203 741 c 1,49,50
 319 973 319 973 508 1096 c 0,51,52
 600 1155 600 1155 866 1155 c 0,53,54
 973 1155 973 1155 1034.5 1097.5 c 128,-1,55
 1096 1040 1096 1040 1096 934 c 0,0,1
EndSplineSet
EndChar

StartChar: uniA4D7
Encoding: 125 42199 122
Width: 1071
Flags: W
LayerCount: 2
Fore
SplineSet
1104 1071 m 0,0,1
 1104 1042 1104 1042 1018 924 c 0,2,3
 750 551 750 551 498 475 c 1,4,5
 559 403 559 403 680 240 c 1,6,7
 823 45 823 45 823 8 c 0,8,9
 823 -37 823 -37 770 -37 c 0,10,11
 696 -37 696 -37 569 150 c 0,12,13
 418 373 418 373 385 399 c 1,14,15
 352 356 352 356 288.5 181 c 128,-1,16
 225 6 225 6 217 -2 c 0,17,18
 195 -23 195 -23 172 -23 c 0,19,20
 92 -23 92 -23 92 18 c 0,21,22
 92 100 92 100 143 223 c 1,23,24
 172 289 172 289 229 422 c 1,25,26
 160 453 160 453 160 481 c 0,27,28
 160 567 160 567 266 557 c 1,29,30
 307 745 307 745 336 852 c 0,31,32
 375 993 375 993 387 1026 c 1,33,34
 436 1147 436 1147 504 1147 c 0,35,36
 567 1147 567 1147 567 1094 c 0,37,38
 567 1014 567 1014 510 846 c 1,39,40
 436 633 436 633 426 588 c 1,41,42
 588 637 588 637 725 772 c 1,43,44
 854 897 854 897 930 1063 c 0,45,46
 944 1094 944 1094 967 1128 c 1,47,48
 989 1153 989 1153 1022 1153 c 0,49,50
 1104 1153 1104 1153 1104 1071 c 0,0,1
EndSplineSet
EndChar

StartChar: uniA4D8
Encoding: 126 42200 123
Width: 1069
Flags: W
LayerCount: 2
Fore
SplineSet
1073 1106 m 0,0,1
 1073 1055 1073 1055 1008 911 c 1,2,-1
 915 711 l 1,3,4
 983 680 983 680 983 647 c 0,5,6
 983 567 983 567 901 567 c 0,7,8
 891 567 891 567 879 569 c 1,9,-1
 801 233 l 1,10,11
 725 -16 725 -16 637 -16 c 0,12,13
 555 -16 555 -16 555 39 c 0,14,15
 555 59 555 59 575 113 c 1,16,17
 670 354 670 354 709 535 c 1,18,19
 580 496 580 496 440.5 373 c 128,-1,20
 301 250 301 250 248 127 c 0,21,22
 233 92 233 92 221 57 c 1,23,24
 203 12 203 12 182 -4 c 0,25,26
 156 -25 156 -25 127 -25 c 0,27,28
 41 -25 41 -25 41 61 c 0,29,30
 41 96 41 96 123 211 c 0,31,32
 387 582 387 582 635 655 c 1,33,34
 557 743 557 743 455 885 c 1,35,36
 319 1071 319 1071 319 1116 c 0,37,38
 319 1165 319 1165 373 1165 c 0,39,40
 451 1165 451 1165 573 983 c 0,41,42
 723 760 723 760 754 735 c 1,43,44
 807 805 807 805 854 930 c 0,45,46
 915 1092 915 1092 938 1133 c 1,47,48
 963 1153 963 1153 1010 1153 c 0,49,50
 1073 1153 1073 1153 1073 1106 c 0,0,1
EndSplineSet
EndChar

StartChar: uniA4D9
Encoding: 127 42201 124
Width: 940
Flags: W
LayerCount: 2
Fore
SplineSet
930 1096 m 0,0,1
 930 997 930 997 791 614 c 0,2,3
 664 264 664 264 592 133 c 0,4,5
 510 -18 510 -18 391 -18 c 0,6,7
 61 -18 61 -18 61 182 c 0,8,9
 61 375 61 375 209 375 c 0,10,11
 231 375 231 375 244 369 c 1,12,13
 242 344 242 344 186 221 c 1,14,15
 207 98 207 98 356 98 c 0,16,17
 457 98 457 98 541 338 c 0,18,19
 559 391 559 391 668 805 c 0,20,21
 739 1075 739 1075 795 1120 c 0,22,23
 831 1149 831 1149 864 1149 c 0,24,25
 930 1149 930 1149 930 1096 c 0,0,1
EndSplineSet
EndChar

StartChar: uniA4DA
Encoding: 128 42202 125
Width: 997
Flags: W
LayerCount: 2
Fore
SplineSet
975 958 m 0,0,1
 975 897 975 897 954 846 c 1,2,3
 928 776 928 776 877 776 c 0,4,5
 805 776 805 776 791 821 c 1,6,7
 834 907 834 907 834 958 c 0,8,9
 834 1038 834 1038 743 1038 c 0,10,11
 543 1038 543 1038 375 748 c 1,12,13
 225 487 225 487 225 272 c 0,14,15
 225 90 225 90 420 90 c 0,16,17
 518 90 518 90 580 164 c 0,18,19
 596 182 596 182 662 301 c 0,20,21
 702 375 702 375 750 375 c 0,22,23
 823 375 823 375 823 319 c 0,24,25
 823 252 823 252 735 143 c 1,26,27
 651 45 651 45 582.5 11 c 128,-1,28
 514 -23 514 -23 451 -23 c 0,29,30
 432 -23 432 -23 394 -20.5 c 128,-1,31
 356 -18 356 -18 338 -18 c 0,32,33
 205 -18 205 -18 137 82 c 0,34,35
 80 166 80 166 80 305 c 0,36,37
 80 604 80 604 274 872 c 0,38,39
 485 1165 485 1165 772 1165 c 0,40,41
 975 1165 975 1165 975 958 c 0,0,1
EndSplineSet
EndChar

StartChar: uniA4DB
Encoding: 129 42203 126
Width: 1085
Flags: W
LayerCount: 2
Fore
SplineSet
1032 836 m 0,0,1
 1032 547 1032 547 846 279 c 0,2,3
 639 -18 639 -18 365 -18 c 0,4,5
 238 -18 238 -18 155 59.5 c 128,-1,6
 72 137 72 137 72 264 c 0,7,8
 72 315 72 315 101.5 353 c 128,-1,9
 131 391 131 391 180 391 c 0,10,11
 248 391 248 391 256 338 c 1,12,13
 242 289 242 289 242 219 c 0,14,15
 242 168 242 168 279.5 141.5 c 128,-1,16
 317 115 317 115 369 115 c 0,17,18
 563 115 563 115 729 401 c 0,19,20
 877 657 877 657 877 870 c 0,21,22
 877 1036 877 1036 733 1036 c 0,23,24
 569 1036 569 1036 395 840 c 0,25,26
 383 825 383 825 362 807 c 1,27,28
 348 797 348 797 322 797 c 0,29,30
 293 797 293 797 268.5 815.5 c 128,-1,31
 244 834 244 834 244 860 c 0,32,33
 244 868 244 868 272 909 c 2,34,-1
 340 1006 l 2,35,36
 391 1079 391 1079 539 1124 c 0,37,38
 662 1161 662 1161 774 1161 c 0,39,40
 907 1161 907 1161 975 1061 c 1,41,42
 1032 975 1032 975 1032 836 c 0,0,1
EndSplineSet
EndChar

StartChar: uniA4DC
Encoding: 130 42204 127
Width: 1010
Flags: W
LayerCount: 2
Fore
SplineSet
1030 1038 m 2,0,1
 1030 995 1030 995 643 606 c 0,2,3
 203 164 203 164 162 113 c 1,4,5
 334 127 334 127 678 152 c 1,6,-1
 678 172 l 1,7,8
 766 117 766 117 766 100 c 0,9,10
 766 0 766 0 567 0 c 0,11,12
 512 0 512 0 512 0 c 2,13,14
 500 0 500 0 483 2 c 1,15,16
 469 2 469 2 467 2 c 0,17,18
 412 2 412 2 304.5 -2 c 128,-1,19
 197 -6 197 -6 141 -6 c 0,20,21
 4 -6 4 -6 4 109 c 0,22,23
 4 152 4 152 389 537 c 1,24,-1
 866 1016 l 1,25,26
 782 1016 782 1016 615.5 991.5 c 128,-1,27
 449 967 449 967 365 967 c 0,28,29
 315 967 315 967 315 1055 c 0,30,31
 315 1141 315 1141 424 1141 c 2,32,-1
 915 1141 l 2,33,34
 973 1141 973 1141 997 1128 c 1,35,36
 1030 1112 1030 1112 1030 1059 c 2,37,-1
 1030 1038 l 2,0,1
EndSplineSet
EndChar

StartChar: uniA4DD
Encoding: 131 42205 128
Width: 958
Flags: W
LayerCount: 2
Fore
SplineSet
1083 1073 m 0,0,1
 1083 1016 1083 1016 1008 999 c 0,2,3
 973 991 973 991 870 989 c 0,4,5
 795 987 795 987 680 989 c 2,6,-1
 526 991 l 1,7,8
 557 944 557 944 559 940 c 1,9,10
 551 915 551 915 504 774 c 1,11,12
 444 598 444 598 436 563 c 1,13,14
 485 563 485 563 580.5 566 c 128,-1,15
 676 569 676 569 725 569 c 0,16,17
 750 569 750 569 778.5 555 c 128,-1,18
 807 541 807 541 807 518 c 0,19,20
 807 463 807 463 788.5 442.5 c 128,-1,21
 770 422 770 422 717 422 c 0,22,23
 674 422 674 422 590 425 c 128,-1,24
 506 428 506 428 463 428 c 0,25,26
 451 428 451 428 381 424 c 1,27,28
 350 340 350 340 322 256 c 1,29,30
 287 156 287 156 272 84 c 1,31,32
 254 -12 254 -12 186 -12 c 0,33,34
 98 -12 98 -12 98 41 c 0,35,36
 98 125 98 125 221 410 c 1,37,38
 168 424 168 424 168 446 c 0,39,40
 168 553 168 553 276 565 c 1,41,42
 315 729 315 729 426 981 c 1,43,44
 293 989 293 989 293 1032 c 0,45,46
 293 1145 293 1145 449 1145 c 2,47,-1
 985 1145 l 2,48,49
 1020 1145 1020 1145 1051.5 1125.5 c 128,-1,50
 1083 1106 1083 1106 1083 1073 c 0,0,1
EndSplineSet
EndChar

StartChar: uniA4DE
Encoding: 132 42206 129
Width: 981
Flags: W
LayerCount: 2
Fore
SplineSet
948 1104 m 0,0,1
 948 1004 948 1004 885 862 c 0,2,3
 850 784 850 784 778 629 c 1,4,5
 844 612 844 612 844 594 c 0,6,7
 844 498 844 498 737 487 c 1,8,9
 692 301 692 301 623 143 c 1,10,11
 743 137 743 137 743 92 c 0,12,13
 743 29 743 29 696 10 c 0,14,15
 670 0 670 0 594 0 c 0,16,17
 514 0 514 0 352 4 c 128,-1,18
 190 8 190 8 111 8 c 0,19,20
 10 8 10 8 10 59 c 0,21,22
 10 137 10 137 150 137 c 0,23,24
 164 137 164 137 190.5 134 c 128,-1,25
 217 131 217 131 231 131 c 2,26,-1
 504 131 l 1,27,28
 487 162 487 162 487 180 c 0,29,30
 487 231 487 231 528 333.5 c 128,-1,31
 569 436 569 436 569 475 c 2,32,-1
 569 489 l 1,33,34
 518 489 518 489 416.5 487 c 128,-1,35
 315 485 315 485 264 485 c 0,36,37
 215 485 215 485 215 522 c 0,38,39
 215 578 215 578 233.5 598 c 128,-1,40
 252 618 252 618 305 618 c 256,41,42
 358 618 358 618 462.5 615 c 128,-1,43
 567 612 567 612 621 612 c 1,44,45
 645 727 645 727 756 1065 c 0,46,47
 786 1159 786 1159 856 1159 c 0,48,49
 948 1159 948 1159 948 1104 c 0,0,1
EndSplineSet
EndChar

StartChar: uniA4DF
Encoding: 133 42207 130
Width: 1436
Flags: W
LayerCount: 2
Fore
SplineSet
1370 1038 m 0,0,1
 1370 811 1370 811 1300 569 c 0,2,3
 1157 70 1157 70 1108 18 c 0,4,5
 1073 -18 1073 -18 1044 -18 c 0,6,7
 952 -18 952 -18 952 16 c 0,8,9
 952 78 952 78 1047 266 c 1,10,11
 1214 705 1214 705 1214 973 c 1,12,13
 1141 813 1141 813 1032 666 c 0,14,15
 907 496 907 496 782 416 c 0,16,17
 731 383 731 383 711 383 c 0,18,19
 657 383 657 383 623 496 c 0,20,21
 602 567 602 567 541 754 c 1,22,23
 532 776 532 776 477 911 c 1,24,25
 453 819 453 819 326 428 c 1,26,27
 193 14 193 14 180 6 c 0,28,29
 160 -6 160 -6 119 -6 c 0,30,31
 47 -6 47 -6 47 63 c 0,32,33
 47 133 47 133 84 223 c 0,34,35
 106 274 106 274 150 379 c 1,36,37
 195 522 195 522 291 805 c 1,38,39
 412 1139 412 1139 504 1139 c 0,40,41
 541 1139 541 1139 575 1122 c 1,42,43
 621 1104 621 1104 621 1071 c 0,44,45
 621 1061 621 1061 614.5 1042.5 c 128,-1,46
 608 1024 608 1024 608 1016 c 0,47,48
 608 997 608 997 624.5 968.5 c 128,-1,49
 641 940 641 940 643 930 c 0,50,51
 649 889 649 889 670 782 c 0,52,53
 672 772 672 772 750 547 c 1,54,55
 842 633 842 633 864 655 c 0,56,57
 928 719 928 719 969 779.5 c 128,-1,58
 1010 840 1010 840 1071 946 c 1,59,-1
 1149 1079 l 1,60,61
 1206 1159 1206 1159 1268 1159 c 0,62,63
 1329 1159 1329 1159 1349.5 1131.5 c 128,-1,64
 1370 1104 1370 1104 1370 1038 c 0,0,1
EndSplineSet
EndChar

StartChar: uniA4E0
Encoding: 134 42208 131
Width: 1157
Flags: W
LayerCount: 2
Fore
SplineSet
1153 1108 m 0,0,1
 1153 1063 1153 1063 1114 967 c 0,2,3
 1085 897 1085 897 1055 827 c 1,4,5
 1032 748 1032 748 969 543 c 1,6,7
 924 410 924 410 895 294 c 128,-1,8
 866 178 866 178 854 135 c 0,9,10
 817 2 817 2 797.5 -13.5 c 128,-1,11
 778 -29 778 -29 725 -29 c 0,12,13
 692 -29 692 -29 664 2 c 0,14,15
 649 18 649 18 578 453 c 0,16,17
 516 829 516 829 498 965 c 1,18,19
 375 647 375 647 279 354 c 1,20,21
 250 258 250 258 176 8 c 1,22,23
 154 -10 154 -10 129 -10 c 256,24,25
 104 -10 104 -10 76.5 5 c 128,-1,26
 49 20 49 20 49 45 c 0,27,28
 49 176 49 176 127 377 c 1,29,30
 166 469 166 469 256 713 c 1,31,32
 274 780 274 780 314 913.5 c 128,-1,33
 354 1047 354 1047 397 1094 c 128,-1,34
 440 1141 440 1141 485 1141 c 0,35,36
 555 1141 555 1141 590 1118 c 0,37,38
 608 1106 608 1106 678 686 c 0,39,40
 733 356 733 356 754 190 c 1,41,42
 770 336 770 336 858 688 c 0,43,44
 958 1090 958 1090 1014 1130 c 0,45,46
 1042 1151 1042 1151 1079 1151 c 0,47,48
 1153 1151 1153 1151 1153 1108 c 0,0,1
EndSplineSet
EndChar

StartChar: uniA4E1
Encoding: 135 42209 132
Width: 956
Flags: W
LayerCount: 2
Fore
SplineSet
795 86 m 0,0,1
 795 55 795 55 746.5 27.5 c 128,-1,2
 698 0 698 0 666 0 c 2,3,-1
 225 0 l 2,4,5
 86 0 86 0 86 86 c 0,6,7
 86 100 86 100 147 256 c 0,8,9
 186 356 186 356 285 655 c 1,10,11
 367 907 367 907 432 1049 c 1,12,13
 481 1153 481 1153 535 1153 c 0,14,15
 618 1153 618 1153 618 1114 c 0,16,17
 618 1040 618 1040 545 862 c 1,18,19
 489 735 489 735 381 483 c 0,20,21
 266 215 266 215 266 117 c 2,22,-1
 266 106 l 1,23,-1
 315 106 l 2,24,25
 387 106 387 106 530.5 131 c 128,-1,26
 674 156 674 156 745 156 c 0,27,28
 795 156 795 156 795 86 c 0,0,1
EndSplineSet
EndChar

StartChar: uniA4E2
Encoding: 136 42210 133
Width: 1055
Flags: W
LayerCount: 2
Fore
SplineSet
1049 1085 m 0,0,1
 1049 1001 1049 1001 1006 936 c 1,2,3
 954 862 954 862 874 862 c 0,4,5
 840 862 840 862 840 885 c 0,6,7
 840 915 840 915 865.5 975.5 c 128,-1,8
 891 1036 891 1036 895 1061 c 1,9,-1
 817 1010 l 1,10,11
 719 997 719 997 596 932 c 0,12,13
 449 854 449 854 449 774 c 0,14,15
 449 727 449 727 557 662 c 1,16,-1
 555 672 l 1,17,18
 694 594 694 594 743 557 c 0,19,20
 852 473 852 473 852 379 c 0,21,22
 852 197 852 197 659 80 c 1,23,24
 496 -20 496 -20 303 -20 c 0,25,26
 201 -20 201 -20 133 31 c 0,27,28
 59 86 59 86 59 184 c 0,29,30
 59 225 59 225 90 255 c 128,-1,31
 121 285 121 285 162 285 c 0,32,33
 221 285 221 285 221 242 c 0,34,35
 221 229 221 229 215 202.5 c 128,-1,36
 209 176 209 176 209 164 c 0,37,38
 209 125 209 125 240.5 101.5 c 128,-1,39
 272 78 272 78 311 78 c 0,40,41
 422 78 422 78 545 158 c 1,42,43
 682 244 682 244 682 348 c 0,44,45
 682 432 682 432 571 496 c 1,46,47
 504 530 504 530 369 604 c 1,48,49
 260 666 260 666 260 745 c 0,50,51
 260 770 260 770 287 836 c 0,52,53
 340 963 340 963 563 1065 c 0,54,55
 766 1157 766 1157 924 1157 c 0,56,57
 1049 1157 1049 1157 1049 1085 c 0,0,1
EndSplineSet
EndChar

StartChar: uniA4E3
Encoding: 137 42211 134
Width: 1057
Flags: W
LayerCount: 2
Fore
SplineSet
1022 864 m 0,0,1
 1022 690 1022 690 862 571 c 0,2,3
 733 475 733 475 541 438 c 1,4,5
 590 348 590 348 698 221 c 0,6,7
 829 68 829 68 864 12 c 1,8,9
 864 -12 864 -12 821 -31 c 0,10,11
 788 -45 788 -45 758 -45 c 0,12,13
 723 -45 723 -45 647 70 c 1,14,15
 596 145 596 145 578 166 c 2,16,-1
 457 301 l 1,17,18
 391 381 391 381 352 451 c 1,19,20
 279 295 279 295 252 207 c 1,21,22
 242 129 242 129 219 39 c 0,23,24
 209 -4 209 -4 137 -4 c 0,25,26
 53 -4 53 -4 53 31 c 0,27,28
 53 111 53 111 219 535 c 1,29,30
 334 825 334 825 438 1067 c 1,31,32
 289 897 289 897 270 897 c 0,33,34
 213 897 213 897 213 969 c 0,35,36
 213 1077 213 1077 367 1126 c 0,37,38
 469 1159 469 1159 610 1159 c 0,39,40
 780 1159 780 1159 889 1098 c 1,41,42
 1022 1022 1022 1022 1022 864 c 0,0,1
877 852 m 0,43,44
 877 940 877 940 788 993 c 1,45,46
 715 1038 715 1038 621 1038 c 0,47,48
 563 1038 563 1038 430 1008 c 1,49,50
 539 963 539 963 539 942 c 0,51,52
 539 901 539 901 512 840 c 1,53,54
 487 791 487 791 463 741 c 0,55,56
 403 610 403 610 373 428 c 1,57,58
 422 494 422 494 526 563 c 1,59,60
 657 571 657 571 760 645 c 1,61,62
 877 727 877 727 877 852 c 0,43,44
EndSplineSet
EndChar

StartChar: uniA4E4
Encoding: 138 42212 135
Width: 1124
Flags: W
LayerCount: 2
Fore
SplineSet
1077 1108 m 0,0,1
 1077 958 1077 958 700 86 c 1,2,3
 850 244 850 244 866 244 c 0,4,5
 922 244 922 244 922 172 c 0,6,7
 922 63 922 63 768 14 c 0,8,9
 662 -20 662 -20 524 -20 c 0,10,11
 356 -20 356 -20 248 47 c 0,12,13
 117 127 117 127 117 285 c 0,14,15
 117 463 117 463 285 582 c 1,16,17
 418 678 418 678 616 715 c 1,18,-1
 426 942 l 2,19,20
 270 1128 270 1128 270 1147 c 0,21,22
 270 1169 270 1169 315 1188 c 0,23,24
 354 1204 354 1204 381 1204 c 0,25,26
 416 1204 416 1204 473 1116 c 1,27,28
 473 1116 473 1116 522 1042 c 1,29,30
 614 930 614 930 797 702 c 1,31,32
 856 850 856 850 874 930 c 0,33,34
 883 969 883 969 900.5 1044.5 c 128,-1,35
 918 1120 918 1120 948 1137 c 1,36,37
 965 1145 965 1145 989 1145 c 0,38,39
 1077 1145 1077 1145 1077 1108 c 0,0,1
766 756 m 1,40,-1
 711 631 l 1,41,42
 662 592 662 592 625 584 c 1,43,44
 575 580 575 580 526 575 c 0,45,46
 426 565 426 565 346 478 c 128,-1,47
 266 391 266 391 266 291 c 0,48,49
 266 205 266 205 360 147 c 0,50,51
 442 96 442 96 532 96 c 0,52,53
 561 96 561 96 614.5 110.5 c 128,-1,54
 668 125 668 125 692 127 c 1,55,56
 592 178 592 178 592 197 c 0,57,58
 592 219 592 219 623 272 c 0,59,60
 725 453 725 453 766 756 c 1,40,-1
EndSplineSet
EndChar

StartChar: uniA4E5
Encoding: 139 42213 136
Width: 1030
Flags: W
LayerCount: 2
Fore
SplineSet
881 580 m 2,0,1
 881 41 881 41 831 -2 c 0,2,3
 811 -20 811 -20 776 -20 c 0,4,5
 745 -20 745 -20 711.5 0 c 128,-1,6
 678 20 678 20 678 49 c 0,7,8
 678 100 678 100 711 588 c 0,9,10
 719 717 719 717 727 983 c 1,11,12
 659 862 659 862 489 621 c 0,13,14
 326 389 326 389 260 254 c 2,15,-1
 195 119 l 2,16,17
 158 43 158 43 115 -10 c 1,18,19
 106 -12 106 -12 96 -12 c 0,20,21
 -6 -12 -6 -12 -6 59 c 0,22,23
 -6 104 -6 104 295 582.5 c 128,-1,24
 596 1061 596 1061 656.5 1113 c 128,-1,25
 717 1165 717 1165 784 1165 c 0,26,27
 879 1165 879 1165 879 1034 c 0,28,29
 879 1008 879 1008 879 940 c 1,30,31
 881 854 881 854 881 807 c 2,32,-1
 881 580 l 2,0,1
EndSplineSet
EndChar

StartChar: uniA4E6
Encoding: 140 42214 137
Width: 1067
Flags: W
LayerCount: 2
Fore
SplineSet
1139 1094 m 0,0,1
 1139 1051 1139 1051 822.5 581 c 128,-1,2
 506 111 506 111 432 35 c 0,3,4
 381 -16 381 -16 334 -16 c 0,5,6
 268 -16 268 -16 246 49 c 0,7,8
 233 86 233 86 233 170 c 0,9,10
 233 1049 233 1049 299 1120 c 1,11,12
 319 1143 319 1143 342 1143 c 0,13,14
 379 1143 379 1143 410.5 1123.5 c 128,-1,15
 442 1104 442 1104 442 1069 c 0,16,17
 442 1047 442 1047 406 786 c 1,18,19
 383 627 383 627 383 500 c 0,20,21
 383 444 383 444 386 331.5 c 128,-1,22
 389 219 389 219 389 164 c 1,23,24
 461 295 461 295 573 467 c 0,25,26
 698 657 698 657 764.5 764.5 c 128,-1,27
 831 872 831 872 1004 1157 c 1,28,29
 1020 1167 1020 1167 1040 1167 c 0,30,31
 1077 1167 1077 1167 1108 1147.5 c 128,-1,32
 1139 1128 1139 1128 1139 1094 c 0,0,1
EndSplineSet
EndChar

StartChar: uniA4E7
Encoding: 141 42215 138
Width: 1122
Flags: W
LayerCount: 2
Fore
SplineSet
1133 1104 m 0,0,1
 1133 973 1133 973 1034 721 c 1,2,3
 983 594 983 594 879 340 c 1,4,5
 866 297 866 297 836 172 c 1,6,7
 813 84 813 84 797 53 c 1,8,9
 762 -6 762 -6 696 -6 c 0,10,11
 635 -6 635 -6 635 27 c 0,12,13
 635 135 635 135 756 346 c 1,14,15
 762 395 762 395 797 487 c 1,16,-1
 725 516 l 1,17,18
 692 451 692 451 604 451 c 0,19,20
 592 451 592 451 570.5 454 c 128,-1,21
 549 457 549 457 537 457 c 0,22,23
 485 457 485 457 352 444 c 1,24,25
 297 238 297 238 217 4 c 1,26,27
 193 -6 193 -6 168 -6 c 0,28,29
 84 -6 84 -6 84 29 c 0,30,31
 84 113 84 113 129 238 c 0,32,33
 141 270 141 270 207 440 c 1,34,35
 113 449 113 449 113 475 c 0,36,37
 113 487 113 487 125 510 c 1,38,39
 143 553 143 553 174 561 c 1,40,41
 184 565 184 565 248 567 c 1,42,-1
 434 1092 l 2,43,44
 453 1143 453 1143 500 1143 c 0,45,46
 600 1143 600 1143 600 1096 c 0,47,48
 600 1036 600 1036 403 569 c 1,49,-1
 809 569 l 1,50,-1
 963 1065 l 1,51,52
 987 1147 987 1147 1040 1147 c 0,53,54
 1067 1147 1067 1147 1096 1139 c 1,55,56
 1133 1124 1133 1124 1133 1104 c 0,0,1
EndSplineSet
EndChar

StartChar: uniA4E8
Encoding: 142 42216 139
Width: 1030
Flags: W
LayerCount: 2
Fore
SplineSet
983 848 m 0,0,1
 983 575 983 575 805 295 c 0,2,3
 606 -18 606 -18 348 -18 c 0,4,5
 240 -18 240 -18 158 39 c 0,6,7
 66 102 66 102 66 205 c 0,8,9
 66 260 66 260 86 305 c 1,10,11
 113 362 113 362 162 362 c 0,12,13
 246 362 246 362 246 311 c 0,14,15
 246 297 246 297 226.5 267.5 c 128,-1,16
 207 238 207 238 207 213 c 0,17,18
 207 162 207 162 252 131 c 128,-1,19
 297 100 297 100 350 100 c 0,20,21
 473 100 473 100 598 258 c 0,22,23
 831 555 831 555 831 893 c 0,24,25
 831 1030 831 1030 707 1030 c 0,26,27
 508 1030 508 1030 449 719 c 1,28,29
 477 719 477 719 532.5 724 c 128,-1,30
 588 729 588 729 616 729 c 0,31,32
 668 729 668 729 668 694 c 0,33,34
 668 657 668 657 651 639 c 0,35,36
 606 592 606 592 297 592 c 0,37,38
 121 592 121 592 121 649 c 0,39,40
 121 700 121 700 213 709 c 1,41,-1
 344 709 l 1,42,43
 305 758 305 758 305 776 c 0,44,45
 305 909 305 909 453 1040 c 1,46,47
 598 1165 598 1165 733 1165 c 0,48,49
 887 1165 887 1165 942 1077 c 0,50,51
 983 1012 983 1012 983 848 c 0,0,1
EndSplineSet
EndChar

StartChar: uniA4E9
Encoding: 143 42217 140
Width: 997
Flags: W
LayerCount: 2
Fore
SplineSet
1030 928 m 0,0,1
 1030 793 1030 793 944 793 c 0,2,3
 918 793 918 793 894 808 c 128,-1,4
 870 823 870 823 870 848 c 0,5,6
 870 864 870 864 878.5 894 c 128,-1,7
 887 924 887 924 887 940 c 0,8,9
 887 1026 887 1026 694 1026 c 0,10,11
 580 1026 580 1026 518 922 c 1,12,13
 467 834 467 834 403 586 c 0,14,15
 377 483 377 483 311 283 c 0,16,17
 233 47 233 47 206.5 15.5 c 128,-1,18
 180 -16 180 -16 143 -16 c 0,19,20
 72 -16 72 -16 72 31 c 0,21,22
 72 84 72 84 135 266 c 1,23,24
 166 348 166 348 223 516 c 1,25,26
 248 600 248 600 298 768 c 128,-1,27
 348 936 348 936 387 997 c 0,28,29
 487 1157 487 1157 719 1157 c 0,30,31
 848 1157 848 1157 930 1108 c 0,32,33
 1030 1049 1030 1049 1030 928 c 0,0,1
EndSplineSet
EndChar

StartChar: uniA4EA
Encoding: 144 42218 141
Width: 1360
Flags: W
LayerCount: 2
Fore
SplineSet
1413 1112 m 0,0,1
 1413 1079 1413 1079 1174 578 c 0,2,3
 930 68 930 68 885 25 c 0,4,5
 850 -8 850 -8 817 -8 c 0,6,7
 770 -8 770 -8 760 43 c 0,8,9
 756 63 756 63 756 131 c 1,10,-1
 735 131 l 1,11,-1
 750 125 l 1,12,-1
 756 129 l 1,13,14
 760 150 760 150 743 154 c 1,15,-1
 735 133 l 1,16,-1
 758 133 l 1,17,18
 758 360 758 360 766 815 c 1,19,20
 698 659 698 659 559 348 c 1,21,22
 391 -8 391 -8 281 -8 c 0,23,24
 205 -8 205 -8 205 141 c 0,25,26
 205 680 205 680 279 1063 c 0,27,28
 295 1149 295 1149 348 1149 c 0,29,30
 379 1149 379 1149 408 1137 c 0,31,32
 446 1120 446 1120 446 1096 c 0,33,34
 446 1018 446 1018 414 815 c 1,35,36
 377 571 377 571 371 518 c 2,37,-1
 334 166 l 1,38,39
 453 440 453 440 512 571 c 1,40,41
 655 881 655 881 707 922 c 0,42,43
 748 954 748 954 791 954 c 0,44,45
 854 954 854 954 870 924 c 0,46,47
 883 901 883 901 883 838 c 0,48,49
 883 475 883 475 864 221 c 1,50,51
 936 365 936 365 1047 643 c 1,52,53
 1161 936 1161 936 1223 1071 c 0,54,55
 1249 1128 1249 1128 1262 1143 c 0,56,57
 1290 1174 1290 1174 1337 1174 c 0,58,59
 1413 1174 1413 1174 1413 1112 c 0,0,1
EndSplineSet
EndChar

StartChar: uniA4EB
Encoding: 145 42219 142
Width: 1044
Flags: W
LayerCount: 2
Fore
SplineSet
1096 1085 m 0,0,1
 1096 1038 1096 1038 893 838 c 1,2,3
 862 803 862 803 780 717 c 1,4,5
 692 629 692 629 627 555 c 1,6,7
 682 367 682 367 764 152 c 0,8,9
 793 76 793 76 793 43 c 0,10,11
 793 -31 793 -31 719 -31 c 0,12,13
 623 -31 623 -31 592 160 c 0,14,15
 575 262 575 262 508 426 c 1,16,17
 494 414 494 414 299 184 c 0,18,19
 143 0 143 0 84 0 c 0,20,21
 61 0 61 0 27 18 c 0,22,23
 -14 39 -14 39 -14 57 c 0,24,25
 -14 72 -14 72 41 121 c 0,26,27
 76 152 76 152 113 184 c 1,28,29
 223 322 223 322 457 588 c 1,30,31
 401 766 401 766 279 991 c 1,32,33
 229 1081 229 1081 229 1108 c 0,34,35
 229 1128 229 1128 262 1143 c 0,36,37
 289 1155 289 1155 313 1155 c 0,38,39
 393 1155 393 1155 436 1063 c 1,40,-1
 494 903 l 1,41,42
 506 877 506 877 522 793 c 0,43,44
 535 729 535 729 573 682 c 1,45,46
 631 780 631 780 791 952 c 1,47,48
 973 1151 973 1151 1044 1151 c 0,49,50
 1096 1151 1096 1151 1096 1085 c 0,0,1
EndSplineSet
EndChar

StartChar: uniA4EC
Encoding: 146 42220 143
Width: 983
Flags: W
LayerCount: 2
Fore
SplineSet
1077 1100 m 0,0,1
 1077 1032 1077 1032 930 866 c 1,2,3
 823 750 823 750 719.5 630 c 128,-1,4
 616 510 616 510 545 362 c 1,5,6
 459 190 459 190 416 49 c 1,7,8
 387 -41 387 -41 330 -41 c 0,9,10
 299 -41 299 -41 276.5 -17.5 c 128,-1,11
 254 6 254 6 254 37 c 0,12,13
 254 80 254 80 326 250 c 0,14,15
 387 395 387 395 426 465 c 1,16,17
 414 520 414 520 305 799 c 0,18,19
 217 1024 217 1024 217 1116 c 0,20,21
 217 1133 217 1133 262 1145 c 0,22,23
 299 1155 299 1155 322 1155 c 0,24,25
 346 1155 346 1155 370.5 1124.5 c 128,-1,26
 395 1094 395 1094 401.5 1065 c 128,-1,27
 408 1036 408 1036 428 958 c 1,28,29
 459 860 459 860 539 606 c 1,30,31
 604 719 604 719 868 1026 c 1,32,33
 885 1051 885 1051 926 1114 c 0,34,35
 948 1149 948 1149 987 1149 c 0,36,37
 1077 1149 1077 1149 1077 1100 c 0,0,1
EndSplineSet
EndChar

StartChar: uniA4ED
Encoding: 147 42221 144
Width: 1069
Flags: W
LayerCount: 2
Fore
SplineSet
1032 1063 m 1,0,1
 795 457 795 457 721 133 c 1,2,3
 762 145 762 145 846 168 c 1,4,-1
 846 147 l 2,5,6
 846 55 846 55 692 10 c 0,7,8
 588 -20 588 -20 463 -20 c 256,9,10
 338 -20 338 -20 229 47 c 0,11,12
 102 125 102 125 102 242 c 0,13,14
 102 487 102 487 487 551 c 1,15,16
 285 649 285 649 285 807 c 0,17,18
 285 954 285 954 453 1061 c 0,19,20
 602 1155 602 1155 758 1155 c 0,21,22
 918 1155 918 1155 999 1118 c 1,23,24
 1030 1087 1030 1087 1032 1063 c 1,0,1
913 1092 m 0,25,26
 913 1110 913 1110 897 1110 c 0,27,28
 866 1110 866 1110 836 1036 c 1,29,30
 780 1038 780 1038 762 1038 c 0,31,32
 639 1038 639 1038 545 973 c 1,33,34
 442 899 442 899 442 780 c 0,35,36
 442 727 442 727 521 659.5 c 128,-1,37
 600 592 600 592 600 567 c 0,38,39
 600 510 600 510 500 459 c 1,40,41
 424 428 424 428 348 395 c 1,42,43
 258 346 258 346 258 260 c 0,44,45
 258 176 258 176 334 131 c 0,46,47
 397 94 397 94 487 94 c 0,48,49
 561 94 561 94 657 133 c 1,50,51
 612 188 612 188 612 252 c 0,52,53
 612 287 612 287 659 430 c 1,54,55
 682 496 682 496 727 625 c 1,56,57
 791 819 791 819 907 1069 c 0,58,59
 913 1081 913 1081 913 1092 c 0,25,26
EndSplineSet
EndChar

StartChar: uniA4EE
Encoding: 148 42222 145
Width: 995
Flags: W
LayerCount: 2
Fore
SplineSet
836 981 m 0,0,1
 836 836 836 836 827.5 545 c 128,-1,2
 819 254 819 254 819 109 c 0,3,4
 819 43 819 43 797.5 16.5 c 128,-1,5
 776 -10 776 -10 711 -10 c 0,6,7
 635 -10 635 -10 635 111 c 0,8,9
 635 287 635 287 678 373 c 1,10,11
 614 362 614 362 520 324 c 1,12,13
 451 295 451 295 389 291 c 1,14,15
 393 293 393 293 256 293 c 1,16,17
 156 25 156 25 119 4 c 0,18,19
 94 -10 94 -10 72 -10 c 0,20,21
 47 -10 47 -10 24.5 6.5 c 128,-1,22
 2 23 2 23 2 47 c 0,23,24
 2 131 2 131 106 305 c 1,25,26
 53 324 53 324 53 340 c 0,27,28
 53 389 53 389 96 428 c 128,-1,29
 139 467 139 467 188 465 c 1,30,31
 270 596 270 596 436 856 c 1,32,33
 639 1161 639 1161 709 1161 c 0,34,35
 836 1161 836 1161 836 981 c 0,0,1
725 913 m 0,36,37
 725 942 725 942 711 1016 c 1,38,39
 461 717 461 717 322 426 c 1,40,41
 367 422 367 422 387 422 c 0,42,43
 436 422 436 422 524 440 c 1,44,45
 625 463 625 463 662 467 c 1,46,47
 725 670 725 670 725 913 c 0,36,37
EndSplineSet
EndChar

StartChar: uniA4EF
Encoding: 149 42223 146
Width: 1092
Flags: W
LayerCount: 2
Fore
SplineSet
1139 1096 m 0,0,1
 1139 1020 1139 1020 1102 954 c 0,2,3
 1094 938 1094 938 1026 829 c 1,4,5
 1071 803 1071 803 1071 788 c 0,6,7
 1071 756 1071 756 1053 723 c 0,8,9
 1032 684 1032 684 1001 684 c 0,10,11
 983 684 983 684 946 690 c 1,12,13
 889 612 889 612 737 352 c 0,14,15
 614 141 614 141 508 33 c 0,16,17
 463 -12 463 -12 416 -12 c 0,18,19
 309 -12 309 -12 309 100 c 0,20,21
 309 555 309 555 324 971 c 0,22,23
 324 997 324 997 330 1065 c 128,-1,24
 336 1133 336 1133 362 1151 c 1,25,26
 379 1161 379 1161 426 1161 c 0,27,28
 492 1161 492 1161 492 1098 c 0,29,30
 492 946 492 946 449 819 c 1,31,32
 526 809 526 809 584 809 c 0,33,34
 618 809 618 809 713 815 c 1,35,36
 797 819 797 819 844 817 c 1,37,38
 872 872 872 872 930 983 c 1,39,40
 975 1065 975 1065 991 1087 c 1,41,42
 1036 1143 1036 1143 1092 1143 c 0,43,44
 1139 1143 1139 1143 1139 1096 c 0,0,1
784 694 m 1,45,46
 768 696 768 696 731 708.5 c 128,-1,47
 694 721 694 721 674 721 c 0,48,49
 621 721 621 721 465 700 c 1,50,51
 461 643 461 643 446 483 c 0,52,53
 434 346 434 346 434 266 c 0,54,55
 434 248 434 248 436 166 c 1,56,57
 559 238 559 238 645 401 c 1,58,59
 692 500 692 500 784 694 c 1,45,46
EndSplineSet
EndChar

StartChar: uniA4F0
Encoding: 150 42224 147
Width: 1006
Flags: W
LayerCount: 2
Fore
SplineSet
1016 1069 m 0,0,1
 1016 1032 1016 1032 992.5 1006.5 c 128,-1,2
 969 981 969 981 932 981 c 1,3,4
 944 981 944 981 518 1010 c 1,5,6
 563 946 563 946 563 930 c 0,7,8
 563 870 563 870 510 778 c 0,9,10
 440 657 440 657 428 629 c 1,11,12
 477 629 477 629 575.5 632 c 128,-1,13
 674 635 674 635 723 635 c 0,14,15
 799 635 799 635 799 588 c 0,16,17
 799 539 799 539 779.5 522.5 c 128,-1,18
 760 506 760 506 707 500 c 1,19,20
 631 489 631 489 639 489 c 1,21,22
 606 489 606 489 379 498 c 1,23,-1
 293 162 l 1,24,25
 322 135 322 135 348 135 c 0,26,27
 401 135 401 135 508.5 139 c 128,-1,28
 616 143 616 143 670 143 c 0,29,30
 702 143 702 143 738 129 c 128,-1,31
 774 115 774 115 774 86 c 0,32,33
 774 16 774 16 694 0 c 0,34,35
 674 -4 674 -4 559 -4 c 0,36,37
 246 -4 246 -4 195 20 c 0,38,39
 121 55 121 55 121 131 c 0,40,41
 121 160 121 160 164 299 c 2,42,-1
 221 485 l 1,43,44
 143 508 143 508 143 553 c 0,45,46
 143 637 143 637 256 635 c 1,47,48
 260 641 260 641 279 655 c 0,49,50
 315 682 315 682 426 999 c 1,51,52
 360 981 360 981 350 981 c 0,53,54
 313 981 313 981 313 1012 c 0,55,56
 313 1098 313 1098 381 1126 c 1,57,58
 424 1145 424 1145 524 1145 c 2,59,-1
 618 1145 l 2,60,61
 1001 1145 1001 1145 1012 1112 c 0,62,63
 1016 1100 1016 1100 1016 1069 c 0,0,1
EndSplineSet
EndChar

StartChar: uniA4F1
Encoding: 151 42225 148
Width: 971
Flags: W
LayerCount: 2
Fore
SplineSet
954 1026 m 0,0,1
 954 944 954 944 854 684 c 1,2,3
 872 657 872 657 872 602 c 0,4,5
 872 555 872 555 803 522 c 1,6,7
 772 469 772 469 735 360 c 0,8,9
 696 246 696 246 670 197 c 1,10,11
 707 119 707 119 707 78 c 0,12,13
 707 39 707 39 674 12 c 0,14,15
 651 -6 651 -6 410 -6 c 0,16,17
 74 -6 74 -6 63 25 c 0,18,19
 59 37 59 37 59 68 c 0,20,21
 59 104 59 104 82.5 131 c 128,-1,22
 106 158 106 158 143 158 c 256,23,24
 180 158 180 158 256 149.5 c 128,-1,25
 332 141 332 141 369 141 c 2,26,-1
 528 141 l 1,27,-1
 526 174 l 1,28,-1
 537 201 l 1,29,30
 561 266 561 266 649 532 c 1,31,32
 604 532 604 532 513 528 c 128,-1,33
 422 524 422 524 377 524 c 0,34,35
 287 524 287 524 287 573 c 0,36,37
 287 625 287 625 319 643 c 0,38,39
 336 653 336 653 399 664 c 0,40,41
 446 672 446 672 459 672 c 0,42,43
 500 672 500 672 583 669 c 128,-1,44
 666 666 666 666 707 666 c 1,45,46
 729 727 729 727 782 985 c 1,47,48
 741 999 741 999 715 999 c 0,49,50
 659 999 659 999 549.5 995 c 128,-1,51
 440 991 440 991 385 991 c 0,52,53
 279 991 279 991 279 1053 c 0,54,55
 279 1149 279 1149 451 1149 c 1,56,57
 438 1149 438 1149 504 1147 c 1,58,59
 504 1147 504 1147 547 1147 c 0,60,61
 604 1147 604 1147 604 1147 c 1,62,63
 682 1149 682 1149 664 1149 c 1,64,65
 954 1149 954 1149 954 1026 c 0,0,1
EndSplineSet
EndChar

StartChar: uniA4F2
Encoding: 152 42226 149
Width: 602
Flags: W
LayerCount: 2
Fore
SplineSet
635 1087 m 1,0,-1
 471 698 l 1,1,2
 381 479 381 479 340 299 c 1,3,4
 328 236 328 236 299 106 c 1,5,6
 264 -27 264 -27 188 -27 c 0,7,8
 119 -27 119 -27 119 20 c 0,9,10
 119 166 119 166 272 625 c 0,11,12
 434 1108 434 1108 526 1147 c 0,13,14
 541 1153 541 1153 571 1153 c 0,15,16
 639 1153 639 1153 635 1087 c 1,0,-1
EndSplineSet
EndChar

StartChar: uniA4F3
Encoding: 153 42227 150
Width: 1030
Flags: W
LayerCount: 2
Fore
SplineSet
989 844 m 0,0,1
 989 530 989 530 846 281 c 0,2,3
 674 -18 674 -18 385 -18 c 0,4,5
 254 -18 254 -18 175 66 c 128,-1,6
 96 150 96 150 96 281 c 0,7,8
 96 459 96 459 203 674 c 0,9,10
 303 877 303 877 440 1010 c 1,11,12
 606 1169 606 1169 774 1169 c 0,13,14
 850 1169 850 1169 850 1100 c 0,15,16
 850 1079 850 1079 838 1047 c 1,17,-1
 899 1049 l 1,18,19
 989 1049 989 1049 989 844 c 0,0,1
858 827 m 0,20,21
 858 971 858 971 778 1040 c 1,22,23
 549 1016 549 1016 393 754 c 0,24,25
 256 524 256 524 256 274 c 0,26,27
 256 102 256 102 414 102 c 0,28,29
 608 102 608 102 743 377 c 1,30,31
 858 608 858 608 858 827 c 0,20,21
EndSplineSet
EndChar

StartChar: uniA4F4
Encoding: 154 42228 151
Width: 1083
Flags: W
LayerCount: 2
Fore
SplineSet
1116 1094 m 0,0,1
 1116 1022 1116 1022 977 643 c 1,2,3
 842 272 842 272 791 186 c 1,4,5
 666 -20 666 -20 416 -20 c 0,6,7
 287 -20 287 -20 207 29 c 0,8,9
 109 88 109 88 109 209 c 0,10,11
 109 362 109 362 197 649 c 1,12,13
 279 920 279 920 360 1073 c 1,14,15
 401 1153 401 1153 457 1153 c 0,16,17
 528 1153 528 1153 528 1098 c 0,18,19
 528 1042 528 1042 473 918 c 1,20,21
 444 858 444 858 391 735 c 1,22,23
 258 408 258 408 258 205 c 0,24,25
 258 156 258 156 322 121 c 0,26,27
 377 90 377 90 432 90 c 0,28,29
 518 90 518 90 596 160 c 1,30,31
 641 199 641 199 758 528 c 0,32,33
 862 819 862 819 893 946 c 1,34,35
 903 993 903 993 915 1038 c 1,36,37
 934 1102 934 1102 952 1122 c 0,38,39
 981 1153 981 1153 1016 1153 c 0,40,41
 1047 1153 1047 1153 1077 1139 c 0,42,43
 1116 1120 1116 1120 1116 1094 c 0,0,1
EndSplineSet
EndChar

StartChar: uniA4F5
Encoding: 155 42229 152
Width: 1102
Flags: W
LayerCount: 2
Fore
SplineSet
1077 932 m 0,0,1
 1077 784 1077 784 991 496 c 0,2,3
 909 219 909 219 831 76 c 0,4,5
 786 -6 786 -6 729 -6 c 0,6,7
 657 -6 657 -6 657 51 c 0,8,9
 657 90 657 90 694 164 c 1,10,11
 715 201 715 201 752 274 c 1,12,13
 813 399 813 399 870 602 c 1,14,15
 932 815 932 815 932 942 c 0,16,17
 932 991 932 991 864 1024 c 1,18,19
 811 1051 811 1051 754 1051 c 0,20,21
 637 1051 637 1051 551 979 c 0,22,23
 512 946 512 946 401 664 c 0,24,25
 307 426 307 426 272 305 c 0,26,27
 270 301 270 301 238 156 c 0,28,29
 213 41 213 41 197 23 c 1,30,31
 174 -6 174 -6 141 -6 c 0,32,33
 111 -6 111 -6 76 10 c 0,34,35
 35 29 35 29 35 55 c 0,36,37
 35 164 35 164 135 418 c 1,38,39
 186 541 186 541 287 788 c 1,40,41
 440 1171 440 1171 778 1171 c 0,42,43
 907 1171 907 1171 985 1118 c 0,44,45
 1077 1055 1077 1055 1077 932 c 0,0,1
EndSplineSet
EndChar

StartChar: uniA4F6
Encoding: 156 42230 153
Width: 915
Flags: W
LayerCount: 2
Fore
SplineSet
897 1061 m 0,0,1
 897 895 897 895 756 571 c 1,2,3
 682 410 682 410 535 88 c 0,4,5
 518 53 518 53 502 25 c 1,6,7
 471 -16 471 -16 432 -16 c 0,8,9
 358 -16 358 -16 358 39 c 0,10,11
 358 166 358 166 479 399 c 0,12,13
 649 727 649 727 659 756 c 0,14,15
 723 926 723 926 766 1159 c 1,16,-1
 754 1143 l 1,17,18
 897 1143 897 1143 897 1061 c 0,0,1
754 1143 m 1,19,-1
 344 1143 l 2,20,21
 301 1143 301 1143 265 1112 c 128,-1,22
 229 1081 229 1081 229 1038 c 0,23,24
 229 1022 229 1022 240.5 1000.5 c 128,-1,25
 252 979 252 979 266 979 c 0,26,27
 520 979 520 979 666 1010 c 1,28,29
 696 1055 696 1055 754 1143 c 1,19,-1
EndSplineSet
EndChar

StartChar: uniA4F7
Encoding: 157 42231 154
Width: 1139
Flags: W
LayerCount: 2
Fore
SplineSet
1157 1053 m 1,0,1
 1157 1051 1157 1051 1090 899 c 1,2,3
 1038 776 1038 776 899 463 c 1,4,5
 805 262 805 262 788 164 c 1,6,7
 846 166 846 166 881 180 c 1,8,9
 928 106 928 106 928 66 c 0,10,11
 928 35 928 35 805 4 c 0,12,13
 700 -23 700 -23 651 -23 c 0,14,15
 156 -23 156 -23 156 344 c 0,16,17
 156 768 156 768 446 1012 c 0,18,19
 627 1163 627 1163 836 1163 c 0,20,21
 1042 1163 1042 1163 1157 1053 c 1,0,1
948 963 m 0,22,23
 948 1028 948 1028 809 1028 c 0,24,25
 600 1028 600 1028 455 782 c 0,26,27
 328 567 328 567 328 342 c 0,28,29
 328 106 328 106 590 106 c 0,30,31
 655 106 655 106 692 164 c 1,32,-1
 666 176 l 1,33,34
 664 186 664 186 664 197 c 0,35,36
 664 324 664 324 806 577.5 c 128,-1,37
 948 831 948 831 948 963 c 0,22,23
EndSplineSet
EndChar

StartChar: uniA4F8
Encoding: 158 42232 155
Width: 397
Flags: W
LayerCount: 2
Fore
SplineSet
279 152 m 0,0,1
 279 80 279 80 215.5 32 c 128,-1,2
 152 -16 152 -16 78 -16 c 0,3,4
 35 -16 35 -16 -3 11.5 c 128,-1,5
 -41 39 -41 39 -41 80 c 0,6,7
 -41 152 -41 152 22.5 199 c 128,-1,8
 86 246 86 246 160 246 c 0,9,10
 203 246 203 246 241 219.5 c 128,-1,11
 279 193 279 193 279 152 c 0,0,1
EndSplineSet
EndChar

StartChar: uniA4F9
Encoding: 159 42233 156
Width: 465
Flags: W
LayerCount: 2
Fore
SplineSet
346 129 m 0,0,1
 346 12 346 12 201 -123 c 1,2,3
 92 -223 92 -223 -49 -299 c 1,4,-1
 -23 -209 l 1,5,6
 176 -98 176 -98 197 -4 c 1,7,-1
 180 25 l 1,8,9
 127 6 127 6 90 6 c 0,10,11
 61 6 61 6 42 32.5 c 128,-1,12
 23 59 23 59 23 90 c 0,13,14
 23 150 23 150 92 195 c 0,15,16
 154 236 154 236 217 236 c 0,17,18
 266 236 266 236 306 206 c 128,-1,19
 346 176 346 176 346 129 c 0,0,1
EndSplineSet
EndChar

StartChar: uniA4FA
Encoding: 160 42234 157
Width: 887
Flags: W
LayerCount: 2
Fore
SplineSet
768 143 m 0,0,1
 768 74 768 74 706.5 28 c 128,-1,2
 645 -18 645 -18 573 -18 c 0,3,4
 528 -18 528 -18 492.5 9.5 c 128,-1,5
 457 37 457 37 457 80 c 0,6,7
 457 147 457 147 522 197 c 0,8,9
 582 242 582 242 651 242 c 0,10,11
 696 242 696 242 732 214 c 128,-1,12
 768 186 768 186 768 143 c 0,0,1
268 141 m 0,13,14
 268 74 268 74 206.5 28 c 128,-1,15
 145 -18 145 -18 76 -18 c 0,16,17
 31 -18 31 -18 -5 9.5 c 128,-1,18
 -41 37 -41 37 -41 80 c 0,19,20
 -41 147 -41 147 20.5 194.5 c 128,-1,21
 82 242 82 242 152 242 c 0,22,23
 199 242 199 242 233.5 214 c 128,-1,24
 268 186 268 186 268 141 c 0,13,14
EndSplineSet
EndChar

StartChar: uniA4FB
Encoding: 161 42235 158
Width: 911
Flags: W
LayerCount: 2
Fore
SplineSet
778 168 m 0,0,1
 778 20 778 20 671.5 -110 c 128,-1,2
 565 -240 565 -240 420 -287 c 1,3,-1
 420 -229 l 1,4,5
 614 -150 614 -150 625 0 c 1,6,-1
 598 14 l 1,7,-1
 559 6 l 1,8,9
 526 10 526 10 502.5 40 c 128,-1,10
 479 70 479 70 479 104 c 0,11,12
 479 174 479 174 536.5 231.5 c 128,-1,13
 594 289 594 289 664 289 c 0,14,15
 778 289 778 289 778 168 c 0,0,1
258 178 m 0,16,17
 258 106 258 106 197.5 51 c 128,-1,18
 137 -4 137 -4 66 -4 c 0,19,20
 20 -4 20 -4 -10.5 24.5 c 128,-1,21
 -41 53 -41 53 -41 98 c 0,22,23
 -41 172 -41 172 18.5 226.5 c 128,-1,24
 78 281 78 281 152 281 c 0,25,26
 197 281 197 281 227.5 252 c 128,-1,27
 258 223 258 223 258 178 c 0,16,17
EndSplineSet
EndChar

StartChar: uniA4FC
Encoding: 162 42236 159
Width: 651
Flags: W
LayerCount: 2
Fore
SplineSet
557 666 m 0,0,1
 557 600 557 600 489 553 c 1,2,3
 430 510 430 510 360 510 c 0,4,5
 319 510 319 510 280.5 535.5 c 128,-1,6
 242 561 242 561 242 600 c 0,7,8
 242 672 242 672 307 717 c 0,9,10
 365 758 365 758 438 758 c 0,11,12
 483 758 483 758 520 733.5 c 128,-1,13
 557 709 557 709 557 666 c 0,0,1
389 145 m 0,14,15
 389 14 389 14 244 -127 c 0,16,17
 125 -242 125 -242 -20 -307 c 1,18,-1
 12 -209 l 1,19,20
 139 -145 139 -145 240 12 c 1,21,22
 170 10 170 10 147 10 c 0,23,24
 102 10 102 10 88 22.5 c 128,-1,25
 74 35 74 35 74 78 c 0,26,27
 74 147 74 147 143 195 c 0,28,29
 205 238 205 238 279 238 c 0,30,31
 324 238 324 238 356.5 213 c 128,-1,32
 389 188 389 188 389 145 c 0,14,15
EndSplineSet
EndChar

StartChar: uniA4FD
Encoding: 163 42237 160
Width: 629
Flags: W
LayerCount: 2
Fore
SplineSet
537 674 m 0,0,1
 537 606 537 606 472.5 558 c 128,-1,2
 408 510 408 510 338 510 c 0,3,4
 293 510 293 510 260 535 c 1,5,6
 221 563 221 563 221 606 c 0,7,8
 221 676 221 676 287 721 c 1,9,10
 346 764 346 764 418 764 c 0,11,12
 461 764 461 764 499 739.5 c 128,-1,13
 537 715 537 715 537 674 c 0,0,1
377 150 m 0,14,15
 377 82 377 82 312.5 35 c 128,-1,16
 248 -12 248 -12 178 -12 c 0,17,18
 135 -12 135 -12 98 13.5 c 128,-1,19
 61 39 61 39 61 80 c 0,20,21
 61 150 61 150 127 197 c 0,22,23
 186 240 186 240 258 240 c 0,24,25
 301 240 301 240 339 215 c 128,-1,26
 377 190 377 190 377 150 c 0,14,15
EndSplineSet
EndChar

StartChar: uniA4FE
Encoding: 164 42238 161
Width: 1206
Flags: W
LayerCount: 2
Fore
SplineSet
1053 158 m 0,0,1
 1053 86 1053 86 986.5 36 c 128,-1,2
 920 -14 920 -14 846 -14 c 0,3,4
 799 -14 799 -14 761 14.5 c 128,-1,5
 723 43 723 43 723 88 c 0,6,7
 723 162 723 162 793 211 c 0,8,9
 856 256 856 256 932 256 c 0,10,11
 979 256 979 256 1016 229.5 c 128,-1,12
 1053 203 1053 203 1053 158 c 0,0,1
778 555 m 1,13,-1
 737 418 l 1,14,-1
 154 418 l 1,15,-1
 195 555 l 1,16,-1
 778 555 l 1,13,-1
EndSplineSet
EndChar

StartChar: uniA4FF
Encoding: 165 42239 162
Width: 1157
Flags: W
LayerCount: 2
Fore
SplineSet
1024 733 m 1,0,-1
 991 614 l 1,1,-1
 223 614 l 1,2,-1
 258 733 l 1,3,-1
 1024 733 l 1,0,-1
918 356 m 1,4,-1
 887 240 l 1,5,-1
 117 240 l 1,6,-1
 150 356 l 1,7,-1
 918 356 l 1,4,-1
EndSplineSet
EndChar

StartChar: endash
Encoding: 106 8211 163
Width: 1280
Flags: W
LayerCount: 2
Fore
SplineSet
1075 567 m 1,0,-1
 205 567 l 1,1,-1
 205 666 l 1,2,-1
 1075 666 l 1,3,-1
 1075 567 l 1,0,-1
EndSplineSet
EndChar

StartChar: emdash
Encoding: 107 8212 164
Width: 1280
Flags: W
LayerCount: 2
Fore
SplineSet
1280 567 m 1,0,-1
 0 567 l 1,1,-1
 0 666 l 1,2,-1
 1280 666 l 1,3,-1
 1280 567 l 1,0,-1
EndSplineSet
EndChar

StartChar: blackstar
Encoding: 115 9733 165
Width: 1819
Flags: W
LayerCount: 2
Fore
SplineSet
1634 764 m 1,0,-1
 1192 524 l 1,1,-1
 1243 129 l 1,2,-1
 913 381 l 1,3,-1
 467 156 l 1,4,-1
 711 535 l 1,5,-1
 385 786 l 1,6,-1
 864 786 l 1,7,-1
 1112 1157 l 1,8,-1
 1161 764 l 1,9,-1
 1634 764 l 1,0,-1
EndSplineSet
EndChar

StartChar: hyphentwo
Encoding: 105 8208 166
Width: 922
Flags: W
LayerCount: 2
Fore
SplineSet
793 571 m 1,0,-1
 748 391 l 1,1,-1
 137 391 l 1,2,-1
 182 571 l 1,3,-1
 793 571 l 1,0,-1
EndSplineSet
EndChar

StartChar: dblanglebracketleft
Encoding: 116 12298 167
Width: 1100
Flags: W
LayerCount: 2
Fore
SplineSet
928 -15 m 1,0,-1
 715 674 l 1,1,-1
 1196 1365 l 1,2,3
 1211 1356 1211 1356 1226.5 1348 c 128,-1,4
 1242 1340 1242 1340 1257 1332 c 1,5,6
 1142 1166 1142 1166 1028.5 1002.5 c 128,-1,7
 915 839 915 839 800 674 c 1,8,9
 850 511 850 511 900.5 345.5 c 128,-1,10
 951 180 951 180 1002 17 c 1,11,-1
 928 -15 l 1,0,-1
707 17 m 1,12,13
 688 9 688 9 669.5 1 c 128,-1,14
 651 -7 651 -7 633 -15 c 1,15,-1
 420 674 l 1,16,-1
 901 1365 l 1,17,18
 916 1356 916 1356 931.5 1348 c 128,-1,19
 947 1340 947 1340 962 1332 c 1,20,-1
 505 674 l 1,21,22
 555 511 555 511 605.5 345.5 c 128,-1,23
 656 180 656 180 707 17 c 1,12,13
EndSplineSet
EndChar

StartChar: dblanglebracketright
Encoding: 117 12299 168
Width: 1100
Flags: W
LayerCount: 2
Fore
SplineSet
155 -15 m 1,0,1
 140 -7 140 -7 124 0.5 c 128,-1,2
 108 8 108 8 93 16 c 1,3,4
 208 181 208 181 321.5 345 c 128,-1,5
 435 509 435 509 550 674 c 1,6,-1
 349 1333 l 1,7,8
 368 1341 368 1341 386 1349 c 128,-1,9
 404 1357 404 1357 423 1365 c 1,10,-1
 635 674 l 1,11,-1
 155 -15 l 1,0,1
450 -15 m 1,12,13
 435 -7 435 -7 419.5 0.5 c 128,-1,14
 404 8 404 8 388 16 c 1,15,16
 503 181 503 181 616.5 345 c 128,-1,17
 730 509 730 509 845 674 c 1,18,-1
 644 1333 l 1,19,20
 663 1341 663 1341 681 1349 c 128,-1,21
 699 1357 699 1357 718 1365 c 1,22,-1
 931 674 l 1,23,-1
 450 -15 l 1,12,13
EndSplineSet
EndChar

StartChar: uni02D7
Encoding: 169 727 169
Width: 922
Flags: W
LayerCount: 2
Fore
SplineSet
793 571 m 1,0,-1
 748 391 l 1,1,-1
 137 391 l 1,2,-1
 182 571 l 1,3,-1
 793 571 l 1,0,-1
EndSplineSet
EndChar
